G04 #@! TF.GenerationSoftware,KiCad,Pcbnew,(5.1.5-0-10_14)*
G04 #@! TF.CreationDate,2020-03-21T13:08:25+11:00*
G04 #@! TF.ProjectId,Internal Gotek Adpater,496e7465-726e-4616-9c20-476f74656b20,rev?*
G04 #@! TF.SameCoordinates,Original*
G04 #@! TF.FileFunction,Soldermask,Bot*
G04 #@! TF.FilePolarity,Negative*
%FSLAX46Y46*%
G04 Gerber Fmt 4.6, Leading zero omitted, Abs format (unit mm)*
G04 Created by KiCad (PCBNEW (5.1.5-0-10_14)) date 2020-03-21 13:08:25*
%MOMM*%
%LPD*%
G04 APERTURE LIST*
%ADD10C,0.100000*%
G04 APERTURE END LIST*
D10*
G36*
X73135142Y-33889242D02*
G01*
X73283101Y-33950529D01*
X73416255Y-34039499D01*
X73529501Y-34152745D01*
X73618471Y-34285899D01*
X73679758Y-34433858D01*
X73711000Y-34590925D01*
X73711000Y-34751075D01*
X73679758Y-34908142D01*
X73618471Y-35056101D01*
X73529501Y-35189255D01*
X73416255Y-35302501D01*
X73283101Y-35391471D01*
X73135142Y-35452758D01*
X72978075Y-35484000D01*
X72817925Y-35484000D01*
X72660858Y-35452758D01*
X72512899Y-35391471D01*
X72379745Y-35302501D01*
X72266499Y-35189255D01*
X72177529Y-35056101D01*
X72116242Y-34908142D01*
X72085000Y-34751075D01*
X72085000Y-34590925D01*
X72116242Y-34433858D01*
X72177529Y-34285899D01*
X72266499Y-34152745D01*
X72379745Y-34039499D01*
X72512899Y-33950529D01*
X72660858Y-33889242D01*
X72817925Y-33858000D01*
X72978075Y-33858000D01*
X73135142Y-33889242D01*
G37*
G36*
X70595142Y-33889242D02*
G01*
X70743101Y-33950529D01*
X70876255Y-34039499D01*
X70989501Y-34152745D01*
X71078471Y-34285899D01*
X71139758Y-34433858D01*
X71171000Y-34590925D01*
X71171000Y-34751075D01*
X71139758Y-34908142D01*
X71078471Y-35056101D01*
X70989501Y-35189255D01*
X70876255Y-35302501D01*
X70743101Y-35391471D01*
X70595142Y-35452758D01*
X70438075Y-35484000D01*
X70277925Y-35484000D01*
X70120858Y-35452758D01*
X69972899Y-35391471D01*
X69839745Y-35302501D01*
X69726499Y-35189255D01*
X69637529Y-35056101D01*
X69576242Y-34908142D01*
X69545000Y-34751075D01*
X69545000Y-34590925D01*
X69576242Y-34433858D01*
X69637529Y-34285899D01*
X69726499Y-34152745D01*
X69839745Y-34039499D01*
X69972899Y-33950529D01*
X70120858Y-33889242D01*
X70277925Y-33858000D01*
X70438075Y-33858000D01*
X70595142Y-33889242D01*
G37*
G36*
X68055142Y-33889242D02*
G01*
X68203101Y-33950529D01*
X68336255Y-34039499D01*
X68449501Y-34152745D01*
X68538471Y-34285899D01*
X68599758Y-34433858D01*
X68631000Y-34590925D01*
X68631000Y-34751075D01*
X68599758Y-34908142D01*
X68538471Y-35056101D01*
X68449501Y-35189255D01*
X68336255Y-35302501D01*
X68203101Y-35391471D01*
X68055142Y-35452758D01*
X67898075Y-35484000D01*
X67737925Y-35484000D01*
X67580858Y-35452758D01*
X67432899Y-35391471D01*
X67299745Y-35302501D01*
X67186499Y-35189255D01*
X67097529Y-35056101D01*
X67036242Y-34908142D01*
X67005000Y-34751075D01*
X67005000Y-34590925D01*
X67036242Y-34433858D01*
X67097529Y-34285899D01*
X67186499Y-34152745D01*
X67299745Y-34039499D01*
X67432899Y-33950529D01*
X67580858Y-33889242D01*
X67737925Y-33858000D01*
X67898075Y-33858000D01*
X68055142Y-33889242D01*
G37*
G36*
X65515142Y-33889242D02*
G01*
X65663101Y-33950529D01*
X65796255Y-34039499D01*
X65909501Y-34152745D01*
X65998471Y-34285899D01*
X66059758Y-34433858D01*
X66091000Y-34590925D01*
X66091000Y-34751075D01*
X66059758Y-34908142D01*
X65998471Y-35056101D01*
X65909501Y-35189255D01*
X65796255Y-35302501D01*
X65663101Y-35391471D01*
X65515142Y-35452758D01*
X65358075Y-35484000D01*
X65197925Y-35484000D01*
X65040858Y-35452758D01*
X64892899Y-35391471D01*
X64759745Y-35302501D01*
X64646499Y-35189255D01*
X64557529Y-35056101D01*
X64496242Y-34908142D01*
X64465000Y-34751075D01*
X64465000Y-34590925D01*
X64496242Y-34433858D01*
X64557529Y-34285899D01*
X64646499Y-34152745D01*
X64759745Y-34039499D01*
X64892899Y-33950529D01*
X65040858Y-33889242D01*
X65197925Y-33858000D01*
X65358075Y-33858000D01*
X65515142Y-33889242D01*
G37*
G36*
X62975142Y-33889242D02*
G01*
X63123101Y-33950529D01*
X63256255Y-34039499D01*
X63369501Y-34152745D01*
X63458471Y-34285899D01*
X63519758Y-34433858D01*
X63551000Y-34590925D01*
X63551000Y-34751075D01*
X63519758Y-34908142D01*
X63458471Y-35056101D01*
X63369501Y-35189255D01*
X63256255Y-35302501D01*
X63123101Y-35391471D01*
X62975142Y-35452758D01*
X62818075Y-35484000D01*
X62657925Y-35484000D01*
X62500858Y-35452758D01*
X62352899Y-35391471D01*
X62219745Y-35302501D01*
X62106499Y-35189255D01*
X62017529Y-35056101D01*
X61956242Y-34908142D01*
X61925000Y-34751075D01*
X61925000Y-34590925D01*
X61956242Y-34433858D01*
X62017529Y-34285899D01*
X62106499Y-34152745D01*
X62219745Y-34039499D01*
X62352899Y-33950529D01*
X62500858Y-33889242D01*
X62657925Y-33858000D01*
X62818075Y-33858000D01*
X62975142Y-33889242D01*
G37*
G36*
X60435142Y-33889242D02*
G01*
X60583101Y-33950529D01*
X60716255Y-34039499D01*
X60829501Y-34152745D01*
X60918471Y-34285899D01*
X60979758Y-34433858D01*
X61011000Y-34590925D01*
X61011000Y-34751075D01*
X60979758Y-34908142D01*
X60918471Y-35056101D01*
X60829501Y-35189255D01*
X60716255Y-35302501D01*
X60583101Y-35391471D01*
X60435142Y-35452758D01*
X60278075Y-35484000D01*
X60117925Y-35484000D01*
X59960858Y-35452758D01*
X59812899Y-35391471D01*
X59679745Y-35302501D01*
X59566499Y-35189255D01*
X59477529Y-35056101D01*
X59416242Y-34908142D01*
X59385000Y-34751075D01*
X59385000Y-34590925D01*
X59416242Y-34433858D01*
X59477529Y-34285899D01*
X59566499Y-34152745D01*
X59679745Y-34039499D01*
X59812899Y-33950529D01*
X59960858Y-33889242D01*
X60117925Y-33858000D01*
X60278075Y-33858000D01*
X60435142Y-33889242D01*
G37*
G36*
X57895142Y-33889242D02*
G01*
X58043101Y-33950529D01*
X58176255Y-34039499D01*
X58289501Y-34152745D01*
X58378471Y-34285899D01*
X58439758Y-34433858D01*
X58471000Y-34590925D01*
X58471000Y-34751075D01*
X58439758Y-34908142D01*
X58378471Y-35056101D01*
X58289501Y-35189255D01*
X58176255Y-35302501D01*
X58043101Y-35391471D01*
X57895142Y-35452758D01*
X57738075Y-35484000D01*
X57577925Y-35484000D01*
X57420858Y-35452758D01*
X57272899Y-35391471D01*
X57139745Y-35302501D01*
X57026499Y-35189255D01*
X56937529Y-35056101D01*
X56876242Y-34908142D01*
X56845000Y-34751075D01*
X56845000Y-34590925D01*
X56876242Y-34433858D01*
X56937529Y-34285899D01*
X57026499Y-34152745D01*
X57139745Y-34039499D01*
X57272899Y-33950529D01*
X57420858Y-33889242D01*
X57577925Y-33858000D01*
X57738075Y-33858000D01*
X57895142Y-33889242D01*
G37*
G36*
X55355142Y-33889242D02*
G01*
X55503101Y-33950529D01*
X55636255Y-34039499D01*
X55749501Y-34152745D01*
X55838471Y-34285899D01*
X55899758Y-34433858D01*
X55931000Y-34590925D01*
X55931000Y-34751075D01*
X55899758Y-34908142D01*
X55838471Y-35056101D01*
X55749501Y-35189255D01*
X55636255Y-35302501D01*
X55503101Y-35391471D01*
X55355142Y-35452758D01*
X55198075Y-35484000D01*
X55037925Y-35484000D01*
X54880858Y-35452758D01*
X54732899Y-35391471D01*
X54599745Y-35302501D01*
X54486499Y-35189255D01*
X54397529Y-35056101D01*
X54336242Y-34908142D01*
X54305000Y-34751075D01*
X54305000Y-34590925D01*
X54336242Y-34433858D01*
X54397529Y-34285899D01*
X54486499Y-34152745D01*
X54599745Y-34039499D01*
X54732899Y-33950529D01*
X54880858Y-33889242D01*
X55037925Y-33858000D01*
X55198075Y-33858000D01*
X55355142Y-33889242D01*
G37*
G36*
X52815142Y-33889242D02*
G01*
X52963101Y-33950529D01*
X53096255Y-34039499D01*
X53209501Y-34152745D01*
X53298471Y-34285899D01*
X53359758Y-34433858D01*
X53391000Y-34590925D01*
X53391000Y-34751075D01*
X53359758Y-34908142D01*
X53298471Y-35056101D01*
X53209501Y-35189255D01*
X53096255Y-35302501D01*
X52963101Y-35391471D01*
X52815142Y-35452758D01*
X52658075Y-35484000D01*
X52497925Y-35484000D01*
X52340858Y-35452758D01*
X52192899Y-35391471D01*
X52059745Y-35302501D01*
X51946499Y-35189255D01*
X51857529Y-35056101D01*
X51796242Y-34908142D01*
X51765000Y-34751075D01*
X51765000Y-34590925D01*
X51796242Y-34433858D01*
X51857529Y-34285899D01*
X51946499Y-34152745D01*
X52059745Y-34039499D01*
X52192899Y-33950529D01*
X52340858Y-33889242D01*
X52497925Y-33858000D01*
X52658075Y-33858000D01*
X52815142Y-33889242D01*
G37*
G36*
X50275142Y-33889242D02*
G01*
X50423101Y-33950529D01*
X50556255Y-34039499D01*
X50669501Y-34152745D01*
X50758471Y-34285899D01*
X50819758Y-34433858D01*
X50851000Y-34590925D01*
X50851000Y-34751075D01*
X50819758Y-34908142D01*
X50758471Y-35056101D01*
X50669501Y-35189255D01*
X50556255Y-35302501D01*
X50423101Y-35391471D01*
X50275142Y-35452758D01*
X50118075Y-35484000D01*
X49957925Y-35484000D01*
X49800858Y-35452758D01*
X49652899Y-35391471D01*
X49519745Y-35302501D01*
X49406499Y-35189255D01*
X49317529Y-35056101D01*
X49256242Y-34908142D01*
X49225000Y-34751075D01*
X49225000Y-34590925D01*
X49256242Y-34433858D01*
X49317529Y-34285899D01*
X49406499Y-34152745D01*
X49519745Y-34039499D01*
X49652899Y-33950529D01*
X49800858Y-33889242D01*
X49957925Y-33858000D01*
X50118075Y-33858000D01*
X50275142Y-33889242D01*
G37*
G36*
X47735142Y-33889242D02*
G01*
X47883101Y-33950529D01*
X48016255Y-34039499D01*
X48129501Y-34152745D01*
X48218471Y-34285899D01*
X48279758Y-34433858D01*
X48311000Y-34590925D01*
X48311000Y-34751075D01*
X48279758Y-34908142D01*
X48218471Y-35056101D01*
X48129501Y-35189255D01*
X48016255Y-35302501D01*
X47883101Y-35391471D01*
X47735142Y-35452758D01*
X47578075Y-35484000D01*
X47417925Y-35484000D01*
X47260858Y-35452758D01*
X47112899Y-35391471D01*
X46979745Y-35302501D01*
X46866499Y-35189255D01*
X46777529Y-35056101D01*
X46716242Y-34908142D01*
X46685000Y-34751075D01*
X46685000Y-34590925D01*
X46716242Y-34433858D01*
X46777529Y-34285899D01*
X46866499Y-34152745D01*
X46979745Y-34039499D01*
X47112899Y-33950529D01*
X47260858Y-33889242D01*
X47417925Y-33858000D01*
X47578075Y-33858000D01*
X47735142Y-33889242D01*
G37*
G36*
X45195142Y-33889242D02*
G01*
X45343101Y-33950529D01*
X45476255Y-34039499D01*
X45589501Y-34152745D01*
X45678471Y-34285899D01*
X45739758Y-34433858D01*
X45771000Y-34590925D01*
X45771000Y-34751075D01*
X45739758Y-34908142D01*
X45678471Y-35056101D01*
X45589501Y-35189255D01*
X45476255Y-35302501D01*
X45343101Y-35391471D01*
X45195142Y-35452758D01*
X45038075Y-35484000D01*
X44877925Y-35484000D01*
X44720858Y-35452758D01*
X44572899Y-35391471D01*
X44439745Y-35302501D01*
X44326499Y-35189255D01*
X44237529Y-35056101D01*
X44176242Y-34908142D01*
X44145000Y-34751075D01*
X44145000Y-34590925D01*
X44176242Y-34433858D01*
X44237529Y-34285899D01*
X44326499Y-34152745D01*
X44439745Y-34039499D01*
X44572899Y-33950529D01*
X44720858Y-33889242D01*
X44877925Y-33858000D01*
X45038075Y-33858000D01*
X45195142Y-33889242D01*
G37*
G36*
X42655142Y-33889242D02*
G01*
X42803101Y-33950529D01*
X42936255Y-34039499D01*
X43049501Y-34152745D01*
X43138471Y-34285899D01*
X43199758Y-34433858D01*
X43231000Y-34590925D01*
X43231000Y-34751075D01*
X43199758Y-34908142D01*
X43138471Y-35056101D01*
X43049501Y-35189255D01*
X42936255Y-35302501D01*
X42803101Y-35391471D01*
X42655142Y-35452758D01*
X42498075Y-35484000D01*
X42337925Y-35484000D01*
X42180858Y-35452758D01*
X42032899Y-35391471D01*
X41899745Y-35302501D01*
X41786499Y-35189255D01*
X41697529Y-35056101D01*
X41636242Y-34908142D01*
X41605000Y-34751075D01*
X41605000Y-34590925D01*
X41636242Y-34433858D01*
X41697529Y-34285899D01*
X41786499Y-34152745D01*
X41899745Y-34039499D01*
X42032899Y-33950529D01*
X42180858Y-33889242D01*
X42337925Y-33858000D01*
X42498075Y-33858000D01*
X42655142Y-33889242D01*
G37*
G36*
X40115142Y-33889242D02*
G01*
X40263101Y-33950529D01*
X40396255Y-34039499D01*
X40509501Y-34152745D01*
X40598471Y-34285899D01*
X40659758Y-34433858D01*
X40691000Y-34590925D01*
X40691000Y-34751075D01*
X40659758Y-34908142D01*
X40598471Y-35056101D01*
X40509501Y-35189255D01*
X40396255Y-35302501D01*
X40263101Y-35391471D01*
X40115142Y-35452758D01*
X39958075Y-35484000D01*
X39797925Y-35484000D01*
X39640858Y-35452758D01*
X39492899Y-35391471D01*
X39359745Y-35302501D01*
X39246499Y-35189255D01*
X39157529Y-35056101D01*
X39096242Y-34908142D01*
X39065000Y-34751075D01*
X39065000Y-34590925D01*
X39096242Y-34433858D01*
X39157529Y-34285899D01*
X39246499Y-34152745D01*
X39359745Y-34039499D01*
X39492899Y-33950529D01*
X39640858Y-33889242D01*
X39797925Y-33858000D01*
X39958075Y-33858000D01*
X40115142Y-33889242D01*
G37*
G36*
X37575142Y-33889242D02*
G01*
X37723101Y-33950529D01*
X37856255Y-34039499D01*
X37969501Y-34152745D01*
X38058471Y-34285899D01*
X38119758Y-34433858D01*
X38151000Y-34590925D01*
X38151000Y-34751075D01*
X38119758Y-34908142D01*
X38058471Y-35056101D01*
X37969501Y-35189255D01*
X37856255Y-35302501D01*
X37723101Y-35391471D01*
X37575142Y-35452758D01*
X37418075Y-35484000D01*
X37257925Y-35484000D01*
X37100858Y-35452758D01*
X36952899Y-35391471D01*
X36819745Y-35302501D01*
X36706499Y-35189255D01*
X36617529Y-35056101D01*
X36556242Y-34908142D01*
X36525000Y-34751075D01*
X36525000Y-34590925D01*
X36556242Y-34433858D01*
X36617529Y-34285899D01*
X36706499Y-34152745D01*
X36819745Y-34039499D01*
X36952899Y-33950529D01*
X37100858Y-33889242D01*
X37257925Y-33858000D01*
X37418075Y-33858000D01*
X37575142Y-33889242D01*
G37*
G36*
X35035142Y-33889242D02*
G01*
X35183101Y-33950529D01*
X35316255Y-34039499D01*
X35429501Y-34152745D01*
X35518471Y-34285899D01*
X35579758Y-34433858D01*
X35611000Y-34590925D01*
X35611000Y-34751075D01*
X35579758Y-34908142D01*
X35518471Y-35056101D01*
X35429501Y-35189255D01*
X35316255Y-35302501D01*
X35183101Y-35391471D01*
X35035142Y-35452758D01*
X34878075Y-35484000D01*
X34717925Y-35484000D01*
X34560858Y-35452758D01*
X34412899Y-35391471D01*
X34279745Y-35302501D01*
X34166499Y-35189255D01*
X34077529Y-35056101D01*
X34016242Y-34908142D01*
X33985000Y-34751075D01*
X33985000Y-34590925D01*
X34016242Y-34433858D01*
X34077529Y-34285899D01*
X34166499Y-34152745D01*
X34279745Y-34039499D01*
X34412899Y-33950529D01*
X34560858Y-33889242D01*
X34717925Y-33858000D01*
X34878075Y-33858000D01*
X35035142Y-33889242D01*
G37*
G36*
X33071000Y-35484000D02*
G01*
X31445000Y-35484000D01*
X31445000Y-33858000D01*
X33071000Y-33858000D01*
X33071000Y-35484000D01*
G37*
G36*
X25983500Y-34302000D02*
G01*
X24181500Y-34302000D01*
X24181500Y-32500000D01*
X25983500Y-32500000D01*
X25983500Y-34302000D01*
G37*
G36*
X17576012Y-32504927D02*
G01*
X17725312Y-32534624D01*
X17889284Y-32602544D01*
X18036854Y-32701147D01*
X18162353Y-32826646D01*
X18260956Y-32974216D01*
X18328876Y-33138188D01*
X18363500Y-33312259D01*
X18363500Y-33489741D01*
X18328876Y-33663812D01*
X18260956Y-33827784D01*
X18162353Y-33975354D01*
X18036854Y-34100853D01*
X17889284Y-34199456D01*
X17725312Y-34267376D01*
X17576012Y-34297073D01*
X17551242Y-34302000D01*
X17373758Y-34302000D01*
X17348988Y-34297073D01*
X17199688Y-34267376D01*
X17035716Y-34199456D01*
X16888146Y-34100853D01*
X16762647Y-33975354D01*
X16664044Y-33827784D01*
X16596124Y-33663812D01*
X16561500Y-33489741D01*
X16561500Y-33312259D01*
X16596124Y-33138188D01*
X16664044Y-32974216D01*
X16762647Y-32826646D01*
X16888146Y-32701147D01*
X17035716Y-32602544D01*
X17199688Y-32534624D01*
X17348988Y-32504927D01*
X17373758Y-32500000D01*
X17551242Y-32500000D01*
X17576012Y-32504927D01*
G37*
G36*
X20116012Y-32504927D02*
G01*
X20265312Y-32534624D01*
X20429284Y-32602544D01*
X20576854Y-32701147D01*
X20702353Y-32826646D01*
X20800956Y-32974216D01*
X20868876Y-33138188D01*
X20903500Y-33312259D01*
X20903500Y-33489741D01*
X20868876Y-33663812D01*
X20800956Y-33827784D01*
X20702353Y-33975354D01*
X20576854Y-34100853D01*
X20429284Y-34199456D01*
X20265312Y-34267376D01*
X20116012Y-34297073D01*
X20091242Y-34302000D01*
X19913758Y-34302000D01*
X19888988Y-34297073D01*
X19739688Y-34267376D01*
X19575716Y-34199456D01*
X19428146Y-34100853D01*
X19302647Y-33975354D01*
X19204044Y-33827784D01*
X19136124Y-33663812D01*
X19101500Y-33489741D01*
X19101500Y-33312259D01*
X19136124Y-33138188D01*
X19204044Y-32974216D01*
X19302647Y-32826646D01*
X19428146Y-32701147D01*
X19575716Y-32602544D01*
X19739688Y-32534624D01*
X19888988Y-32504927D01*
X19913758Y-32500000D01*
X20091242Y-32500000D01*
X20116012Y-32504927D01*
G37*
G36*
X22656012Y-32504927D02*
G01*
X22805312Y-32534624D01*
X22969284Y-32602544D01*
X23116854Y-32701147D01*
X23242353Y-32826646D01*
X23340956Y-32974216D01*
X23408876Y-33138188D01*
X23443500Y-33312259D01*
X23443500Y-33489741D01*
X23408876Y-33663812D01*
X23340956Y-33827784D01*
X23242353Y-33975354D01*
X23116854Y-34100853D01*
X22969284Y-34199456D01*
X22805312Y-34267376D01*
X22656012Y-34297073D01*
X22631242Y-34302000D01*
X22453758Y-34302000D01*
X22428988Y-34297073D01*
X22279688Y-34267376D01*
X22115716Y-34199456D01*
X21968146Y-34100853D01*
X21842647Y-33975354D01*
X21744044Y-33827784D01*
X21676124Y-33663812D01*
X21641500Y-33489741D01*
X21641500Y-33312259D01*
X21676124Y-33138188D01*
X21744044Y-32974216D01*
X21842647Y-32826646D01*
X21968146Y-32701147D01*
X22115716Y-32602544D01*
X22279688Y-32534624D01*
X22428988Y-32504927D01*
X22453758Y-32500000D01*
X22631242Y-32500000D01*
X22656012Y-32504927D01*
G37*
G36*
X32495142Y-31349242D02*
G01*
X32643101Y-31410529D01*
X32776255Y-31499499D01*
X32889501Y-31612745D01*
X32978471Y-31745899D01*
X33039758Y-31893858D01*
X33071000Y-32050925D01*
X33071000Y-32211075D01*
X33039758Y-32368142D01*
X32978471Y-32516101D01*
X32889501Y-32649255D01*
X32776255Y-32762501D01*
X32643101Y-32851471D01*
X32495142Y-32912758D01*
X32338075Y-32944000D01*
X32177925Y-32944000D01*
X32020858Y-32912758D01*
X31872899Y-32851471D01*
X31739745Y-32762501D01*
X31626499Y-32649255D01*
X31537529Y-32516101D01*
X31476242Y-32368142D01*
X31445000Y-32211075D01*
X31445000Y-32050925D01*
X31476242Y-31893858D01*
X31537529Y-31745899D01*
X31626499Y-31612745D01*
X31739745Y-31499499D01*
X31872899Y-31410529D01*
X32020858Y-31349242D01*
X32177925Y-31318000D01*
X32338075Y-31318000D01*
X32495142Y-31349242D01*
G37*
G36*
X35035142Y-31349242D02*
G01*
X35183101Y-31410529D01*
X35316255Y-31499499D01*
X35429501Y-31612745D01*
X35518471Y-31745899D01*
X35579758Y-31893858D01*
X35611000Y-32050925D01*
X35611000Y-32211075D01*
X35579758Y-32368142D01*
X35518471Y-32516101D01*
X35429501Y-32649255D01*
X35316255Y-32762501D01*
X35183101Y-32851471D01*
X35035142Y-32912758D01*
X34878075Y-32944000D01*
X34717925Y-32944000D01*
X34560858Y-32912758D01*
X34412899Y-32851471D01*
X34279745Y-32762501D01*
X34166499Y-32649255D01*
X34077529Y-32516101D01*
X34016242Y-32368142D01*
X33985000Y-32211075D01*
X33985000Y-32050925D01*
X34016242Y-31893858D01*
X34077529Y-31745899D01*
X34166499Y-31612745D01*
X34279745Y-31499499D01*
X34412899Y-31410529D01*
X34560858Y-31349242D01*
X34717925Y-31318000D01*
X34878075Y-31318000D01*
X35035142Y-31349242D01*
G37*
G36*
X37575142Y-31349242D02*
G01*
X37723101Y-31410529D01*
X37856255Y-31499499D01*
X37969501Y-31612745D01*
X38058471Y-31745899D01*
X38119758Y-31893858D01*
X38151000Y-32050925D01*
X38151000Y-32211075D01*
X38119758Y-32368142D01*
X38058471Y-32516101D01*
X37969501Y-32649255D01*
X37856255Y-32762501D01*
X37723101Y-32851471D01*
X37575142Y-32912758D01*
X37418075Y-32944000D01*
X37257925Y-32944000D01*
X37100858Y-32912758D01*
X36952899Y-32851471D01*
X36819745Y-32762501D01*
X36706499Y-32649255D01*
X36617529Y-32516101D01*
X36556242Y-32368142D01*
X36525000Y-32211075D01*
X36525000Y-32050925D01*
X36556242Y-31893858D01*
X36617529Y-31745899D01*
X36706499Y-31612745D01*
X36819745Y-31499499D01*
X36952899Y-31410529D01*
X37100858Y-31349242D01*
X37257925Y-31318000D01*
X37418075Y-31318000D01*
X37575142Y-31349242D01*
G37*
G36*
X40115142Y-31349242D02*
G01*
X40263101Y-31410529D01*
X40396255Y-31499499D01*
X40509501Y-31612745D01*
X40598471Y-31745899D01*
X40659758Y-31893858D01*
X40691000Y-32050925D01*
X40691000Y-32211075D01*
X40659758Y-32368142D01*
X40598471Y-32516101D01*
X40509501Y-32649255D01*
X40396255Y-32762501D01*
X40263101Y-32851471D01*
X40115142Y-32912758D01*
X39958075Y-32944000D01*
X39797925Y-32944000D01*
X39640858Y-32912758D01*
X39492899Y-32851471D01*
X39359745Y-32762501D01*
X39246499Y-32649255D01*
X39157529Y-32516101D01*
X39096242Y-32368142D01*
X39065000Y-32211075D01*
X39065000Y-32050925D01*
X39096242Y-31893858D01*
X39157529Y-31745899D01*
X39246499Y-31612745D01*
X39359745Y-31499499D01*
X39492899Y-31410529D01*
X39640858Y-31349242D01*
X39797925Y-31318000D01*
X39958075Y-31318000D01*
X40115142Y-31349242D01*
G37*
G36*
X45195142Y-31349242D02*
G01*
X45343101Y-31410529D01*
X45476255Y-31499499D01*
X45589501Y-31612745D01*
X45678471Y-31745899D01*
X45739758Y-31893858D01*
X45771000Y-32050925D01*
X45771000Y-32211075D01*
X45739758Y-32368142D01*
X45678471Y-32516101D01*
X45589501Y-32649255D01*
X45476255Y-32762501D01*
X45343101Y-32851471D01*
X45195142Y-32912758D01*
X45038075Y-32944000D01*
X44877925Y-32944000D01*
X44720858Y-32912758D01*
X44572899Y-32851471D01*
X44439745Y-32762501D01*
X44326499Y-32649255D01*
X44237529Y-32516101D01*
X44176242Y-32368142D01*
X44145000Y-32211075D01*
X44145000Y-32050925D01*
X44176242Y-31893858D01*
X44237529Y-31745899D01*
X44326499Y-31612745D01*
X44439745Y-31499499D01*
X44572899Y-31410529D01*
X44720858Y-31349242D01*
X44877925Y-31318000D01*
X45038075Y-31318000D01*
X45195142Y-31349242D01*
G37*
G36*
X73135142Y-31349242D02*
G01*
X73283101Y-31410529D01*
X73416255Y-31499499D01*
X73529501Y-31612745D01*
X73618471Y-31745899D01*
X73679758Y-31893858D01*
X73711000Y-32050925D01*
X73711000Y-32211075D01*
X73679758Y-32368142D01*
X73618471Y-32516101D01*
X73529501Y-32649255D01*
X73416255Y-32762501D01*
X73283101Y-32851471D01*
X73135142Y-32912758D01*
X72978075Y-32944000D01*
X72817925Y-32944000D01*
X72660858Y-32912758D01*
X72512899Y-32851471D01*
X72379745Y-32762501D01*
X72266499Y-32649255D01*
X72177529Y-32516101D01*
X72116242Y-32368142D01*
X72085000Y-32211075D01*
X72085000Y-32050925D01*
X72116242Y-31893858D01*
X72177529Y-31745899D01*
X72266499Y-31612745D01*
X72379745Y-31499499D01*
X72512899Y-31410529D01*
X72660858Y-31349242D01*
X72817925Y-31318000D01*
X72978075Y-31318000D01*
X73135142Y-31349242D01*
G37*
G36*
X47735142Y-31349242D02*
G01*
X47883101Y-31410529D01*
X48016255Y-31499499D01*
X48129501Y-31612745D01*
X48218471Y-31745899D01*
X48279758Y-31893858D01*
X48311000Y-32050925D01*
X48311000Y-32211075D01*
X48279758Y-32368142D01*
X48218471Y-32516101D01*
X48129501Y-32649255D01*
X48016255Y-32762501D01*
X47883101Y-32851471D01*
X47735142Y-32912758D01*
X47578075Y-32944000D01*
X47417925Y-32944000D01*
X47260858Y-32912758D01*
X47112899Y-32851471D01*
X46979745Y-32762501D01*
X46866499Y-32649255D01*
X46777529Y-32516101D01*
X46716242Y-32368142D01*
X46685000Y-32211075D01*
X46685000Y-32050925D01*
X46716242Y-31893858D01*
X46777529Y-31745899D01*
X46866499Y-31612745D01*
X46979745Y-31499499D01*
X47112899Y-31410529D01*
X47260858Y-31349242D01*
X47417925Y-31318000D01*
X47578075Y-31318000D01*
X47735142Y-31349242D01*
G37*
G36*
X70595142Y-31349242D02*
G01*
X70743101Y-31410529D01*
X70876255Y-31499499D01*
X70989501Y-31612745D01*
X71078471Y-31745899D01*
X71139758Y-31893858D01*
X71171000Y-32050925D01*
X71171000Y-32211075D01*
X71139758Y-32368142D01*
X71078471Y-32516101D01*
X70989501Y-32649255D01*
X70876255Y-32762501D01*
X70743101Y-32851471D01*
X70595142Y-32912758D01*
X70438075Y-32944000D01*
X70277925Y-32944000D01*
X70120858Y-32912758D01*
X69972899Y-32851471D01*
X69839745Y-32762501D01*
X69726499Y-32649255D01*
X69637529Y-32516101D01*
X69576242Y-32368142D01*
X69545000Y-32211075D01*
X69545000Y-32050925D01*
X69576242Y-31893858D01*
X69637529Y-31745899D01*
X69726499Y-31612745D01*
X69839745Y-31499499D01*
X69972899Y-31410529D01*
X70120858Y-31349242D01*
X70277925Y-31318000D01*
X70438075Y-31318000D01*
X70595142Y-31349242D01*
G37*
G36*
X68055142Y-31349242D02*
G01*
X68203101Y-31410529D01*
X68336255Y-31499499D01*
X68449501Y-31612745D01*
X68538471Y-31745899D01*
X68599758Y-31893858D01*
X68631000Y-32050925D01*
X68631000Y-32211075D01*
X68599758Y-32368142D01*
X68538471Y-32516101D01*
X68449501Y-32649255D01*
X68336255Y-32762501D01*
X68203101Y-32851471D01*
X68055142Y-32912758D01*
X67898075Y-32944000D01*
X67737925Y-32944000D01*
X67580858Y-32912758D01*
X67432899Y-32851471D01*
X67299745Y-32762501D01*
X67186499Y-32649255D01*
X67097529Y-32516101D01*
X67036242Y-32368142D01*
X67005000Y-32211075D01*
X67005000Y-32050925D01*
X67036242Y-31893858D01*
X67097529Y-31745899D01*
X67186499Y-31612745D01*
X67299745Y-31499499D01*
X67432899Y-31410529D01*
X67580858Y-31349242D01*
X67737925Y-31318000D01*
X67898075Y-31318000D01*
X68055142Y-31349242D01*
G37*
G36*
X65515142Y-31349242D02*
G01*
X65663101Y-31410529D01*
X65796255Y-31499499D01*
X65909501Y-31612745D01*
X65998471Y-31745899D01*
X66059758Y-31893858D01*
X66091000Y-32050925D01*
X66091000Y-32211075D01*
X66059758Y-32368142D01*
X65998471Y-32516101D01*
X65909501Y-32649255D01*
X65796255Y-32762501D01*
X65663101Y-32851471D01*
X65515142Y-32912758D01*
X65358075Y-32944000D01*
X65197925Y-32944000D01*
X65040858Y-32912758D01*
X64892899Y-32851471D01*
X64759745Y-32762501D01*
X64646499Y-32649255D01*
X64557529Y-32516101D01*
X64496242Y-32368142D01*
X64465000Y-32211075D01*
X64465000Y-32050925D01*
X64496242Y-31893858D01*
X64557529Y-31745899D01*
X64646499Y-31612745D01*
X64759745Y-31499499D01*
X64892899Y-31410529D01*
X65040858Y-31349242D01*
X65197925Y-31318000D01*
X65358075Y-31318000D01*
X65515142Y-31349242D01*
G37*
G36*
X62975142Y-31349242D02*
G01*
X63123101Y-31410529D01*
X63256255Y-31499499D01*
X63369501Y-31612745D01*
X63458471Y-31745899D01*
X63519758Y-31893858D01*
X63551000Y-32050925D01*
X63551000Y-32211075D01*
X63519758Y-32368142D01*
X63458471Y-32516101D01*
X63369501Y-32649255D01*
X63256255Y-32762501D01*
X63123101Y-32851471D01*
X62975142Y-32912758D01*
X62818075Y-32944000D01*
X62657925Y-32944000D01*
X62500858Y-32912758D01*
X62352899Y-32851471D01*
X62219745Y-32762501D01*
X62106499Y-32649255D01*
X62017529Y-32516101D01*
X61956242Y-32368142D01*
X61925000Y-32211075D01*
X61925000Y-32050925D01*
X61956242Y-31893858D01*
X62017529Y-31745899D01*
X62106499Y-31612745D01*
X62219745Y-31499499D01*
X62352899Y-31410529D01*
X62500858Y-31349242D01*
X62657925Y-31318000D01*
X62818075Y-31318000D01*
X62975142Y-31349242D01*
G37*
G36*
X60435142Y-31349242D02*
G01*
X60583101Y-31410529D01*
X60716255Y-31499499D01*
X60829501Y-31612745D01*
X60918471Y-31745899D01*
X60979758Y-31893858D01*
X61011000Y-32050925D01*
X61011000Y-32211075D01*
X60979758Y-32368142D01*
X60918471Y-32516101D01*
X60829501Y-32649255D01*
X60716255Y-32762501D01*
X60583101Y-32851471D01*
X60435142Y-32912758D01*
X60278075Y-32944000D01*
X60117925Y-32944000D01*
X59960858Y-32912758D01*
X59812899Y-32851471D01*
X59679745Y-32762501D01*
X59566499Y-32649255D01*
X59477529Y-32516101D01*
X59416242Y-32368142D01*
X59385000Y-32211075D01*
X59385000Y-32050925D01*
X59416242Y-31893858D01*
X59477529Y-31745899D01*
X59566499Y-31612745D01*
X59679745Y-31499499D01*
X59812899Y-31410529D01*
X59960858Y-31349242D01*
X60117925Y-31318000D01*
X60278075Y-31318000D01*
X60435142Y-31349242D01*
G37*
G36*
X57895142Y-31349242D02*
G01*
X58043101Y-31410529D01*
X58176255Y-31499499D01*
X58289501Y-31612745D01*
X58378471Y-31745899D01*
X58439758Y-31893858D01*
X58471000Y-32050925D01*
X58471000Y-32211075D01*
X58439758Y-32368142D01*
X58378471Y-32516101D01*
X58289501Y-32649255D01*
X58176255Y-32762501D01*
X58043101Y-32851471D01*
X57895142Y-32912758D01*
X57738075Y-32944000D01*
X57577925Y-32944000D01*
X57420858Y-32912758D01*
X57272899Y-32851471D01*
X57139745Y-32762501D01*
X57026499Y-32649255D01*
X56937529Y-32516101D01*
X56876242Y-32368142D01*
X56845000Y-32211075D01*
X56845000Y-32050925D01*
X56876242Y-31893858D01*
X56937529Y-31745899D01*
X57026499Y-31612745D01*
X57139745Y-31499499D01*
X57272899Y-31410529D01*
X57420858Y-31349242D01*
X57577925Y-31318000D01*
X57738075Y-31318000D01*
X57895142Y-31349242D01*
G37*
G36*
X55355142Y-31349242D02*
G01*
X55503101Y-31410529D01*
X55636255Y-31499499D01*
X55749501Y-31612745D01*
X55838471Y-31745899D01*
X55899758Y-31893858D01*
X55931000Y-32050925D01*
X55931000Y-32211075D01*
X55899758Y-32368142D01*
X55838471Y-32516101D01*
X55749501Y-32649255D01*
X55636255Y-32762501D01*
X55503101Y-32851471D01*
X55355142Y-32912758D01*
X55198075Y-32944000D01*
X55037925Y-32944000D01*
X54880858Y-32912758D01*
X54732899Y-32851471D01*
X54599745Y-32762501D01*
X54486499Y-32649255D01*
X54397529Y-32516101D01*
X54336242Y-32368142D01*
X54305000Y-32211075D01*
X54305000Y-32050925D01*
X54336242Y-31893858D01*
X54397529Y-31745899D01*
X54486499Y-31612745D01*
X54599745Y-31499499D01*
X54732899Y-31410529D01*
X54880858Y-31349242D01*
X55037925Y-31318000D01*
X55198075Y-31318000D01*
X55355142Y-31349242D01*
G37*
G36*
X52815142Y-31349242D02*
G01*
X52963101Y-31410529D01*
X53096255Y-31499499D01*
X53209501Y-31612745D01*
X53298471Y-31745899D01*
X53359758Y-31893858D01*
X53391000Y-32050925D01*
X53391000Y-32211075D01*
X53359758Y-32368142D01*
X53298471Y-32516101D01*
X53209501Y-32649255D01*
X53096255Y-32762501D01*
X52963101Y-32851471D01*
X52815142Y-32912758D01*
X52658075Y-32944000D01*
X52497925Y-32944000D01*
X52340858Y-32912758D01*
X52192899Y-32851471D01*
X52059745Y-32762501D01*
X51946499Y-32649255D01*
X51857529Y-32516101D01*
X51796242Y-32368142D01*
X51765000Y-32211075D01*
X51765000Y-32050925D01*
X51796242Y-31893858D01*
X51857529Y-31745899D01*
X51946499Y-31612745D01*
X52059745Y-31499499D01*
X52192899Y-31410529D01*
X52340858Y-31349242D01*
X52497925Y-31318000D01*
X52658075Y-31318000D01*
X52815142Y-31349242D01*
G37*
G36*
X50275142Y-31349242D02*
G01*
X50423101Y-31410529D01*
X50556255Y-31499499D01*
X50669501Y-31612745D01*
X50758471Y-31745899D01*
X50819758Y-31893858D01*
X50851000Y-32050925D01*
X50851000Y-32211075D01*
X50819758Y-32368142D01*
X50758471Y-32516101D01*
X50669501Y-32649255D01*
X50556255Y-32762501D01*
X50423101Y-32851471D01*
X50275142Y-32912758D01*
X50118075Y-32944000D01*
X49957925Y-32944000D01*
X49800858Y-32912758D01*
X49652899Y-32851471D01*
X49519745Y-32762501D01*
X49406499Y-32649255D01*
X49317529Y-32516101D01*
X49256242Y-32368142D01*
X49225000Y-32211075D01*
X49225000Y-32050925D01*
X49256242Y-31893858D01*
X49317529Y-31745899D01*
X49406499Y-31612745D01*
X49519745Y-31499499D01*
X49652899Y-31410529D01*
X49800858Y-31349242D01*
X49957925Y-31318000D01*
X50118075Y-31318000D01*
X50275142Y-31349242D01*
G37*
G36*
X42655142Y-31349242D02*
G01*
X42803101Y-31410529D01*
X42936255Y-31499499D01*
X43049501Y-31612745D01*
X43138471Y-31745899D01*
X43199758Y-31893858D01*
X43231000Y-32050925D01*
X43231000Y-32211075D01*
X43199758Y-32368142D01*
X43138471Y-32516101D01*
X43049501Y-32649255D01*
X42936255Y-32762501D01*
X42803101Y-32851471D01*
X42655142Y-32912758D01*
X42498075Y-32944000D01*
X42337925Y-32944000D01*
X42180858Y-32912758D01*
X42032899Y-32851471D01*
X41899745Y-32762501D01*
X41786499Y-32649255D01*
X41697529Y-32516101D01*
X41636242Y-32368142D01*
X41605000Y-32211075D01*
X41605000Y-32050925D01*
X41636242Y-31893858D01*
X41697529Y-31745899D01*
X41786499Y-31612745D01*
X41899745Y-31499499D01*
X42032899Y-31410529D01*
X42180858Y-31349242D01*
X42337925Y-31318000D01*
X42498075Y-31318000D01*
X42655142Y-31349242D01*
G37*
G36*
X35606642Y-25824742D02*
G01*
X35754601Y-25886029D01*
X35887755Y-25974999D01*
X36001001Y-26088245D01*
X36089971Y-26221399D01*
X36151258Y-26369358D01*
X36182500Y-26526425D01*
X36182500Y-26686575D01*
X36151258Y-26843642D01*
X36089971Y-26991601D01*
X36001001Y-27124755D01*
X35887755Y-27238001D01*
X35754601Y-27326971D01*
X35606642Y-27388258D01*
X35449575Y-27419500D01*
X35289425Y-27419500D01*
X35132358Y-27388258D01*
X34984399Y-27326971D01*
X34851245Y-27238001D01*
X34737999Y-27124755D01*
X34649029Y-26991601D01*
X34587742Y-26843642D01*
X34556500Y-26686575D01*
X34556500Y-26526425D01*
X34587742Y-26369358D01*
X34649029Y-26221399D01*
X34737999Y-26088245D01*
X34851245Y-25974999D01*
X34984399Y-25886029D01*
X35132358Y-25824742D01*
X35289425Y-25793500D01*
X35449575Y-25793500D01*
X35606642Y-25824742D01*
G37*
G36*
X71166642Y-25824742D02*
G01*
X71314601Y-25886029D01*
X71447755Y-25974999D01*
X71561001Y-26088245D01*
X71649971Y-26221399D01*
X71711258Y-26369358D01*
X71742500Y-26526425D01*
X71742500Y-26686575D01*
X71711258Y-26843642D01*
X71649971Y-26991601D01*
X71561001Y-27124755D01*
X71447755Y-27238001D01*
X71314601Y-27326971D01*
X71166642Y-27388258D01*
X71009575Y-27419500D01*
X70849425Y-27419500D01*
X70692358Y-27388258D01*
X70544399Y-27326971D01*
X70411245Y-27238001D01*
X70297999Y-27124755D01*
X70209029Y-26991601D01*
X70147742Y-26843642D01*
X70116500Y-26686575D01*
X70116500Y-26526425D01*
X70147742Y-26369358D01*
X70209029Y-26221399D01*
X70297999Y-26088245D01*
X70411245Y-25974999D01*
X70544399Y-25886029D01*
X70692358Y-25824742D01*
X70849425Y-25793500D01*
X71009575Y-25793500D01*
X71166642Y-25824742D01*
G37*
G36*
X38146642Y-25824742D02*
G01*
X38294601Y-25886029D01*
X38427755Y-25974999D01*
X38541001Y-26088245D01*
X38629971Y-26221399D01*
X38691258Y-26369358D01*
X38722500Y-26526425D01*
X38722500Y-26686575D01*
X38691258Y-26843642D01*
X38629971Y-26991601D01*
X38541001Y-27124755D01*
X38427755Y-27238001D01*
X38294601Y-27326971D01*
X38146642Y-27388258D01*
X37989575Y-27419500D01*
X37829425Y-27419500D01*
X37672358Y-27388258D01*
X37524399Y-27326971D01*
X37391245Y-27238001D01*
X37277999Y-27124755D01*
X37189029Y-26991601D01*
X37127742Y-26843642D01*
X37096500Y-26686575D01*
X37096500Y-26526425D01*
X37127742Y-26369358D01*
X37189029Y-26221399D01*
X37277999Y-26088245D01*
X37391245Y-25974999D01*
X37524399Y-25886029D01*
X37672358Y-25824742D01*
X37829425Y-25793500D01*
X37989575Y-25793500D01*
X38146642Y-25824742D01*
G37*
G36*
X68626642Y-25824742D02*
G01*
X68774601Y-25886029D01*
X68907755Y-25974999D01*
X69021001Y-26088245D01*
X69109971Y-26221399D01*
X69171258Y-26369358D01*
X69202500Y-26526425D01*
X69202500Y-26686575D01*
X69171258Y-26843642D01*
X69109971Y-26991601D01*
X69021001Y-27124755D01*
X68907755Y-27238001D01*
X68774601Y-27326971D01*
X68626642Y-27388258D01*
X68469575Y-27419500D01*
X68309425Y-27419500D01*
X68152358Y-27388258D01*
X68004399Y-27326971D01*
X67871245Y-27238001D01*
X67757999Y-27124755D01*
X67669029Y-26991601D01*
X67607742Y-26843642D01*
X67576500Y-26686575D01*
X67576500Y-26526425D01*
X67607742Y-26369358D01*
X67669029Y-26221399D01*
X67757999Y-26088245D01*
X67871245Y-25974999D01*
X68004399Y-25886029D01*
X68152358Y-25824742D01*
X68309425Y-25793500D01*
X68469575Y-25793500D01*
X68626642Y-25824742D01*
G37*
G36*
X43226642Y-25824742D02*
G01*
X43374601Y-25886029D01*
X43507755Y-25974999D01*
X43621001Y-26088245D01*
X43709971Y-26221399D01*
X43771258Y-26369358D01*
X43802500Y-26526425D01*
X43802500Y-26686575D01*
X43771258Y-26843642D01*
X43709971Y-26991601D01*
X43621001Y-27124755D01*
X43507755Y-27238001D01*
X43374601Y-27326971D01*
X43226642Y-27388258D01*
X43069575Y-27419500D01*
X42909425Y-27419500D01*
X42752358Y-27388258D01*
X42604399Y-27326971D01*
X42471245Y-27238001D01*
X42357999Y-27124755D01*
X42269029Y-26991601D01*
X42207742Y-26843642D01*
X42176500Y-26686575D01*
X42176500Y-26526425D01*
X42207742Y-26369358D01*
X42269029Y-26221399D01*
X42357999Y-26088245D01*
X42471245Y-25974999D01*
X42604399Y-25886029D01*
X42752358Y-25824742D01*
X42909425Y-25793500D01*
X43069575Y-25793500D01*
X43226642Y-25824742D01*
G37*
G36*
X66086642Y-25824742D02*
G01*
X66234601Y-25886029D01*
X66367755Y-25974999D01*
X66481001Y-26088245D01*
X66569971Y-26221399D01*
X66631258Y-26369358D01*
X66662500Y-26526425D01*
X66662500Y-26686575D01*
X66631258Y-26843642D01*
X66569971Y-26991601D01*
X66481001Y-27124755D01*
X66367755Y-27238001D01*
X66234601Y-27326971D01*
X66086642Y-27388258D01*
X65929575Y-27419500D01*
X65769425Y-27419500D01*
X65612358Y-27388258D01*
X65464399Y-27326971D01*
X65331245Y-27238001D01*
X65217999Y-27124755D01*
X65129029Y-26991601D01*
X65067742Y-26843642D01*
X65036500Y-26686575D01*
X65036500Y-26526425D01*
X65067742Y-26369358D01*
X65129029Y-26221399D01*
X65217999Y-26088245D01*
X65331245Y-25974999D01*
X65464399Y-25886029D01*
X65612358Y-25824742D01*
X65769425Y-25793500D01*
X65929575Y-25793500D01*
X66086642Y-25824742D01*
G37*
G36*
X45766642Y-25824742D02*
G01*
X45914601Y-25886029D01*
X46047755Y-25974999D01*
X46161001Y-26088245D01*
X46249971Y-26221399D01*
X46311258Y-26369358D01*
X46342500Y-26526425D01*
X46342500Y-26686575D01*
X46311258Y-26843642D01*
X46249971Y-26991601D01*
X46161001Y-27124755D01*
X46047755Y-27238001D01*
X45914601Y-27326971D01*
X45766642Y-27388258D01*
X45609575Y-27419500D01*
X45449425Y-27419500D01*
X45292358Y-27388258D01*
X45144399Y-27326971D01*
X45011245Y-27238001D01*
X44897999Y-27124755D01*
X44809029Y-26991601D01*
X44747742Y-26843642D01*
X44716500Y-26686575D01*
X44716500Y-26526425D01*
X44747742Y-26369358D01*
X44809029Y-26221399D01*
X44897999Y-26088245D01*
X45011245Y-25974999D01*
X45144399Y-25886029D01*
X45292358Y-25824742D01*
X45449425Y-25793500D01*
X45609575Y-25793500D01*
X45766642Y-25824742D01*
G37*
G36*
X63546642Y-25824742D02*
G01*
X63694601Y-25886029D01*
X63827755Y-25974999D01*
X63941001Y-26088245D01*
X64029971Y-26221399D01*
X64091258Y-26369358D01*
X64122500Y-26526425D01*
X64122500Y-26686575D01*
X64091258Y-26843642D01*
X64029971Y-26991601D01*
X63941001Y-27124755D01*
X63827755Y-27238001D01*
X63694601Y-27326971D01*
X63546642Y-27388258D01*
X63389575Y-27419500D01*
X63229425Y-27419500D01*
X63072358Y-27388258D01*
X62924399Y-27326971D01*
X62791245Y-27238001D01*
X62677999Y-27124755D01*
X62589029Y-26991601D01*
X62527742Y-26843642D01*
X62496500Y-26686575D01*
X62496500Y-26526425D01*
X62527742Y-26369358D01*
X62589029Y-26221399D01*
X62677999Y-26088245D01*
X62791245Y-25974999D01*
X62924399Y-25886029D01*
X63072358Y-25824742D01*
X63229425Y-25793500D01*
X63389575Y-25793500D01*
X63546642Y-25824742D01*
G37*
G36*
X61006642Y-25824742D02*
G01*
X61154601Y-25886029D01*
X61287755Y-25974999D01*
X61401001Y-26088245D01*
X61489971Y-26221399D01*
X61551258Y-26369358D01*
X61582500Y-26526425D01*
X61582500Y-26686575D01*
X61551258Y-26843642D01*
X61489971Y-26991601D01*
X61401001Y-27124755D01*
X61287755Y-27238001D01*
X61154601Y-27326971D01*
X61006642Y-27388258D01*
X60849575Y-27419500D01*
X60689425Y-27419500D01*
X60532358Y-27388258D01*
X60384399Y-27326971D01*
X60251245Y-27238001D01*
X60137999Y-27124755D01*
X60049029Y-26991601D01*
X59987742Y-26843642D01*
X59956500Y-26686575D01*
X59956500Y-26526425D01*
X59987742Y-26369358D01*
X60049029Y-26221399D01*
X60137999Y-26088245D01*
X60251245Y-25974999D01*
X60384399Y-25886029D01*
X60532358Y-25824742D01*
X60689425Y-25793500D01*
X60849575Y-25793500D01*
X61006642Y-25824742D01*
G37*
G36*
X58466642Y-25824742D02*
G01*
X58614601Y-25886029D01*
X58747755Y-25974999D01*
X58861001Y-26088245D01*
X58949971Y-26221399D01*
X59011258Y-26369358D01*
X59042500Y-26526425D01*
X59042500Y-26686575D01*
X59011258Y-26843642D01*
X58949971Y-26991601D01*
X58861001Y-27124755D01*
X58747755Y-27238001D01*
X58614601Y-27326971D01*
X58466642Y-27388258D01*
X58309575Y-27419500D01*
X58149425Y-27419500D01*
X57992358Y-27388258D01*
X57844399Y-27326971D01*
X57711245Y-27238001D01*
X57597999Y-27124755D01*
X57509029Y-26991601D01*
X57447742Y-26843642D01*
X57416500Y-26686575D01*
X57416500Y-26526425D01*
X57447742Y-26369358D01*
X57509029Y-26221399D01*
X57597999Y-26088245D01*
X57711245Y-25974999D01*
X57844399Y-25886029D01*
X57992358Y-25824742D01*
X58149425Y-25793500D01*
X58309575Y-25793500D01*
X58466642Y-25824742D01*
G37*
G36*
X55926642Y-25824742D02*
G01*
X56074601Y-25886029D01*
X56207755Y-25974999D01*
X56321001Y-26088245D01*
X56409971Y-26221399D01*
X56471258Y-26369358D01*
X56502500Y-26526425D01*
X56502500Y-26686575D01*
X56471258Y-26843642D01*
X56409971Y-26991601D01*
X56321001Y-27124755D01*
X56207755Y-27238001D01*
X56074601Y-27326971D01*
X55926642Y-27388258D01*
X55769575Y-27419500D01*
X55609425Y-27419500D01*
X55452358Y-27388258D01*
X55304399Y-27326971D01*
X55171245Y-27238001D01*
X55057999Y-27124755D01*
X54969029Y-26991601D01*
X54907742Y-26843642D01*
X54876500Y-26686575D01*
X54876500Y-26526425D01*
X54907742Y-26369358D01*
X54969029Y-26221399D01*
X55057999Y-26088245D01*
X55171245Y-25974999D01*
X55304399Y-25886029D01*
X55452358Y-25824742D01*
X55609425Y-25793500D01*
X55769575Y-25793500D01*
X55926642Y-25824742D01*
G37*
G36*
X53386642Y-25824742D02*
G01*
X53534601Y-25886029D01*
X53667755Y-25974999D01*
X53781001Y-26088245D01*
X53869971Y-26221399D01*
X53931258Y-26369358D01*
X53962500Y-26526425D01*
X53962500Y-26686575D01*
X53931258Y-26843642D01*
X53869971Y-26991601D01*
X53781001Y-27124755D01*
X53667755Y-27238001D01*
X53534601Y-27326971D01*
X53386642Y-27388258D01*
X53229575Y-27419500D01*
X53069425Y-27419500D01*
X52912358Y-27388258D01*
X52764399Y-27326971D01*
X52631245Y-27238001D01*
X52517999Y-27124755D01*
X52429029Y-26991601D01*
X52367742Y-26843642D01*
X52336500Y-26686575D01*
X52336500Y-26526425D01*
X52367742Y-26369358D01*
X52429029Y-26221399D01*
X52517999Y-26088245D01*
X52631245Y-25974999D01*
X52764399Y-25886029D01*
X52912358Y-25824742D01*
X53069425Y-25793500D01*
X53229575Y-25793500D01*
X53386642Y-25824742D01*
G37*
G36*
X50846642Y-25824742D02*
G01*
X50994601Y-25886029D01*
X51127755Y-25974999D01*
X51241001Y-26088245D01*
X51329971Y-26221399D01*
X51391258Y-26369358D01*
X51422500Y-26526425D01*
X51422500Y-26686575D01*
X51391258Y-26843642D01*
X51329971Y-26991601D01*
X51241001Y-27124755D01*
X51127755Y-27238001D01*
X50994601Y-27326971D01*
X50846642Y-27388258D01*
X50689575Y-27419500D01*
X50529425Y-27419500D01*
X50372358Y-27388258D01*
X50224399Y-27326971D01*
X50091245Y-27238001D01*
X49977999Y-27124755D01*
X49889029Y-26991601D01*
X49827742Y-26843642D01*
X49796500Y-26686575D01*
X49796500Y-26526425D01*
X49827742Y-26369358D01*
X49889029Y-26221399D01*
X49977999Y-26088245D01*
X50091245Y-25974999D01*
X50224399Y-25886029D01*
X50372358Y-25824742D01*
X50529425Y-25793500D01*
X50689575Y-25793500D01*
X50846642Y-25824742D01*
G37*
G36*
X30526642Y-25824742D02*
G01*
X30674601Y-25886029D01*
X30807755Y-25974999D01*
X30921001Y-26088245D01*
X31009971Y-26221399D01*
X31071258Y-26369358D01*
X31102500Y-26526425D01*
X31102500Y-26686575D01*
X31071258Y-26843642D01*
X31009971Y-26991601D01*
X30921001Y-27124755D01*
X30807755Y-27238001D01*
X30674601Y-27326971D01*
X30526642Y-27388258D01*
X30369575Y-27419500D01*
X30209425Y-27419500D01*
X30052358Y-27388258D01*
X29904399Y-27326971D01*
X29771245Y-27238001D01*
X29657999Y-27124755D01*
X29569029Y-26991601D01*
X29507742Y-26843642D01*
X29476500Y-26686575D01*
X29476500Y-26526425D01*
X29507742Y-26369358D01*
X29569029Y-26221399D01*
X29657999Y-26088245D01*
X29771245Y-25974999D01*
X29904399Y-25886029D01*
X30052358Y-25824742D01*
X30209425Y-25793500D01*
X30369575Y-25793500D01*
X30526642Y-25824742D01*
G37*
G36*
X48306642Y-25824742D02*
G01*
X48454601Y-25886029D01*
X48587755Y-25974999D01*
X48701001Y-26088245D01*
X48789971Y-26221399D01*
X48851258Y-26369358D01*
X48882500Y-26526425D01*
X48882500Y-26686575D01*
X48851258Y-26843642D01*
X48789971Y-26991601D01*
X48701001Y-27124755D01*
X48587755Y-27238001D01*
X48454601Y-27326971D01*
X48306642Y-27388258D01*
X48149575Y-27419500D01*
X47989425Y-27419500D01*
X47832358Y-27388258D01*
X47684399Y-27326971D01*
X47551245Y-27238001D01*
X47437999Y-27124755D01*
X47349029Y-26991601D01*
X47287742Y-26843642D01*
X47256500Y-26686575D01*
X47256500Y-26526425D01*
X47287742Y-26369358D01*
X47349029Y-26221399D01*
X47437999Y-26088245D01*
X47551245Y-25974999D01*
X47684399Y-25886029D01*
X47832358Y-25824742D01*
X47989425Y-25793500D01*
X48149575Y-25793500D01*
X48306642Y-25824742D01*
G37*
G36*
X40686642Y-25824742D02*
G01*
X40834601Y-25886029D01*
X40967755Y-25974999D01*
X41081001Y-26088245D01*
X41169971Y-26221399D01*
X41231258Y-26369358D01*
X41262500Y-26526425D01*
X41262500Y-26686575D01*
X41231258Y-26843642D01*
X41169971Y-26991601D01*
X41081001Y-27124755D01*
X40967755Y-27238001D01*
X40834601Y-27326971D01*
X40686642Y-27388258D01*
X40529575Y-27419500D01*
X40369425Y-27419500D01*
X40212358Y-27388258D01*
X40064399Y-27326971D01*
X39931245Y-27238001D01*
X39817999Y-27124755D01*
X39729029Y-26991601D01*
X39667742Y-26843642D01*
X39636500Y-26686575D01*
X39636500Y-26526425D01*
X39667742Y-26369358D01*
X39729029Y-26221399D01*
X39817999Y-26088245D01*
X39931245Y-25974999D01*
X40064399Y-25886029D01*
X40212358Y-25824742D01*
X40369425Y-25793500D01*
X40529575Y-25793500D01*
X40686642Y-25824742D01*
G37*
G36*
X33066642Y-25824742D02*
G01*
X33214601Y-25886029D01*
X33347755Y-25974999D01*
X33461001Y-26088245D01*
X33549971Y-26221399D01*
X33611258Y-26369358D01*
X33642500Y-26526425D01*
X33642500Y-26686575D01*
X33611258Y-26843642D01*
X33549971Y-26991601D01*
X33461001Y-27124755D01*
X33347755Y-27238001D01*
X33214601Y-27326971D01*
X33066642Y-27388258D01*
X32909575Y-27419500D01*
X32749425Y-27419500D01*
X32592358Y-27388258D01*
X32444399Y-27326971D01*
X32311245Y-27238001D01*
X32197999Y-27124755D01*
X32109029Y-26991601D01*
X32047742Y-26843642D01*
X32016500Y-26686575D01*
X32016500Y-26526425D01*
X32047742Y-26369358D01*
X32109029Y-26221399D01*
X32197999Y-26088245D01*
X32311245Y-25974999D01*
X32444399Y-25886029D01*
X32592358Y-25824742D01*
X32749425Y-25793500D01*
X32909575Y-25793500D01*
X33066642Y-25824742D01*
G37*
G36*
X33066642Y-23284742D02*
G01*
X33214601Y-23346029D01*
X33347755Y-23434999D01*
X33461001Y-23548245D01*
X33549971Y-23681399D01*
X33611258Y-23829358D01*
X33642500Y-23986425D01*
X33642500Y-24146575D01*
X33611258Y-24303642D01*
X33549971Y-24451601D01*
X33461001Y-24584755D01*
X33347755Y-24698001D01*
X33214601Y-24786971D01*
X33066642Y-24848258D01*
X32909575Y-24879500D01*
X32749425Y-24879500D01*
X32592358Y-24848258D01*
X32444399Y-24786971D01*
X32311245Y-24698001D01*
X32197999Y-24584755D01*
X32109029Y-24451601D01*
X32047742Y-24303642D01*
X32016500Y-24146575D01*
X32016500Y-23986425D01*
X32047742Y-23829358D01*
X32109029Y-23681399D01*
X32197999Y-23548245D01*
X32311245Y-23434999D01*
X32444399Y-23346029D01*
X32592358Y-23284742D01*
X32749425Y-23253500D01*
X32909575Y-23253500D01*
X33066642Y-23284742D01*
G37*
G36*
X35606642Y-23284742D02*
G01*
X35754601Y-23346029D01*
X35887755Y-23434999D01*
X36001001Y-23548245D01*
X36089971Y-23681399D01*
X36151258Y-23829358D01*
X36182500Y-23986425D01*
X36182500Y-24146575D01*
X36151258Y-24303642D01*
X36089971Y-24451601D01*
X36001001Y-24584755D01*
X35887755Y-24698001D01*
X35754601Y-24786971D01*
X35606642Y-24848258D01*
X35449575Y-24879500D01*
X35289425Y-24879500D01*
X35132358Y-24848258D01*
X34984399Y-24786971D01*
X34851245Y-24698001D01*
X34737999Y-24584755D01*
X34649029Y-24451601D01*
X34587742Y-24303642D01*
X34556500Y-24146575D01*
X34556500Y-23986425D01*
X34587742Y-23829358D01*
X34649029Y-23681399D01*
X34737999Y-23548245D01*
X34851245Y-23434999D01*
X34984399Y-23346029D01*
X35132358Y-23284742D01*
X35289425Y-23253500D01*
X35449575Y-23253500D01*
X35606642Y-23284742D01*
G37*
G36*
X38146642Y-23284742D02*
G01*
X38294601Y-23346029D01*
X38427755Y-23434999D01*
X38541001Y-23548245D01*
X38629971Y-23681399D01*
X38691258Y-23829358D01*
X38722500Y-23986425D01*
X38722500Y-24146575D01*
X38691258Y-24303642D01*
X38629971Y-24451601D01*
X38541001Y-24584755D01*
X38427755Y-24698001D01*
X38294601Y-24786971D01*
X38146642Y-24848258D01*
X37989575Y-24879500D01*
X37829425Y-24879500D01*
X37672358Y-24848258D01*
X37524399Y-24786971D01*
X37391245Y-24698001D01*
X37277999Y-24584755D01*
X37189029Y-24451601D01*
X37127742Y-24303642D01*
X37096500Y-24146575D01*
X37096500Y-23986425D01*
X37127742Y-23829358D01*
X37189029Y-23681399D01*
X37277999Y-23548245D01*
X37391245Y-23434999D01*
X37524399Y-23346029D01*
X37672358Y-23284742D01*
X37829425Y-23253500D01*
X37989575Y-23253500D01*
X38146642Y-23284742D01*
G37*
G36*
X40686642Y-23284742D02*
G01*
X40834601Y-23346029D01*
X40967755Y-23434999D01*
X41081001Y-23548245D01*
X41169971Y-23681399D01*
X41231258Y-23829358D01*
X41262500Y-23986425D01*
X41262500Y-24146575D01*
X41231258Y-24303642D01*
X41169971Y-24451601D01*
X41081001Y-24584755D01*
X40967755Y-24698001D01*
X40834601Y-24786971D01*
X40686642Y-24848258D01*
X40529575Y-24879500D01*
X40369425Y-24879500D01*
X40212358Y-24848258D01*
X40064399Y-24786971D01*
X39931245Y-24698001D01*
X39817999Y-24584755D01*
X39729029Y-24451601D01*
X39667742Y-24303642D01*
X39636500Y-24146575D01*
X39636500Y-23986425D01*
X39667742Y-23829358D01*
X39729029Y-23681399D01*
X39817999Y-23548245D01*
X39931245Y-23434999D01*
X40064399Y-23346029D01*
X40212358Y-23284742D01*
X40369425Y-23253500D01*
X40529575Y-23253500D01*
X40686642Y-23284742D01*
G37*
G36*
X43226642Y-23284742D02*
G01*
X43374601Y-23346029D01*
X43507755Y-23434999D01*
X43621001Y-23548245D01*
X43709971Y-23681399D01*
X43771258Y-23829358D01*
X43802500Y-23986425D01*
X43802500Y-24146575D01*
X43771258Y-24303642D01*
X43709971Y-24451601D01*
X43621001Y-24584755D01*
X43507755Y-24698001D01*
X43374601Y-24786971D01*
X43226642Y-24848258D01*
X43069575Y-24879500D01*
X42909425Y-24879500D01*
X42752358Y-24848258D01*
X42604399Y-24786971D01*
X42471245Y-24698001D01*
X42357999Y-24584755D01*
X42269029Y-24451601D01*
X42207742Y-24303642D01*
X42176500Y-24146575D01*
X42176500Y-23986425D01*
X42207742Y-23829358D01*
X42269029Y-23681399D01*
X42357999Y-23548245D01*
X42471245Y-23434999D01*
X42604399Y-23346029D01*
X42752358Y-23284742D01*
X42909425Y-23253500D01*
X43069575Y-23253500D01*
X43226642Y-23284742D01*
G37*
G36*
X45766642Y-23284742D02*
G01*
X45914601Y-23346029D01*
X46047755Y-23434999D01*
X46161001Y-23548245D01*
X46249971Y-23681399D01*
X46311258Y-23829358D01*
X46342500Y-23986425D01*
X46342500Y-24146575D01*
X46311258Y-24303642D01*
X46249971Y-24451601D01*
X46161001Y-24584755D01*
X46047755Y-24698001D01*
X45914601Y-24786971D01*
X45766642Y-24848258D01*
X45609575Y-24879500D01*
X45449425Y-24879500D01*
X45292358Y-24848258D01*
X45144399Y-24786971D01*
X45011245Y-24698001D01*
X44897999Y-24584755D01*
X44809029Y-24451601D01*
X44747742Y-24303642D01*
X44716500Y-24146575D01*
X44716500Y-23986425D01*
X44747742Y-23829358D01*
X44809029Y-23681399D01*
X44897999Y-23548245D01*
X45011245Y-23434999D01*
X45144399Y-23346029D01*
X45292358Y-23284742D01*
X45449425Y-23253500D01*
X45609575Y-23253500D01*
X45766642Y-23284742D01*
G37*
G36*
X48306642Y-23284742D02*
G01*
X48454601Y-23346029D01*
X48587755Y-23434999D01*
X48701001Y-23548245D01*
X48789971Y-23681399D01*
X48851258Y-23829358D01*
X48882500Y-23986425D01*
X48882500Y-24146575D01*
X48851258Y-24303642D01*
X48789971Y-24451601D01*
X48701001Y-24584755D01*
X48587755Y-24698001D01*
X48454601Y-24786971D01*
X48306642Y-24848258D01*
X48149575Y-24879500D01*
X47989425Y-24879500D01*
X47832358Y-24848258D01*
X47684399Y-24786971D01*
X47551245Y-24698001D01*
X47437999Y-24584755D01*
X47349029Y-24451601D01*
X47287742Y-24303642D01*
X47256500Y-24146575D01*
X47256500Y-23986425D01*
X47287742Y-23829358D01*
X47349029Y-23681399D01*
X47437999Y-23548245D01*
X47551245Y-23434999D01*
X47684399Y-23346029D01*
X47832358Y-23284742D01*
X47989425Y-23253500D01*
X48149575Y-23253500D01*
X48306642Y-23284742D01*
G37*
G36*
X50846642Y-23284742D02*
G01*
X50994601Y-23346029D01*
X51127755Y-23434999D01*
X51241001Y-23548245D01*
X51329971Y-23681399D01*
X51391258Y-23829358D01*
X51422500Y-23986425D01*
X51422500Y-24146575D01*
X51391258Y-24303642D01*
X51329971Y-24451601D01*
X51241001Y-24584755D01*
X51127755Y-24698001D01*
X50994601Y-24786971D01*
X50846642Y-24848258D01*
X50689575Y-24879500D01*
X50529425Y-24879500D01*
X50372358Y-24848258D01*
X50224399Y-24786971D01*
X50091245Y-24698001D01*
X49977999Y-24584755D01*
X49889029Y-24451601D01*
X49827742Y-24303642D01*
X49796500Y-24146575D01*
X49796500Y-23986425D01*
X49827742Y-23829358D01*
X49889029Y-23681399D01*
X49977999Y-23548245D01*
X50091245Y-23434999D01*
X50224399Y-23346029D01*
X50372358Y-23284742D01*
X50529425Y-23253500D01*
X50689575Y-23253500D01*
X50846642Y-23284742D01*
G37*
G36*
X53386642Y-23284742D02*
G01*
X53534601Y-23346029D01*
X53667755Y-23434999D01*
X53781001Y-23548245D01*
X53869971Y-23681399D01*
X53931258Y-23829358D01*
X53962500Y-23986425D01*
X53962500Y-24146575D01*
X53931258Y-24303642D01*
X53869971Y-24451601D01*
X53781001Y-24584755D01*
X53667755Y-24698001D01*
X53534601Y-24786971D01*
X53386642Y-24848258D01*
X53229575Y-24879500D01*
X53069425Y-24879500D01*
X52912358Y-24848258D01*
X52764399Y-24786971D01*
X52631245Y-24698001D01*
X52517999Y-24584755D01*
X52429029Y-24451601D01*
X52367742Y-24303642D01*
X52336500Y-24146575D01*
X52336500Y-23986425D01*
X52367742Y-23829358D01*
X52429029Y-23681399D01*
X52517999Y-23548245D01*
X52631245Y-23434999D01*
X52764399Y-23346029D01*
X52912358Y-23284742D01*
X53069425Y-23253500D01*
X53229575Y-23253500D01*
X53386642Y-23284742D01*
G37*
G36*
X55926642Y-23284742D02*
G01*
X56074601Y-23346029D01*
X56207755Y-23434999D01*
X56321001Y-23548245D01*
X56409971Y-23681399D01*
X56471258Y-23829358D01*
X56502500Y-23986425D01*
X56502500Y-24146575D01*
X56471258Y-24303642D01*
X56409971Y-24451601D01*
X56321001Y-24584755D01*
X56207755Y-24698001D01*
X56074601Y-24786971D01*
X55926642Y-24848258D01*
X55769575Y-24879500D01*
X55609425Y-24879500D01*
X55452358Y-24848258D01*
X55304399Y-24786971D01*
X55171245Y-24698001D01*
X55057999Y-24584755D01*
X54969029Y-24451601D01*
X54907742Y-24303642D01*
X54876500Y-24146575D01*
X54876500Y-23986425D01*
X54907742Y-23829358D01*
X54969029Y-23681399D01*
X55057999Y-23548245D01*
X55171245Y-23434999D01*
X55304399Y-23346029D01*
X55452358Y-23284742D01*
X55609425Y-23253500D01*
X55769575Y-23253500D01*
X55926642Y-23284742D01*
G37*
G36*
X58466642Y-23284742D02*
G01*
X58614601Y-23346029D01*
X58747755Y-23434999D01*
X58861001Y-23548245D01*
X58949971Y-23681399D01*
X59011258Y-23829358D01*
X59042500Y-23986425D01*
X59042500Y-24146575D01*
X59011258Y-24303642D01*
X58949971Y-24451601D01*
X58861001Y-24584755D01*
X58747755Y-24698001D01*
X58614601Y-24786971D01*
X58466642Y-24848258D01*
X58309575Y-24879500D01*
X58149425Y-24879500D01*
X57992358Y-24848258D01*
X57844399Y-24786971D01*
X57711245Y-24698001D01*
X57597999Y-24584755D01*
X57509029Y-24451601D01*
X57447742Y-24303642D01*
X57416500Y-24146575D01*
X57416500Y-23986425D01*
X57447742Y-23829358D01*
X57509029Y-23681399D01*
X57597999Y-23548245D01*
X57711245Y-23434999D01*
X57844399Y-23346029D01*
X57992358Y-23284742D01*
X58149425Y-23253500D01*
X58309575Y-23253500D01*
X58466642Y-23284742D01*
G37*
G36*
X61006642Y-23284742D02*
G01*
X61154601Y-23346029D01*
X61287755Y-23434999D01*
X61401001Y-23548245D01*
X61489971Y-23681399D01*
X61551258Y-23829358D01*
X61582500Y-23986425D01*
X61582500Y-24146575D01*
X61551258Y-24303642D01*
X61489971Y-24451601D01*
X61401001Y-24584755D01*
X61287755Y-24698001D01*
X61154601Y-24786971D01*
X61006642Y-24848258D01*
X60849575Y-24879500D01*
X60689425Y-24879500D01*
X60532358Y-24848258D01*
X60384399Y-24786971D01*
X60251245Y-24698001D01*
X60137999Y-24584755D01*
X60049029Y-24451601D01*
X59987742Y-24303642D01*
X59956500Y-24146575D01*
X59956500Y-23986425D01*
X59987742Y-23829358D01*
X60049029Y-23681399D01*
X60137999Y-23548245D01*
X60251245Y-23434999D01*
X60384399Y-23346029D01*
X60532358Y-23284742D01*
X60689425Y-23253500D01*
X60849575Y-23253500D01*
X61006642Y-23284742D01*
G37*
G36*
X63546642Y-23284742D02*
G01*
X63694601Y-23346029D01*
X63827755Y-23434999D01*
X63941001Y-23548245D01*
X64029971Y-23681399D01*
X64091258Y-23829358D01*
X64122500Y-23986425D01*
X64122500Y-24146575D01*
X64091258Y-24303642D01*
X64029971Y-24451601D01*
X63941001Y-24584755D01*
X63827755Y-24698001D01*
X63694601Y-24786971D01*
X63546642Y-24848258D01*
X63389575Y-24879500D01*
X63229425Y-24879500D01*
X63072358Y-24848258D01*
X62924399Y-24786971D01*
X62791245Y-24698001D01*
X62677999Y-24584755D01*
X62589029Y-24451601D01*
X62527742Y-24303642D01*
X62496500Y-24146575D01*
X62496500Y-23986425D01*
X62527742Y-23829358D01*
X62589029Y-23681399D01*
X62677999Y-23548245D01*
X62791245Y-23434999D01*
X62924399Y-23346029D01*
X63072358Y-23284742D01*
X63229425Y-23253500D01*
X63389575Y-23253500D01*
X63546642Y-23284742D01*
G37*
G36*
X66086642Y-23284742D02*
G01*
X66234601Y-23346029D01*
X66367755Y-23434999D01*
X66481001Y-23548245D01*
X66569971Y-23681399D01*
X66631258Y-23829358D01*
X66662500Y-23986425D01*
X66662500Y-24146575D01*
X66631258Y-24303642D01*
X66569971Y-24451601D01*
X66481001Y-24584755D01*
X66367755Y-24698001D01*
X66234601Y-24786971D01*
X66086642Y-24848258D01*
X65929575Y-24879500D01*
X65769425Y-24879500D01*
X65612358Y-24848258D01*
X65464399Y-24786971D01*
X65331245Y-24698001D01*
X65217999Y-24584755D01*
X65129029Y-24451601D01*
X65067742Y-24303642D01*
X65036500Y-24146575D01*
X65036500Y-23986425D01*
X65067742Y-23829358D01*
X65129029Y-23681399D01*
X65217999Y-23548245D01*
X65331245Y-23434999D01*
X65464399Y-23346029D01*
X65612358Y-23284742D01*
X65769425Y-23253500D01*
X65929575Y-23253500D01*
X66086642Y-23284742D01*
G37*
G36*
X68626642Y-23284742D02*
G01*
X68774601Y-23346029D01*
X68907755Y-23434999D01*
X69021001Y-23548245D01*
X69109971Y-23681399D01*
X69171258Y-23829358D01*
X69202500Y-23986425D01*
X69202500Y-24146575D01*
X69171258Y-24303642D01*
X69109971Y-24451601D01*
X69021001Y-24584755D01*
X68907755Y-24698001D01*
X68774601Y-24786971D01*
X68626642Y-24848258D01*
X68469575Y-24879500D01*
X68309425Y-24879500D01*
X68152358Y-24848258D01*
X68004399Y-24786971D01*
X67871245Y-24698001D01*
X67757999Y-24584755D01*
X67669029Y-24451601D01*
X67607742Y-24303642D01*
X67576500Y-24146575D01*
X67576500Y-23986425D01*
X67607742Y-23829358D01*
X67669029Y-23681399D01*
X67757999Y-23548245D01*
X67871245Y-23434999D01*
X68004399Y-23346029D01*
X68152358Y-23284742D01*
X68309425Y-23253500D01*
X68469575Y-23253500D01*
X68626642Y-23284742D01*
G37*
G36*
X71742500Y-24879500D02*
G01*
X70116500Y-24879500D01*
X70116500Y-23253500D01*
X71742500Y-23253500D01*
X71742500Y-24879500D01*
G37*
G36*
X30526642Y-23284742D02*
G01*
X30674601Y-23346029D01*
X30807755Y-23434999D01*
X30921001Y-23548245D01*
X31009971Y-23681399D01*
X31071258Y-23829358D01*
X31102500Y-23986425D01*
X31102500Y-24146575D01*
X31071258Y-24303642D01*
X31009971Y-24451601D01*
X30921001Y-24584755D01*
X30807755Y-24698001D01*
X30674601Y-24786971D01*
X30526642Y-24848258D01*
X30369575Y-24879500D01*
X30209425Y-24879500D01*
X30052358Y-24848258D01*
X29904399Y-24786971D01*
X29771245Y-24698001D01*
X29657999Y-24584755D01*
X29569029Y-24451601D01*
X29507742Y-24303642D01*
X29476500Y-24146575D01*
X29476500Y-23986425D01*
X29507742Y-23829358D01*
X29569029Y-23681399D01*
X29657999Y-23548245D01*
X29771245Y-23434999D01*
X29904399Y-23346029D01*
X30052358Y-23284742D01*
X30209425Y-23253500D01*
X30369575Y-23253500D01*
X30526642Y-23284742D01*
G37*
M02*
