G04 #@! TF.GenerationSoftware,KiCad,Pcbnew,(5.1.5-0-10_14)*
G04 #@! TF.CreationDate,2020-03-21T13:08:25+11:00*
G04 #@! TF.ProjectId,Internal Gotek Adpater,496e7465-726e-4616-9c20-476f74656b20,rev?*
G04 #@! TF.SameCoordinates,Original*
G04 #@! TF.FileFunction,Copper,L2,Bot*
G04 #@! TF.FilePolarity,Positive*
%FSLAX46Y46*%
G04 Gerber Fmt 4.6, Leading zero omitted, Abs format (unit mm)*
G04 Created by KiCad (PCBNEW (5.1.5-0-10_14)) date 2020-03-21 13:08:25*
%MOMM*%
%LPD*%
G04 APERTURE LIST*
%ADD10C,1.524000*%
%ADD11R,1.524000X1.524000*%
%ADD12O,1.700000X1.700000*%
%ADD13R,1.700000X1.700000*%
%ADD14C,0.800000*%
%ADD15C,0.250000*%
%ADD16C,0.254000*%
G04 APERTURE END LIST*
D10*
X30289500Y-26606500D03*
X30289500Y-24066500D03*
X32829500Y-26606500D03*
X32829500Y-24066500D03*
X35369500Y-26606500D03*
X35369500Y-24066500D03*
X37909500Y-26606500D03*
X37909500Y-24066500D03*
X42989500Y-26606500D03*
X42989500Y-24066500D03*
X45529500Y-26606500D03*
X45529500Y-24066500D03*
D11*
X70929500Y-24066500D03*
D10*
X68389500Y-24066500D03*
X65849500Y-24066500D03*
X63309500Y-24066500D03*
X60769500Y-24066500D03*
X58229500Y-24066500D03*
X55689500Y-24066500D03*
X53149500Y-24066500D03*
X50609500Y-24066500D03*
X48069500Y-24066500D03*
X48069500Y-26606500D03*
X50609500Y-26606500D03*
X53149500Y-26606500D03*
X55689500Y-26606500D03*
X58229500Y-26606500D03*
X60769500Y-26606500D03*
X63309500Y-26606500D03*
X65849500Y-26606500D03*
X68389500Y-26606500D03*
X70929500Y-26606500D03*
X40449500Y-24066500D03*
X40449500Y-26606500D03*
X42418000Y-32131000D03*
X42418000Y-34671000D03*
X72898000Y-32131000D03*
X70358000Y-32131000D03*
X67818000Y-32131000D03*
X65278000Y-32131000D03*
X62738000Y-32131000D03*
X60198000Y-32131000D03*
X57658000Y-32131000D03*
X55118000Y-32131000D03*
X52578000Y-32131000D03*
X50038000Y-32131000D03*
X50038000Y-34671000D03*
X52578000Y-34671000D03*
X55118000Y-34671000D03*
X57658000Y-34671000D03*
X60198000Y-34671000D03*
X62738000Y-34671000D03*
X65278000Y-34671000D03*
X67818000Y-34671000D03*
X70358000Y-34671000D03*
X72898000Y-34671000D03*
X47498000Y-34671000D03*
X47498000Y-32131000D03*
X44958000Y-34671000D03*
X44958000Y-32131000D03*
X39878000Y-34671000D03*
X39878000Y-32131000D03*
X37338000Y-34671000D03*
X37338000Y-32131000D03*
X34798000Y-34671000D03*
X34798000Y-32131000D03*
D11*
X32258000Y-34671000D03*
D10*
X32258000Y-32131000D03*
D12*
X17462500Y-33401000D03*
X20002500Y-33401000D03*
X22542500Y-33401000D03*
D13*
X25082500Y-33401000D03*
D14*
X35941000Y-36195000D03*
X67310000Y-36195000D03*
X36576000Y-37338000D03*
X67437000Y-37338000D03*
D15*
X33591499Y-35073261D02*
X34713238Y-36195000D01*
X34713238Y-36195000D02*
X35941000Y-36195000D01*
X33591499Y-27368499D02*
X33591499Y-35073261D01*
X32829500Y-26606500D02*
X33591499Y-27368499D01*
X69596001Y-32892999D02*
X70358000Y-32131000D01*
X69270999Y-33218001D02*
X69596001Y-32892999D01*
X69270999Y-34826763D02*
X69270999Y-33218001D01*
X67902762Y-36195000D02*
X69270999Y-34826763D01*
X67310000Y-36195000D02*
X67902762Y-36195000D01*
X66730999Y-33218001D02*
X67056001Y-32892999D01*
X66730999Y-34826763D02*
X66730999Y-33218001D01*
X63885732Y-37672030D02*
X66730999Y-34826763D01*
X38730268Y-37672030D02*
X63885732Y-37672030D01*
X36131499Y-35073261D02*
X38730268Y-37672030D01*
X36131499Y-27368499D02*
X36131499Y-35073261D01*
X67056001Y-32892999D02*
X67818000Y-32131000D01*
X35369500Y-26606500D02*
X36131499Y-27368499D01*
X64516001Y-32892999D02*
X65278000Y-32131000D01*
X64190999Y-34826763D02*
X64190999Y-33218001D01*
X61795742Y-37222020D02*
X64190999Y-34826763D01*
X40820258Y-37222020D02*
X61795742Y-37222020D01*
X64190999Y-33218001D02*
X64516001Y-32892999D01*
X38671499Y-35073261D02*
X40820258Y-37222020D01*
X38671499Y-27368499D02*
X38671499Y-35073261D01*
X37909500Y-26606500D02*
X38671499Y-27368499D01*
X59436001Y-32892999D02*
X60198000Y-32131000D01*
X59110999Y-33218001D02*
X59436001Y-32892999D01*
X59110999Y-34826763D02*
X59110999Y-33218001D01*
X45000238Y-36322000D02*
X57615762Y-36322000D01*
X43751499Y-35073261D02*
X45000238Y-36322000D01*
X43751499Y-27368499D02*
X43751499Y-35073261D01*
X57615762Y-36322000D02*
X59110999Y-34826763D01*
X42989500Y-26606500D02*
X43751499Y-27368499D01*
X56570999Y-34826763D02*
X56570999Y-33218001D01*
X49516239Y-35758001D02*
X55639761Y-35758001D01*
X48935828Y-35177590D02*
X49516239Y-35758001D01*
X47032238Y-33274000D02*
X48935828Y-33274000D01*
X55639761Y-35758001D02*
X56570999Y-34826763D01*
X46410999Y-32652761D02*
X47032238Y-33274000D01*
X46410999Y-31975237D02*
X46410999Y-32652761D01*
X56570999Y-33218001D02*
X56896001Y-32892999D01*
X48935828Y-33274000D02*
X48935828Y-35177590D01*
X44767501Y-30331739D02*
X46410999Y-31975237D01*
X44767501Y-27368499D02*
X44767501Y-30331739D01*
X56896001Y-32892999D02*
X57658000Y-32131000D01*
X45529500Y-26606500D02*
X44767501Y-27368499D01*
X54030999Y-33218001D02*
X54356001Y-32892999D01*
X49516239Y-33218001D02*
X54030999Y-33218001D01*
X48831499Y-32533261D02*
X49516239Y-33218001D01*
X48831499Y-27368499D02*
X48831499Y-32533261D01*
X54356001Y-32892999D02*
X55118000Y-32131000D01*
X48069500Y-26606500D02*
X48831499Y-27368499D01*
X53149500Y-29019500D02*
X50038000Y-32131000D01*
X53149500Y-26606500D02*
X53149500Y-29019500D01*
X46736001Y-23425239D02*
X46736001Y-31369001D01*
X47181741Y-22979499D02*
X46736001Y-23425239D01*
X53671261Y-22979499D02*
X47181741Y-22979499D01*
X54602499Y-23910737D02*
X53671261Y-22979499D01*
X54602499Y-25519499D02*
X54602499Y-23910737D01*
X46736001Y-31369001D02*
X47498000Y-32131000D01*
X55689500Y-26606500D02*
X54602499Y-25519499D01*
X42418000Y-31053370D02*
X42418000Y-32131000D01*
X41902499Y-30537869D02*
X42418000Y-31053370D01*
X41902499Y-23544739D02*
X41902499Y-30537869D01*
X57851241Y-22079479D02*
X43367759Y-22079479D01*
X59682499Y-23910737D02*
X57851241Y-22079479D01*
X59682499Y-25519499D02*
X59682499Y-23910737D01*
X43367759Y-22079479D02*
X41902499Y-23544739D01*
X60769500Y-26606500D02*
X59682499Y-25519499D01*
X39878000Y-31053370D02*
X39878000Y-32131000D01*
X39362499Y-30537869D02*
X39878000Y-31053370D01*
X39362499Y-23544739D02*
X39362499Y-30537869D01*
X41277769Y-21629469D02*
X39362499Y-23544739D01*
X59941231Y-21629469D02*
X41277769Y-21629469D01*
X61856501Y-23544739D02*
X59941231Y-21629469D01*
X61856501Y-25153501D02*
X61856501Y-23544739D01*
X63309500Y-26606500D02*
X61856501Y-25153501D01*
X61976001Y-32892999D02*
X62738000Y-32131000D01*
X61650999Y-33218001D02*
X61976001Y-32892999D01*
X59705752Y-36772010D02*
X61650999Y-34826763D01*
X42910248Y-36772010D02*
X59705752Y-36772010D01*
X41211499Y-35073261D02*
X42910248Y-36772010D01*
X61650999Y-34826763D02*
X61650999Y-33218001D01*
X41211499Y-27368499D02*
X41211499Y-35073261D01*
X40449500Y-26606500D02*
X41211499Y-27368499D01*
X32815998Y-37338000D02*
X36576000Y-37338000D01*
X30289500Y-34811502D02*
X32815998Y-37338000D01*
X30289500Y-26606500D02*
X30289500Y-34811502D01*
X71810999Y-33218001D02*
X72136001Y-32892999D01*
X72136001Y-32892999D02*
X72898000Y-32131000D01*
X71810999Y-34826763D02*
X71810999Y-33218001D01*
X69299762Y-37338000D02*
X71810999Y-34826763D01*
X67437000Y-37338000D02*
X69299762Y-37338000D01*
X44201509Y-31374509D02*
X44958000Y-32131000D01*
X44201509Y-23785729D02*
X44201509Y-31374509D01*
X55761251Y-22529489D02*
X45457749Y-22529489D01*
X56776501Y-23544739D02*
X55761251Y-22529489D01*
X56776501Y-25153501D02*
X56776501Y-23544739D01*
X45457749Y-22529489D02*
X44201509Y-23785729D01*
X58229500Y-26606500D02*
X56776501Y-25153501D01*
X37338000Y-31053370D02*
X37338000Y-32131000D01*
X36822499Y-23178741D02*
X36822499Y-30537869D01*
X36822499Y-30537869D02*
X37338000Y-31053370D01*
X38821781Y-21179459D02*
X36822499Y-23178741D01*
X62031221Y-21179459D02*
X38821781Y-21179459D01*
X64396501Y-23544739D02*
X62031221Y-21179459D01*
X64396501Y-25153501D02*
X64396501Y-23544739D01*
X65849500Y-26606500D02*
X64396501Y-25153501D01*
D16*
G36*
X36311502Y-22614937D02*
G01*
X36282498Y-22638740D01*
X36249889Y-22678475D01*
X36187525Y-22754465D01*
X36165465Y-22795736D01*
X36117236Y-22885965D01*
X36031227Y-22828495D01*
X35776990Y-22723186D01*
X35507092Y-22669500D01*
X35231908Y-22669500D01*
X34962010Y-22723186D01*
X34707773Y-22828495D01*
X34478965Y-22981380D01*
X34284380Y-23175965D01*
X34131495Y-23404773D01*
X34099500Y-23482015D01*
X34067505Y-23404773D01*
X33914620Y-23175965D01*
X33720035Y-22981380D01*
X33491227Y-22828495D01*
X33236990Y-22723186D01*
X32967092Y-22669500D01*
X32691908Y-22669500D01*
X32422010Y-22723186D01*
X32167773Y-22828495D01*
X31938965Y-22981380D01*
X31744380Y-23175965D01*
X31591495Y-23404773D01*
X31559500Y-23482015D01*
X31527505Y-23404773D01*
X31374620Y-23175965D01*
X31180035Y-22981380D01*
X30951227Y-22828495D01*
X30696990Y-22723186D01*
X30427092Y-22669500D01*
X30151908Y-22669500D01*
X29882010Y-22723186D01*
X29627773Y-22828495D01*
X29398965Y-22981380D01*
X29204380Y-23175965D01*
X29051495Y-23404773D01*
X28946186Y-23659010D01*
X28892500Y-23928908D01*
X28892500Y-24204092D01*
X28946186Y-24473990D01*
X29051495Y-24728227D01*
X29204380Y-24957035D01*
X29398965Y-25151620D01*
X29627773Y-25304505D01*
X29705015Y-25336500D01*
X29627773Y-25368495D01*
X29398965Y-25521380D01*
X29204380Y-25715965D01*
X29051495Y-25944773D01*
X28946186Y-26199010D01*
X28892500Y-26468908D01*
X28892500Y-26744092D01*
X28946186Y-27013990D01*
X29051495Y-27268227D01*
X29204380Y-27497035D01*
X29398965Y-27691620D01*
X29529500Y-27778841D01*
X29529501Y-34774170D01*
X29525824Y-34811502D01*
X29529501Y-34848835D01*
X29533162Y-34886000D01*
X29540498Y-34960487D01*
X29583954Y-35103748D01*
X29654526Y-35235778D01*
X29689009Y-35277795D01*
X29749500Y-35351503D01*
X29778498Y-35375301D01*
X31843196Y-37440000D01*
X15900000Y-37440000D01*
X15900000Y-33254740D01*
X15977500Y-33254740D01*
X15977500Y-33547260D01*
X16034568Y-33834158D01*
X16146510Y-34104411D01*
X16309025Y-34347632D01*
X16515868Y-34554475D01*
X16759089Y-34716990D01*
X17029342Y-34828932D01*
X17316240Y-34886000D01*
X17608760Y-34886000D01*
X17895658Y-34828932D01*
X18165911Y-34716990D01*
X18409132Y-34554475D01*
X18615975Y-34347632D01*
X18737695Y-34165466D01*
X18807322Y-34282355D01*
X19002231Y-34498588D01*
X19235580Y-34672641D01*
X19498401Y-34797825D01*
X19645610Y-34842476D01*
X19875500Y-34721155D01*
X19875500Y-33528000D01*
X20129500Y-33528000D01*
X20129500Y-34721155D01*
X20359390Y-34842476D01*
X20506599Y-34797825D01*
X20769420Y-34672641D01*
X21002769Y-34498588D01*
X21197678Y-34282355D01*
X21272500Y-34156745D01*
X21347322Y-34282355D01*
X21542231Y-34498588D01*
X21775580Y-34672641D01*
X22038401Y-34797825D01*
X22185610Y-34842476D01*
X22415500Y-34721155D01*
X22415500Y-33528000D01*
X20129500Y-33528000D01*
X19875500Y-33528000D01*
X19855500Y-33528000D01*
X19855500Y-33274000D01*
X19875500Y-33274000D01*
X19875500Y-32080845D01*
X20129500Y-32080845D01*
X20129500Y-33274000D01*
X22415500Y-33274000D01*
X22415500Y-32080845D01*
X22669500Y-32080845D01*
X22669500Y-33274000D01*
X22689500Y-33274000D01*
X22689500Y-33528000D01*
X22669500Y-33528000D01*
X22669500Y-34721155D01*
X22899390Y-34842476D01*
X23046599Y-34797825D01*
X23309420Y-34672641D01*
X23542769Y-34498588D01*
X23618534Y-34414534D01*
X23642998Y-34495180D01*
X23701963Y-34605494D01*
X23781315Y-34702185D01*
X23878006Y-34781537D01*
X23988320Y-34840502D01*
X24108018Y-34876812D01*
X24232500Y-34889072D01*
X25932500Y-34889072D01*
X26056982Y-34876812D01*
X26176680Y-34840502D01*
X26286994Y-34781537D01*
X26383685Y-34702185D01*
X26463037Y-34605494D01*
X26522002Y-34495180D01*
X26558312Y-34375482D01*
X26570572Y-34251000D01*
X26570572Y-32551000D01*
X26558312Y-32426518D01*
X26522002Y-32306820D01*
X26463037Y-32196506D01*
X26383685Y-32099815D01*
X26286994Y-32020463D01*
X26176680Y-31961498D01*
X26056982Y-31925188D01*
X25932500Y-31912928D01*
X24232500Y-31912928D01*
X24108018Y-31925188D01*
X23988320Y-31961498D01*
X23878006Y-32020463D01*
X23781315Y-32099815D01*
X23701963Y-32196506D01*
X23642998Y-32306820D01*
X23618534Y-32387466D01*
X23542769Y-32303412D01*
X23309420Y-32129359D01*
X23046599Y-32004175D01*
X22899390Y-31959524D01*
X22669500Y-32080845D01*
X22415500Y-32080845D01*
X22185610Y-31959524D01*
X22038401Y-32004175D01*
X21775580Y-32129359D01*
X21542231Y-32303412D01*
X21347322Y-32519645D01*
X21272500Y-32645255D01*
X21197678Y-32519645D01*
X21002769Y-32303412D01*
X20769420Y-32129359D01*
X20506599Y-32004175D01*
X20359390Y-31959524D01*
X20129500Y-32080845D01*
X19875500Y-32080845D01*
X19645610Y-31959524D01*
X19498401Y-32004175D01*
X19235580Y-32129359D01*
X19002231Y-32303412D01*
X18807322Y-32519645D01*
X18737695Y-32636534D01*
X18615975Y-32454368D01*
X18409132Y-32247525D01*
X18165911Y-32085010D01*
X17895658Y-31973068D01*
X17608760Y-31916000D01*
X17316240Y-31916000D01*
X17029342Y-31973068D01*
X16759089Y-32085010D01*
X16515868Y-32247525D01*
X16309025Y-32454368D01*
X16146510Y-32697589D01*
X16034568Y-32967842D01*
X15977500Y-33254740D01*
X15900000Y-33254740D01*
X15900000Y-20980000D01*
X37946438Y-20980000D01*
X36311502Y-22614937D01*
G37*
X36311502Y-22614937D02*
X36282498Y-22638740D01*
X36249889Y-22678475D01*
X36187525Y-22754465D01*
X36165465Y-22795736D01*
X36117236Y-22885965D01*
X36031227Y-22828495D01*
X35776990Y-22723186D01*
X35507092Y-22669500D01*
X35231908Y-22669500D01*
X34962010Y-22723186D01*
X34707773Y-22828495D01*
X34478965Y-22981380D01*
X34284380Y-23175965D01*
X34131495Y-23404773D01*
X34099500Y-23482015D01*
X34067505Y-23404773D01*
X33914620Y-23175965D01*
X33720035Y-22981380D01*
X33491227Y-22828495D01*
X33236990Y-22723186D01*
X32967092Y-22669500D01*
X32691908Y-22669500D01*
X32422010Y-22723186D01*
X32167773Y-22828495D01*
X31938965Y-22981380D01*
X31744380Y-23175965D01*
X31591495Y-23404773D01*
X31559500Y-23482015D01*
X31527505Y-23404773D01*
X31374620Y-23175965D01*
X31180035Y-22981380D01*
X30951227Y-22828495D01*
X30696990Y-22723186D01*
X30427092Y-22669500D01*
X30151908Y-22669500D01*
X29882010Y-22723186D01*
X29627773Y-22828495D01*
X29398965Y-22981380D01*
X29204380Y-23175965D01*
X29051495Y-23404773D01*
X28946186Y-23659010D01*
X28892500Y-23928908D01*
X28892500Y-24204092D01*
X28946186Y-24473990D01*
X29051495Y-24728227D01*
X29204380Y-24957035D01*
X29398965Y-25151620D01*
X29627773Y-25304505D01*
X29705015Y-25336500D01*
X29627773Y-25368495D01*
X29398965Y-25521380D01*
X29204380Y-25715965D01*
X29051495Y-25944773D01*
X28946186Y-26199010D01*
X28892500Y-26468908D01*
X28892500Y-26744092D01*
X28946186Y-27013990D01*
X29051495Y-27268227D01*
X29204380Y-27497035D01*
X29398965Y-27691620D01*
X29529500Y-27778841D01*
X29529501Y-34774170D01*
X29525824Y-34811502D01*
X29529501Y-34848835D01*
X29533162Y-34886000D01*
X29540498Y-34960487D01*
X29583954Y-35103748D01*
X29654526Y-35235778D01*
X29689009Y-35277795D01*
X29749500Y-35351503D01*
X29778498Y-35375301D01*
X31843196Y-37440000D01*
X15900000Y-37440000D01*
X15900000Y-33254740D01*
X15977500Y-33254740D01*
X15977500Y-33547260D01*
X16034568Y-33834158D01*
X16146510Y-34104411D01*
X16309025Y-34347632D01*
X16515868Y-34554475D01*
X16759089Y-34716990D01*
X17029342Y-34828932D01*
X17316240Y-34886000D01*
X17608760Y-34886000D01*
X17895658Y-34828932D01*
X18165911Y-34716990D01*
X18409132Y-34554475D01*
X18615975Y-34347632D01*
X18737695Y-34165466D01*
X18807322Y-34282355D01*
X19002231Y-34498588D01*
X19235580Y-34672641D01*
X19498401Y-34797825D01*
X19645610Y-34842476D01*
X19875500Y-34721155D01*
X19875500Y-33528000D01*
X20129500Y-33528000D01*
X20129500Y-34721155D01*
X20359390Y-34842476D01*
X20506599Y-34797825D01*
X20769420Y-34672641D01*
X21002769Y-34498588D01*
X21197678Y-34282355D01*
X21272500Y-34156745D01*
X21347322Y-34282355D01*
X21542231Y-34498588D01*
X21775580Y-34672641D01*
X22038401Y-34797825D01*
X22185610Y-34842476D01*
X22415500Y-34721155D01*
X22415500Y-33528000D01*
X20129500Y-33528000D01*
X19875500Y-33528000D01*
X19855500Y-33528000D01*
X19855500Y-33274000D01*
X19875500Y-33274000D01*
X19875500Y-32080845D01*
X20129500Y-32080845D01*
X20129500Y-33274000D01*
X22415500Y-33274000D01*
X22415500Y-32080845D01*
X22669500Y-32080845D01*
X22669500Y-33274000D01*
X22689500Y-33274000D01*
X22689500Y-33528000D01*
X22669500Y-33528000D01*
X22669500Y-34721155D01*
X22899390Y-34842476D01*
X23046599Y-34797825D01*
X23309420Y-34672641D01*
X23542769Y-34498588D01*
X23618534Y-34414534D01*
X23642998Y-34495180D01*
X23701963Y-34605494D01*
X23781315Y-34702185D01*
X23878006Y-34781537D01*
X23988320Y-34840502D01*
X24108018Y-34876812D01*
X24232500Y-34889072D01*
X25932500Y-34889072D01*
X26056982Y-34876812D01*
X26176680Y-34840502D01*
X26286994Y-34781537D01*
X26383685Y-34702185D01*
X26463037Y-34605494D01*
X26522002Y-34495180D01*
X26558312Y-34375482D01*
X26570572Y-34251000D01*
X26570572Y-32551000D01*
X26558312Y-32426518D01*
X26522002Y-32306820D01*
X26463037Y-32196506D01*
X26383685Y-32099815D01*
X26286994Y-32020463D01*
X26176680Y-31961498D01*
X26056982Y-31925188D01*
X25932500Y-31912928D01*
X24232500Y-31912928D01*
X24108018Y-31925188D01*
X23988320Y-31961498D01*
X23878006Y-32020463D01*
X23781315Y-32099815D01*
X23701963Y-32196506D01*
X23642998Y-32306820D01*
X23618534Y-32387466D01*
X23542769Y-32303412D01*
X23309420Y-32129359D01*
X23046599Y-32004175D01*
X22899390Y-31959524D01*
X22669500Y-32080845D01*
X22415500Y-32080845D01*
X22185610Y-31959524D01*
X22038401Y-32004175D01*
X21775580Y-32129359D01*
X21542231Y-32303412D01*
X21347322Y-32519645D01*
X21272500Y-32645255D01*
X21197678Y-32519645D01*
X21002769Y-32303412D01*
X20769420Y-32129359D01*
X20506599Y-32004175D01*
X20359390Y-31959524D01*
X20129500Y-32080845D01*
X19875500Y-32080845D01*
X19645610Y-31959524D01*
X19498401Y-32004175D01*
X19235580Y-32129359D01*
X19002231Y-32303412D01*
X18807322Y-32519645D01*
X18737695Y-32636534D01*
X18615975Y-32454368D01*
X18409132Y-32247525D01*
X18165911Y-32085010D01*
X17895658Y-31973068D01*
X17608760Y-31916000D01*
X17316240Y-31916000D01*
X17029342Y-31973068D01*
X16759089Y-32085010D01*
X16515868Y-32247525D01*
X16309025Y-32454368D01*
X16146510Y-32697589D01*
X16034568Y-32967842D01*
X15977500Y-33254740D01*
X15900000Y-33254740D01*
X15900000Y-20980000D01*
X37946438Y-20980000D01*
X36311502Y-22614937D01*
G36*
X76048001Y-37440000D02*
G01*
X70272563Y-37440000D01*
X71977609Y-35734955D01*
X71995631Y-35752977D01*
X72112041Y-35636567D01*
X72179020Y-35876656D01*
X72428048Y-35993756D01*
X72695135Y-36060023D01*
X72970017Y-36072910D01*
X73242133Y-36031922D01*
X73501023Y-35938636D01*
X73616980Y-35876656D01*
X73683960Y-35636565D01*
X72898000Y-34850605D01*
X72883858Y-34864748D01*
X72704253Y-34685143D01*
X72718395Y-34671000D01*
X73077605Y-34671000D01*
X73863565Y-35456960D01*
X74103656Y-35389980D01*
X74220756Y-35140952D01*
X74287023Y-34873865D01*
X74299910Y-34598983D01*
X74258922Y-34326867D01*
X74165636Y-34067977D01*
X74103656Y-33952020D01*
X73863565Y-33885040D01*
X73077605Y-34671000D01*
X72718395Y-34671000D01*
X72704253Y-34656858D01*
X72883858Y-34477253D01*
X72898000Y-34491395D01*
X73683960Y-33705435D01*
X73616980Y-33465344D01*
X73481240Y-33401515D01*
X73559727Y-33369005D01*
X73788535Y-33216120D01*
X73983120Y-33021535D01*
X74136005Y-32792727D01*
X74241314Y-32538490D01*
X74295000Y-32268592D01*
X74295000Y-31993408D01*
X74241314Y-31723510D01*
X74136005Y-31469273D01*
X73983120Y-31240465D01*
X73788535Y-31045880D01*
X73559727Y-30892995D01*
X73305490Y-30787686D01*
X73035592Y-30734000D01*
X72760408Y-30734000D01*
X72490510Y-30787686D01*
X72236273Y-30892995D01*
X72007465Y-31045880D01*
X71812880Y-31240465D01*
X71659995Y-31469273D01*
X71628000Y-31546515D01*
X71596005Y-31469273D01*
X71443120Y-31240465D01*
X71248535Y-31045880D01*
X71019727Y-30892995D01*
X70765490Y-30787686D01*
X70495592Y-30734000D01*
X70220408Y-30734000D01*
X69950510Y-30787686D01*
X69696273Y-30892995D01*
X69467465Y-31045880D01*
X69272880Y-31240465D01*
X69119995Y-31469273D01*
X69088000Y-31546515D01*
X69056005Y-31469273D01*
X68903120Y-31240465D01*
X68708535Y-31045880D01*
X68479727Y-30892995D01*
X68225490Y-30787686D01*
X67955592Y-30734000D01*
X67680408Y-30734000D01*
X67410510Y-30787686D01*
X67156273Y-30892995D01*
X66927465Y-31045880D01*
X66732880Y-31240465D01*
X66579995Y-31469273D01*
X66548000Y-31546515D01*
X66516005Y-31469273D01*
X66363120Y-31240465D01*
X66168535Y-31045880D01*
X65939727Y-30892995D01*
X65685490Y-30787686D01*
X65415592Y-30734000D01*
X65140408Y-30734000D01*
X64870510Y-30787686D01*
X64616273Y-30892995D01*
X64387465Y-31045880D01*
X64192880Y-31240465D01*
X64039995Y-31469273D01*
X64008000Y-31546515D01*
X63976005Y-31469273D01*
X63823120Y-31240465D01*
X63628535Y-31045880D01*
X63399727Y-30892995D01*
X63145490Y-30787686D01*
X62875592Y-30734000D01*
X62600408Y-30734000D01*
X62330510Y-30787686D01*
X62076273Y-30892995D01*
X61847465Y-31045880D01*
X61652880Y-31240465D01*
X61499995Y-31469273D01*
X61468000Y-31546515D01*
X61436005Y-31469273D01*
X61283120Y-31240465D01*
X61088535Y-31045880D01*
X60859727Y-30892995D01*
X60605490Y-30787686D01*
X60335592Y-30734000D01*
X60060408Y-30734000D01*
X59790510Y-30787686D01*
X59536273Y-30892995D01*
X59307465Y-31045880D01*
X59112880Y-31240465D01*
X58959995Y-31469273D01*
X58928000Y-31546515D01*
X58896005Y-31469273D01*
X58743120Y-31240465D01*
X58548535Y-31045880D01*
X58319727Y-30892995D01*
X58065490Y-30787686D01*
X57795592Y-30734000D01*
X57520408Y-30734000D01*
X57250510Y-30787686D01*
X56996273Y-30892995D01*
X56767465Y-31045880D01*
X56572880Y-31240465D01*
X56419995Y-31469273D01*
X56388000Y-31546515D01*
X56356005Y-31469273D01*
X56203120Y-31240465D01*
X56008535Y-31045880D01*
X55779727Y-30892995D01*
X55525490Y-30787686D01*
X55255592Y-30734000D01*
X54980408Y-30734000D01*
X54710510Y-30787686D01*
X54456273Y-30892995D01*
X54227465Y-31045880D01*
X54032880Y-31240465D01*
X53879995Y-31469273D01*
X53848000Y-31546515D01*
X53816005Y-31469273D01*
X53663120Y-31240465D01*
X53468535Y-31045880D01*
X53239727Y-30892995D01*
X52985490Y-30787686D01*
X52715592Y-30734000D01*
X52509802Y-30734000D01*
X53660508Y-29583295D01*
X53689501Y-29559501D01*
X53713295Y-29530508D01*
X53713299Y-29530504D01*
X53784473Y-29443777D01*
X53784474Y-29443776D01*
X53855046Y-29311747D01*
X53898503Y-29168486D01*
X53909500Y-29056833D01*
X53909500Y-29056824D01*
X53913176Y-29019501D01*
X53909500Y-28982178D01*
X53909500Y-27778841D01*
X54040035Y-27691620D01*
X54234620Y-27497035D01*
X54387505Y-27268227D01*
X54419500Y-27190985D01*
X54451495Y-27268227D01*
X54604380Y-27497035D01*
X54798965Y-27691620D01*
X55027773Y-27844505D01*
X55282010Y-27949814D01*
X55551908Y-28003500D01*
X55827092Y-28003500D01*
X56096990Y-27949814D01*
X56351227Y-27844505D01*
X56580035Y-27691620D01*
X56774620Y-27497035D01*
X56927505Y-27268227D01*
X56959500Y-27190985D01*
X56991495Y-27268227D01*
X57144380Y-27497035D01*
X57338965Y-27691620D01*
X57567773Y-27844505D01*
X57822010Y-27949814D01*
X58091908Y-28003500D01*
X58367092Y-28003500D01*
X58636990Y-27949814D01*
X58891227Y-27844505D01*
X59120035Y-27691620D01*
X59314620Y-27497035D01*
X59467505Y-27268227D01*
X59499500Y-27190985D01*
X59531495Y-27268227D01*
X59684380Y-27497035D01*
X59878965Y-27691620D01*
X60107773Y-27844505D01*
X60362010Y-27949814D01*
X60631908Y-28003500D01*
X60907092Y-28003500D01*
X61176990Y-27949814D01*
X61431227Y-27844505D01*
X61660035Y-27691620D01*
X61854620Y-27497035D01*
X62007505Y-27268227D01*
X62039500Y-27190985D01*
X62071495Y-27268227D01*
X62224380Y-27497035D01*
X62418965Y-27691620D01*
X62647773Y-27844505D01*
X62902010Y-27949814D01*
X63171908Y-28003500D01*
X63447092Y-28003500D01*
X63716990Y-27949814D01*
X63971227Y-27844505D01*
X64200035Y-27691620D01*
X64394620Y-27497035D01*
X64547505Y-27268227D01*
X64579500Y-27190985D01*
X64611495Y-27268227D01*
X64764380Y-27497035D01*
X64958965Y-27691620D01*
X65187773Y-27844505D01*
X65442010Y-27949814D01*
X65711908Y-28003500D01*
X65987092Y-28003500D01*
X66256990Y-27949814D01*
X66511227Y-27844505D01*
X66740035Y-27691620D01*
X66934620Y-27497035D01*
X67087505Y-27268227D01*
X67119500Y-27190985D01*
X67151495Y-27268227D01*
X67304380Y-27497035D01*
X67498965Y-27691620D01*
X67727773Y-27844505D01*
X67982010Y-27949814D01*
X68251908Y-28003500D01*
X68527092Y-28003500D01*
X68796990Y-27949814D01*
X69051227Y-27844505D01*
X69280035Y-27691620D01*
X69474620Y-27497035D01*
X69627505Y-27268227D01*
X69659500Y-27190985D01*
X69691495Y-27268227D01*
X69844380Y-27497035D01*
X70038965Y-27691620D01*
X70267773Y-27844505D01*
X70522010Y-27949814D01*
X70791908Y-28003500D01*
X71067092Y-28003500D01*
X71336990Y-27949814D01*
X71591227Y-27844505D01*
X71820035Y-27691620D01*
X72014620Y-27497035D01*
X72167505Y-27268227D01*
X72272814Y-27013990D01*
X72326500Y-26744092D01*
X72326500Y-26468908D01*
X72272814Y-26199010D01*
X72167505Y-25944773D01*
X72014620Y-25715965D01*
X71820035Y-25521380D01*
X71732035Y-25462580D01*
X71815982Y-25454312D01*
X71935680Y-25418002D01*
X72045994Y-25359037D01*
X72142685Y-25279685D01*
X72222037Y-25182994D01*
X72281002Y-25072680D01*
X72317312Y-24952982D01*
X72329572Y-24828500D01*
X72329572Y-23304500D01*
X72317312Y-23180018D01*
X72281002Y-23060320D01*
X72222037Y-22950006D01*
X72142685Y-22853315D01*
X72045994Y-22773963D01*
X71935680Y-22714998D01*
X71815982Y-22678688D01*
X71691500Y-22666428D01*
X70167500Y-22666428D01*
X70043018Y-22678688D01*
X69923320Y-22714998D01*
X69813006Y-22773963D01*
X69716315Y-22853315D01*
X69636963Y-22950006D01*
X69577998Y-23060320D01*
X69541688Y-23180018D01*
X69533420Y-23263965D01*
X69474620Y-23175965D01*
X69280035Y-22981380D01*
X69051227Y-22828495D01*
X68796990Y-22723186D01*
X68527092Y-22669500D01*
X68251908Y-22669500D01*
X67982010Y-22723186D01*
X67727773Y-22828495D01*
X67498965Y-22981380D01*
X67304380Y-23175965D01*
X67151495Y-23404773D01*
X67119500Y-23482015D01*
X67087505Y-23404773D01*
X66934620Y-23175965D01*
X66740035Y-22981380D01*
X66511227Y-22828495D01*
X66256990Y-22723186D01*
X65987092Y-22669500D01*
X65711908Y-22669500D01*
X65442010Y-22723186D01*
X65187773Y-22828495D01*
X64958965Y-22981380D01*
X64936010Y-23004335D01*
X64907504Y-22980940D01*
X62906563Y-20980000D01*
X76048000Y-20980000D01*
X76048001Y-37440000D01*
G37*
X76048001Y-37440000D02*
X70272563Y-37440000D01*
X71977609Y-35734955D01*
X71995631Y-35752977D01*
X72112041Y-35636567D01*
X72179020Y-35876656D01*
X72428048Y-35993756D01*
X72695135Y-36060023D01*
X72970017Y-36072910D01*
X73242133Y-36031922D01*
X73501023Y-35938636D01*
X73616980Y-35876656D01*
X73683960Y-35636565D01*
X72898000Y-34850605D01*
X72883858Y-34864748D01*
X72704253Y-34685143D01*
X72718395Y-34671000D01*
X73077605Y-34671000D01*
X73863565Y-35456960D01*
X74103656Y-35389980D01*
X74220756Y-35140952D01*
X74287023Y-34873865D01*
X74299910Y-34598983D01*
X74258922Y-34326867D01*
X74165636Y-34067977D01*
X74103656Y-33952020D01*
X73863565Y-33885040D01*
X73077605Y-34671000D01*
X72718395Y-34671000D01*
X72704253Y-34656858D01*
X72883858Y-34477253D01*
X72898000Y-34491395D01*
X73683960Y-33705435D01*
X73616980Y-33465344D01*
X73481240Y-33401515D01*
X73559727Y-33369005D01*
X73788535Y-33216120D01*
X73983120Y-33021535D01*
X74136005Y-32792727D01*
X74241314Y-32538490D01*
X74295000Y-32268592D01*
X74295000Y-31993408D01*
X74241314Y-31723510D01*
X74136005Y-31469273D01*
X73983120Y-31240465D01*
X73788535Y-31045880D01*
X73559727Y-30892995D01*
X73305490Y-30787686D01*
X73035592Y-30734000D01*
X72760408Y-30734000D01*
X72490510Y-30787686D01*
X72236273Y-30892995D01*
X72007465Y-31045880D01*
X71812880Y-31240465D01*
X71659995Y-31469273D01*
X71628000Y-31546515D01*
X71596005Y-31469273D01*
X71443120Y-31240465D01*
X71248535Y-31045880D01*
X71019727Y-30892995D01*
X70765490Y-30787686D01*
X70495592Y-30734000D01*
X70220408Y-30734000D01*
X69950510Y-30787686D01*
X69696273Y-30892995D01*
X69467465Y-31045880D01*
X69272880Y-31240465D01*
X69119995Y-31469273D01*
X69088000Y-31546515D01*
X69056005Y-31469273D01*
X68903120Y-31240465D01*
X68708535Y-31045880D01*
X68479727Y-30892995D01*
X68225490Y-30787686D01*
X67955592Y-30734000D01*
X67680408Y-30734000D01*
X67410510Y-30787686D01*
X67156273Y-30892995D01*
X66927465Y-31045880D01*
X66732880Y-31240465D01*
X66579995Y-31469273D01*
X66548000Y-31546515D01*
X66516005Y-31469273D01*
X66363120Y-31240465D01*
X66168535Y-31045880D01*
X65939727Y-30892995D01*
X65685490Y-30787686D01*
X65415592Y-30734000D01*
X65140408Y-30734000D01*
X64870510Y-30787686D01*
X64616273Y-30892995D01*
X64387465Y-31045880D01*
X64192880Y-31240465D01*
X64039995Y-31469273D01*
X64008000Y-31546515D01*
X63976005Y-31469273D01*
X63823120Y-31240465D01*
X63628535Y-31045880D01*
X63399727Y-30892995D01*
X63145490Y-30787686D01*
X62875592Y-30734000D01*
X62600408Y-30734000D01*
X62330510Y-30787686D01*
X62076273Y-30892995D01*
X61847465Y-31045880D01*
X61652880Y-31240465D01*
X61499995Y-31469273D01*
X61468000Y-31546515D01*
X61436005Y-31469273D01*
X61283120Y-31240465D01*
X61088535Y-31045880D01*
X60859727Y-30892995D01*
X60605490Y-30787686D01*
X60335592Y-30734000D01*
X60060408Y-30734000D01*
X59790510Y-30787686D01*
X59536273Y-30892995D01*
X59307465Y-31045880D01*
X59112880Y-31240465D01*
X58959995Y-31469273D01*
X58928000Y-31546515D01*
X58896005Y-31469273D01*
X58743120Y-31240465D01*
X58548535Y-31045880D01*
X58319727Y-30892995D01*
X58065490Y-30787686D01*
X57795592Y-30734000D01*
X57520408Y-30734000D01*
X57250510Y-30787686D01*
X56996273Y-30892995D01*
X56767465Y-31045880D01*
X56572880Y-31240465D01*
X56419995Y-31469273D01*
X56388000Y-31546515D01*
X56356005Y-31469273D01*
X56203120Y-31240465D01*
X56008535Y-31045880D01*
X55779727Y-30892995D01*
X55525490Y-30787686D01*
X55255592Y-30734000D01*
X54980408Y-30734000D01*
X54710510Y-30787686D01*
X54456273Y-30892995D01*
X54227465Y-31045880D01*
X54032880Y-31240465D01*
X53879995Y-31469273D01*
X53848000Y-31546515D01*
X53816005Y-31469273D01*
X53663120Y-31240465D01*
X53468535Y-31045880D01*
X53239727Y-30892995D01*
X52985490Y-30787686D01*
X52715592Y-30734000D01*
X52509802Y-30734000D01*
X53660508Y-29583295D01*
X53689501Y-29559501D01*
X53713295Y-29530508D01*
X53713299Y-29530504D01*
X53784473Y-29443777D01*
X53784474Y-29443776D01*
X53855046Y-29311747D01*
X53898503Y-29168486D01*
X53909500Y-29056833D01*
X53909500Y-29056824D01*
X53913176Y-29019501D01*
X53909500Y-28982178D01*
X53909500Y-27778841D01*
X54040035Y-27691620D01*
X54234620Y-27497035D01*
X54387505Y-27268227D01*
X54419500Y-27190985D01*
X54451495Y-27268227D01*
X54604380Y-27497035D01*
X54798965Y-27691620D01*
X55027773Y-27844505D01*
X55282010Y-27949814D01*
X55551908Y-28003500D01*
X55827092Y-28003500D01*
X56096990Y-27949814D01*
X56351227Y-27844505D01*
X56580035Y-27691620D01*
X56774620Y-27497035D01*
X56927505Y-27268227D01*
X56959500Y-27190985D01*
X56991495Y-27268227D01*
X57144380Y-27497035D01*
X57338965Y-27691620D01*
X57567773Y-27844505D01*
X57822010Y-27949814D01*
X58091908Y-28003500D01*
X58367092Y-28003500D01*
X58636990Y-27949814D01*
X58891227Y-27844505D01*
X59120035Y-27691620D01*
X59314620Y-27497035D01*
X59467505Y-27268227D01*
X59499500Y-27190985D01*
X59531495Y-27268227D01*
X59684380Y-27497035D01*
X59878965Y-27691620D01*
X60107773Y-27844505D01*
X60362010Y-27949814D01*
X60631908Y-28003500D01*
X60907092Y-28003500D01*
X61176990Y-27949814D01*
X61431227Y-27844505D01*
X61660035Y-27691620D01*
X61854620Y-27497035D01*
X62007505Y-27268227D01*
X62039500Y-27190985D01*
X62071495Y-27268227D01*
X62224380Y-27497035D01*
X62418965Y-27691620D01*
X62647773Y-27844505D01*
X62902010Y-27949814D01*
X63171908Y-28003500D01*
X63447092Y-28003500D01*
X63716990Y-27949814D01*
X63971227Y-27844505D01*
X64200035Y-27691620D01*
X64394620Y-27497035D01*
X64547505Y-27268227D01*
X64579500Y-27190985D01*
X64611495Y-27268227D01*
X64764380Y-27497035D01*
X64958965Y-27691620D01*
X65187773Y-27844505D01*
X65442010Y-27949814D01*
X65711908Y-28003500D01*
X65987092Y-28003500D01*
X66256990Y-27949814D01*
X66511227Y-27844505D01*
X66740035Y-27691620D01*
X66934620Y-27497035D01*
X67087505Y-27268227D01*
X67119500Y-27190985D01*
X67151495Y-27268227D01*
X67304380Y-27497035D01*
X67498965Y-27691620D01*
X67727773Y-27844505D01*
X67982010Y-27949814D01*
X68251908Y-28003500D01*
X68527092Y-28003500D01*
X68796990Y-27949814D01*
X69051227Y-27844505D01*
X69280035Y-27691620D01*
X69474620Y-27497035D01*
X69627505Y-27268227D01*
X69659500Y-27190985D01*
X69691495Y-27268227D01*
X69844380Y-27497035D01*
X70038965Y-27691620D01*
X70267773Y-27844505D01*
X70522010Y-27949814D01*
X70791908Y-28003500D01*
X71067092Y-28003500D01*
X71336990Y-27949814D01*
X71591227Y-27844505D01*
X71820035Y-27691620D01*
X72014620Y-27497035D01*
X72167505Y-27268227D01*
X72272814Y-27013990D01*
X72326500Y-26744092D01*
X72326500Y-26468908D01*
X72272814Y-26199010D01*
X72167505Y-25944773D01*
X72014620Y-25715965D01*
X71820035Y-25521380D01*
X71732035Y-25462580D01*
X71815982Y-25454312D01*
X71935680Y-25418002D01*
X72045994Y-25359037D01*
X72142685Y-25279685D01*
X72222037Y-25182994D01*
X72281002Y-25072680D01*
X72317312Y-24952982D01*
X72329572Y-24828500D01*
X72329572Y-23304500D01*
X72317312Y-23180018D01*
X72281002Y-23060320D01*
X72222037Y-22950006D01*
X72142685Y-22853315D01*
X72045994Y-22773963D01*
X71935680Y-22714998D01*
X71815982Y-22678688D01*
X71691500Y-22666428D01*
X70167500Y-22666428D01*
X70043018Y-22678688D01*
X69923320Y-22714998D01*
X69813006Y-22773963D01*
X69716315Y-22853315D01*
X69636963Y-22950006D01*
X69577998Y-23060320D01*
X69541688Y-23180018D01*
X69533420Y-23263965D01*
X69474620Y-23175965D01*
X69280035Y-22981380D01*
X69051227Y-22828495D01*
X68796990Y-22723186D01*
X68527092Y-22669500D01*
X68251908Y-22669500D01*
X67982010Y-22723186D01*
X67727773Y-22828495D01*
X67498965Y-22981380D01*
X67304380Y-23175965D01*
X67151495Y-23404773D01*
X67119500Y-23482015D01*
X67087505Y-23404773D01*
X66934620Y-23175965D01*
X66740035Y-22981380D01*
X66511227Y-22828495D01*
X66256990Y-22723186D01*
X65987092Y-22669500D01*
X65711908Y-22669500D01*
X65442010Y-22723186D01*
X65187773Y-22828495D01*
X64958965Y-22981380D01*
X64936010Y-23004335D01*
X64907504Y-22980940D01*
X62906563Y-20980000D01*
X76048000Y-20980000D01*
X76048001Y-37440000D01*
G36*
X57851748Y-34656858D02*
G01*
X57837605Y-34671000D01*
X57851748Y-34685143D01*
X57672143Y-34864748D01*
X57658000Y-34850605D01*
X57643858Y-34864748D01*
X57464253Y-34685143D01*
X57478395Y-34671000D01*
X57464253Y-34656858D01*
X57643858Y-34477253D01*
X57658000Y-34491395D01*
X57672143Y-34477253D01*
X57851748Y-34656858D01*
G37*
X57851748Y-34656858D02*
X57837605Y-34671000D01*
X57851748Y-34685143D01*
X57672143Y-34864748D01*
X57658000Y-34850605D01*
X57643858Y-34864748D01*
X57464253Y-34685143D01*
X57478395Y-34671000D01*
X57464253Y-34656858D01*
X57643858Y-34477253D01*
X57658000Y-34491395D01*
X57672143Y-34477253D01*
X57851748Y-34656858D01*
G36*
X68011748Y-34656858D02*
G01*
X67997605Y-34671000D01*
X68011748Y-34685143D01*
X67832143Y-34864748D01*
X67818000Y-34850605D01*
X67803858Y-34864748D01*
X67624253Y-34685143D01*
X67638395Y-34671000D01*
X67624253Y-34656858D01*
X67803858Y-34477253D01*
X67818000Y-34491395D01*
X67832143Y-34477253D01*
X68011748Y-34656858D01*
G37*
X68011748Y-34656858D02*
X67997605Y-34671000D01*
X68011748Y-34685143D01*
X67832143Y-34864748D01*
X67818000Y-34850605D01*
X67803858Y-34864748D01*
X67624253Y-34685143D01*
X67638395Y-34671000D01*
X67624253Y-34656858D01*
X67803858Y-34477253D01*
X67818000Y-34491395D01*
X67832143Y-34477253D01*
X68011748Y-34656858D01*
G36*
X62931748Y-34656858D02*
G01*
X62917605Y-34671000D01*
X62931748Y-34685143D01*
X62752143Y-34864748D01*
X62738000Y-34850605D01*
X62723858Y-34864748D01*
X62544253Y-34685143D01*
X62558395Y-34671000D01*
X62544253Y-34656858D01*
X62723858Y-34477253D01*
X62738000Y-34491395D01*
X62752143Y-34477253D01*
X62931748Y-34656858D01*
G37*
X62931748Y-34656858D02*
X62917605Y-34671000D01*
X62931748Y-34685143D01*
X62752143Y-34864748D01*
X62738000Y-34850605D01*
X62723858Y-34864748D01*
X62544253Y-34685143D01*
X62558395Y-34671000D01*
X62544253Y-34656858D01*
X62723858Y-34477253D01*
X62738000Y-34491395D01*
X62752143Y-34477253D01*
X62931748Y-34656858D01*
G36*
X60391748Y-34656858D02*
G01*
X60377605Y-34671000D01*
X60391748Y-34685143D01*
X60212143Y-34864748D01*
X60198000Y-34850605D01*
X60183858Y-34864748D01*
X60004253Y-34685143D01*
X60018395Y-34671000D01*
X60004253Y-34656858D01*
X60183858Y-34477253D01*
X60198000Y-34491395D01*
X60212143Y-34477253D01*
X60391748Y-34656858D01*
G37*
X60391748Y-34656858D02*
X60377605Y-34671000D01*
X60391748Y-34685143D01*
X60212143Y-34864748D01*
X60198000Y-34850605D01*
X60183858Y-34864748D01*
X60004253Y-34685143D01*
X60018395Y-34671000D01*
X60004253Y-34656858D01*
X60183858Y-34477253D01*
X60198000Y-34491395D01*
X60212143Y-34477253D01*
X60391748Y-34656858D01*
G36*
X65471748Y-34656858D02*
G01*
X65457605Y-34671000D01*
X65471748Y-34685143D01*
X65292143Y-34864748D01*
X65278000Y-34850605D01*
X65263858Y-34864748D01*
X65084253Y-34685143D01*
X65098395Y-34671000D01*
X65084253Y-34656858D01*
X65263858Y-34477253D01*
X65278000Y-34491395D01*
X65292143Y-34477253D01*
X65471748Y-34656858D01*
G37*
X65471748Y-34656858D02*
X65457605Y-34671000D01*
X65471748Y-34685143D01*
X65292143Y-34864748D01*
X65278000Y-34850605D01*
X65263858Y-34864748D01*
X65084253Y-34685143D01*
X65098395Y-34671000D01*
X65084253Y-34656858D01*
X65263858Y-34477253D01*
X65278000Y-34491395D01*
X65292143Y-34477253D01*
X65471748Y-34656858D01*
G36*
X55311748Y-34656858D02*
G01*
X55297605Y-34671000D01*
X55311748Y-34685143D01*
X55132143Y-34864748D01*
X55118000Y-34850605D01*
X55103858Y-34864748D01*
X54924253Y-34685143D01*
X54938395Y-34671000D01*
X54924253Y-34656858D01*
X55103858Y-34477253D01*
X55118000Y-34491395D01*
X55132143Y-34477253D01*
X55311748Y-34656858D01*
G37*
X55311748Y-34656858D02*
X55297605Y-34671000D01*
X55311748Y-34685143D01*
X55132143Y-34864748D01*
X55118000Y-34850605D01*
X55103858Y-34864748D01*
X54924253Y-34685143D01*
X54938395Y-34671000D01*
X54924253Y-34656858D01*
X55103858Y-34477253D01*
X55118000Y-34491395D01*
X55132143Y-34477253D01*
X55311748Y-34656858D01*
G36*
X52771748Y-34656858D02*
G01*
X52757605Y-34671000D01*
X52771748Y-34685143D01*
X52592143Y-34864748D01*
X52578000Y-34850605D01*
X52563858Y-34864748D01*
X52384253Y-34685143D01*
X52398395Y-34671000D01*
X52384253Y-34656858D01*
X52563858Y-34477253D01*
X52578000Y-34491395D01*
X52592143Y-34477253D01*
X52771748Y-34656858D01*
G37*
X52771748Y-34656858D02*
X52757605Y-34671000D01*
X52771748Y-34685143D01*
X52592143Y-34864748D01*
X52578000Y-34850605D01*
X52563858Y-34864748D01*
X52384253Y-34685143D01*
X52398395Y-34671000D01*
X52384253Y-34656858D01*
X52563858Y-34477253D01*
X52578000Y-34491395D01*
X52592143Y-34477253D01*
X52771748Y-34656858D01*
G36*
X50231748Y-34656858D02*
G01*
X50217605Y-34671000D01*
X50231748Y-34685143D01*
X50052143Y-34864748D01*
X50038000Y-34850605D01*
X50023858Y-34864748D01*
X49844253Y-34685143D01*
X49858395Y-34671000D01*
X49844253Y-34656858D01*
X50023858Y-34477253D01*
X50038000Y-34491395D01*
X50052143Y-34477253D01*
X50231748Y-34656858D01*
G37*
X50231748Y-34656858D02*
X50217605Y-34671000D01*
X50231748Y-34685143D01*
X50052143Y-34864748D01*
X50038000Y-34850605D01*
X50023858Y-34864748D01*
X49844253Y-34685143D01*
X49858395Y-34671000D01*
X49844253Y-34656858D01*
X50023858Y-34477253D01*
X50038000Y-34491395D01*
X50052143Y-34477253D01*
X50231748Y-34656858D01*
G36*
X47691748Y-34656858D02*
G01*
X47677605Y-34671000D01*
X47691748Y-34685143D01*
X47512143Y-34864748D01*
X47498000Y-34850605D01*
X47483858Y-34864748D01*
X47304253Y-34685143D01*
X47318395Y-34671000D01*
X47304253Y-34656858D01*
X47483858Y-34477253D01*
X47498000Y-34491395D01*
X47512143Y-34477253D01*
X47691748Y-34656858D01*
G37*
X47691748Y-34656858D02*
X47677605Y-34671000D01*
X47691748Y-34685143D01*
X47512143Y-34864748D01*
X47498000Y-34850605D01*
X47483858Y-34864748D01*
X47304253Y-34685143D01*
X47318395Y-34671000D01*
X47304253Y-34656858D01*
X47483858Y-34477253D01*
X47498000Y-34491395D01*
X47512143Y-34477253D01*
X47691748Y-34656858D01*
G36*
X70551748Y-34656858D02*
G01*
X70537605Y-34671000D01*
X70551748Y-34685143D01*
X70372143Y-34864748D01*
X70358000Y-34850605D01*
X70343858Y-34864748D01*
X70164253Y-34685143D01*
X70178395Y-34671000D01*
X70164253Y-34656858D01*
X70343858Y-34477253D01*
X70358000Y-34491395D01*
X70372143Y-34477253D01*
X70551748Y-34656858D01*
G37*
X70551748Y-34656858D02*
X70537605Y-34671000D01*
X70551748Y-34685143D01*
X70372143Y-34864748D01*
X70358000Y-34850605D01*
X70343858Y-34864748D01*
X70164253Y-34685143D01*
X70178395Y-34671000D01*
X70164253Y-34656858D01*
X70343858Y-34477253D01*
X70358000Y-34491395D01*
X70372143Y-34477253D01*
X70551748Y-34656858D01*
G36*
X45899997Y-33216560D02*
G01*
X46434045Y-33750609D01*
X46416023Y-33768631D01*
X46532433Y-33885041D01*
X46292344Y-33952020D01*
X46230921Y-34082644D01*
X46225636Y-34067977D01*
X46163656Y-33952020D01*
X45923565Y-33885040D01*
X45137605Y-34671000D01*
X45151748Y-34685143D01*
X44972143Y-34864748D01*
X44958000Y-34850605D01*
X44943858Y-34864748D01*
X44764253Y-34685143D01*
X44778395Y-34671000D01*
X44764253Y-34656858D01*
X44943858Y-34477253D01*
X44958000Y-34491395D01*
X45743960Y-33705435D01*
X45676980Y-33465344D01*
X45541240Y-33401515D01*
X45619727Y-33369005D01*
X45848535Y-33216120D01*
X45871490Y-33193165D01*
X45899997Y-33216560D01*
G37*
X45899997Y-33216560D02*
X46434045Y-33750609D01*
X46416023Y-33768631D01*
X46532433Y-33885041D01*
X46292344Y-33952020D01*
X46230921Y-34082644D01*
X46225636Y-34067977D01*
X46163656Y-33952020D01*
X45923565Y-33885040D01*
X45137605Y-34671000D01*
X45151748Y-34685143D01*
X44972143Y-34864748D01*
X44958000Y-34850605D01*
X44943858Y-34864748D01*
X44764253Y-34685143D01*
X44778395Y-34671000D01*
X44764253Y-34656858D01*
X44943858Y-34477253D01*
X44958000Y-34491395D01*
X45743960Y-33705435D01*
X45676980Y-33465344D01*
X45541240Y-33401515D01*
X45619727Y-33369005D01*
X45848535Y-33216120D01*
X45871490Y-33193165D01*
X45899997Y-33216560D01*
G36*
X42611748Y-34656858D02*
G01*
X42597605Y-34671000D01*
X42611748Y-34685143D01*
X42432143Y-34864748D01*
X42418000Y-34850605D01*
X42403858Y-34864748D01*
X42224253Y-34685143D01*
X42238395Y-34671000D01*
X42224253Y-34656858D01*
X42403858Y-34477253D01*
X42418000Y-34491395D01*
X42432143Y-34477253D01*
X42611748Y-34656858D01*
G37*
X42611748Y-34656858D02*
X42597605Y-34671000D01*
X42611748Y-34685143D01*
X42432143Y-34864748D01*
X42418000Y-34850605D01*
X42403858Y-34864748D01*
X42224253Y-34685143D01*
X42238395Y-34671000D01*
X42224253Y-34656858D01*
X42403858Y-34477253D01*
X42418000Y-34491395D01*
X42432143Y-34477253D01*
X42611748Y-34656858D01*
G36*
X40071748Y-34656858D02*
G01*
X40057605Y-34671000D01*
X40071748Y-34685143D01*
X39892143Y-34864748D01*
X39878000Y-34850605D01*
X39863858Y-34864748D01*
X39684253Y-34685143D01*
X39698395Y-34671000D01*
X39684253Y-34656858D01*
X39863858Y-34477253D01*
X39878000Y-34491395D01*
X39892143Y-34477253D01*
X40071748Y-34656858D01*
G37*
X40071748Y-34656858D02*
X40057605Y-34671000D01*
X40071748Y-34685143D01*
X39892143Y-34864748D01*
X39878000Y-34850605D01*
X39863858Y-34864748D01*
X39684253Y-34685143D01*
X39698395Y-34671000D01*
X39684253Y-34656858D01*
X39863858Y-34477253D01*
X39878000Y-34491395D01*
X39892143Y-34477253D01*
X40071748Y-34656858D01*
G36*
X37531748Y-34656858D02*
G01*
X37517605Y-34671000D01*
X37531748Y-34685143D01*
X37352143Y-34864748D01*
X37338000Y-34850605D01*
X37323858Y-34864748D01*
X37144253Y-34685143D01*
X37158395Y-34671000D01*
X37144253Y-34656858D01*
X37323858Y-34477253D01*
X37338000Y-34491395D01*
X37352143Y-34477253D01*
X37531748Y-34656858D01*
G37*
X37531748Y-34656858D02*
X37517605Y-34671000D01*
X37531748Y-34685143D01*
X37352143Y-34864748D01*
X37338000Y-34850605D01*
X37323858Y-34864748D01*
X37144253Y-34685143D01*
X37158395Y-34671000D01*
X37144253Y-34656858D01*
X37323858Y-34477253D01*
X37338000Y-34491395D01*
X37352143Y-34477253D01*
X37531748Y-34656858D01*
G36*
X34991748Y-34656858D02*
G01*
X34977605Y-34671000D01*
X34991748Y-34685143D01*
X34812143Y-34864748D01*
X34798000Y-34850605D01*
X34783858Y-34864748D01*
X34604253Y-34685143D01*
X34618395Y-34671000D01*
X34604253Y-34656858D01*
X34783858Y-34477253D01*
X34798000Y-34491395D01*
X34812143Y-34477253D01*
X34991748Y-34656858D01*
G37*
X34991748Y-34656858D02*
X34977605Y-34671000D01*
X34991748Y-34685143D01*
X34812143Y-34864748D01*
X34798000Y-34850605D01*
X34783858Y-34864748D01*
X34604253Y-34685143D01*
X34618395Y-34671000D01*
X34604253Y-34656858D01*
X34783858Y-34477253D01*
X34798000Y-34491395D01*
X34812143Y-34477253D01*
X34991748Y-34656858D01*
G36*
X32385000Y-34544000D02*
G01*
X32405000Y-34544000D01*
X32405000Y-34798000D01*
X32385000Y-34798000D01*
X32385000Y-34818000D01*
X32131000Y-34818000D01*
X32131000Y-34798000D01*
X32111000Y-34798000D01*
X32111000Y-34544000D01*
X32131000Y-34544000D01*
X32131000Y-34524000D01*
X32385000Y-34524000D01*
X32385000Y-34544000D01*
G37*
X32385000Y-34544000D02*
X32405000Y-34544000D01*
X32405000Y-34798000D01*
X32385000Y-34798000D01*
X32385000Y-34818000D01*
X32131000Y-34818000D01*
X32131000Y-34798000D01*
X32111000Y-34798000D01*
X32111000Y-34544000D01*
X32131000Y-34544000D01*
X32131000Y-34524000D01*
X32385000Y-34524000D01*
X32385000Y-34544000D01*
G36*
X53343248Y-24052358D02*
G01*
X53329105Y-24066500D01*
X53343248Y-24080643D01*
X53163643Y-24260248D01*
X53149500Y-24246105D01*
X52363540Y-25032065D01*
X52430520Y-25272156D01*
X52566260Y-25335985D01*
X52487773Y-25368495D01*
X52258965Y-25521380D01*
X52064380Y-25715965D01*
X51911495Y-25944773D01*
X51879500Y-26022015D01*
X51847505Y-25944773D01*
X51694620Y-25715965D01*
X51500035Y-25521380D01*
X51271227Y-25368495D01*
X51199557Y-25338808D01*
X51212523Y-25334136D01*
X51328480Y-25272156D01*
X51395460Y-25032065D01*
X50609500Y-24246105D01*
X49823540Y-25032065D01*
X49890520Y-25272156D01*
X50026260Y-25335985D01*
X49947773Y-25368495D01*
X49718965Y-25521380D01*
X49524380Y-25715965D01*
X49371495Y-25944773D01*
X49339500Y-26022015D01*
X49307505Y-25944773D01*
X49154620Y-25715965D01*
X48960035Y-25521380D01*
X48731227Y-25368495D01*
X48659557Y-25338808D01*
X48672523Y-25334136D01*
X48788480Y-25272156D01*
X48855460Y-25032065D01*
X48069500Y-24246105D01*
X48055358Y-24260248D01*
X47875753Y-24080643D01*
X47889895Y-24066500D01*
X47875753Y-24052358D01*
X48055358Y-23872753D01*
X48069500Y-23886895D01*
X48083643Y-23872753D01*
X48263248Y-24052358D01*
X48249105Y-24066500D01*
X49035065Y-24852460D01*
X49275156Y-24785480D01*
X49336579Y-24654856D01*
X49341864Y-24669523D01*
X49403844Y-24785480D01*
X49643935Y-24852460D01*
X50429895Y-24066500D01*
X50415753Y-24052358D01*
X50595358Y-23872753D01*
X50609500Y-23886895D01*
X50623643Y-23872753D01*
X50803248Y-24052358D01*
X50789105Y-24066500D01*
X51575065Y-24852460D01*
X51815156Y-24785480D01*
X51876579Y-24654856D01*
X51881864Y-24669523D01*
X51943844Y-24785480D01*
X52183935Y-24852460D01*
X52969895Y-24066500D01*
X52955753Y-24052358D01*
X53135358Y-23872753D01*
X53149500Y-23886895D01*
X53163643Y-23872753D01*
X53343248Y-24052358D01*
G37*
X53343248Y-24052358D02*
X53329105Y-24066500D01*
X53343248Y-24080643D01*
X53163643Y-24260248D01*
X53149500Y-24246105D01*
X52363540Y-25032065D01*
X52430520Y-25272156D01*
X52566260Y-25335985D01*
X52487773Y-25368495D01*
X52258965Y-25521380D01*
X52064380Y-25715965D01*
X51911495Y-25944773D01*
X51879500Y-26022015D01*
X51847505Y-25944773D01*
X51694620Y-25715965D01*
X51500035Y-25521380D01*
X51271227Y-25368495D01*
X51199557Y-25338808D01*
X51212523Y-25334136D01*
X51328480Y-25272156D01*
X51395460Y-25032065D01*
X50609500Y-24246105D01*
X49823540Y-25032065D01*
X49890520Y-25272156D01*
X50026260Y-25335985D01*
X49947773Y-25368495D01*
X49718965Y-25521380D01*
X49524380Y-25715965D01*
X49371495Y-25944773D01*
X49339500Y-26022015D01*
X49307505Y-25944773D01*
X49154620Y-25715965D01*
X48960035Y-25521380D01*
X48731227Y-25368495D01*
X48659557Y-25338808D01*
X48672523Y-25334136D01*
X48788480Y-25272156D01*
X48855460Y-25032065D01*
X48069500Y-24246105D01*
X48055358Y-24260248D01*
X47875753Y-24080643D01*
X47889895Y-24066500D01*
X47875753Y-24052358D01*
X48055358Y-23872753D01*
X48069500Y-23886895D01*
X48083643Y-23872753D01*
X48263248Y-24052358D01*
X48249105Y-24066500D01*
X49035065Y-24852460D01*
X49275156Y-24785480D01*
X49336579Y-24654856D01*
X49341864Y-24669523D01*
X49403844Y-24785480D01*
X49643935Y-24852460D01*
X50429895Y-24066500D01*
X50415753Y-24052358D01*
X50595358Y-23872753D01*
X50609500Y-23886895D01*
X50623643Y-23872753D01*
X50803248Y-24052358D01*
X50789105Y-24066500D01*
X51575065Y-24852460D01*
X51815156Y-24785480D01*
X51876579Y-24654856D01*
X51881864Y-24669523D01*
X51943844Y-24785480D01*
X52183935Y-24852460D01*
X52969895Y-24066500D01*
X52955753Y-24052358D01*
X53135358Y-23872753D01*
X53149500Y-23886895D01*
X53163643Y-23872753D01*
X53343248Y-24052358D01*
G36*
X43183248Y-24052358D02*
G01*
X43169105Y-24066500D01*
X43183248Y-24080643D01*
X43003643Y-24260248D01*
X42989500Y-24246105D01*
X42975358Y-24260248D01*
X42795753Y-24080643D01*
X42809895Y-24066500D01*
X42795753Y-24052358D01*
X42975358Y-23872753D01*
X42989500Y-23886895D01*
X43003643Y-23872753D01*
X43183248Y-24052358D01*
G37*
X43183248Y-24052358D02*
X43169105Y-24066500D01*
X43183248Y-24080643D01*
X43003643Y-24260248D01*
X42989500Y-24246105D01*
X42975358Y-24260248D01*
X42795753Y-24080643D01*
X42809895Y-24066500D01*
X42795753Y-24052358D01*
X42975358Y-23872753D01*
X42989500Y-23886895D01*
X43003643Y-23872753D01*
X43183248Y-24052358D01*
G36*
X55883248Y-24052358D02*
G01*
X55869105Y-24066500D01*
X55883248Y-24080643D01*
X55703643Y-24260248D01*
X55689500Y-24246105D01*
X55675358Y-24260248D01*
X55495753Y-24080643D01*
X55509895Y-24066500D01*
X55495753Y-24052358D01*
X55675358Y-23872753D01*
X55689500Y-23886895D01*
X55703643Y-23872753D01*
X55883248Y-24052358D01*
G37*
X55883248Y-24052358D02*
X55869105Y-24066500D01*
X55883248Y-24080643D01*
X55703643Y-24260248D01*
X55689500Y-24246105D01*
X55675358Y-24260248D01*
X55495753Y-24080643D01*
X55509895Y-24066500D01*
X55495753Y-24052358D01*
X55675358Y-23872753D01*
X55689500Y-23886895D01*
X55703643Y-23872753D01*
X55883248Y-24052358D01*
G36*
X45723248Y-24052358D02*
G01*
X45709105Y-24066500D01*
X45723248Y-24080643D01*
X45543643Y-24260248D01*
X45529500Y-24246105D01*
X45515358Y-24260248D01*
X45335753Y-24080643D01*
X45349895Y-24066500D01*
X45335753Y-24052358D01*
X45515358Y-23872753D01*
X45529500Y-23886895D01*
X45543643Y-23872753D01*
X45723248Y-24052358D01*
G37*
X45723248Y-24052358D02*
X45709105Y-24066500D01*
X45723248Y-24080643D01*
X45543643Y-24260248D01*
X45529500Y-24246105D01*
X45515358Y-24260248D01*
X45335753Y-24080643D01*
X45349895Y-24066500D01*
X45335753Y-24052358D01*
X45515358Y-23872753D01*
X45529500Y-23886895D01*
X45543643Y-23872753D01*
X45723248Y-24052358D01*
G36*
X40643248Y-24052358D02*
G01*
X40629105Y-24066500D01*
X40643248Y-24080643D01*
X40463643Y-24260248D01*
X40449500Y-24246105D01*
X40435358Y-24260248D01*
X40255753Y-24080643D01*
X40269895Y-24066500D01*
X40255753Y-24052358D01*
X40435358Y-23872753D01*
X40449500Y-23886895D01*
X40463643Y-23872753D01*
X40643248Y-24052358D01*
G37*
X40643248Y-24052358D02*
X40629105Y-24066500D01*
X40643248Y-24080643D01*
X40463643Y-24260248D01*
X40449500Y-24246105D01*
X40435358Y-24260248D01*
X40255753Y-24080643D01*
X40269895Y-24066500D01*
X40255753Y-24052358D01*
X40435358Y-23872753D01*
X40449500Y-23886895D01*
X40463643Y-23872753D01*
X40643248Y-24052358D01*
G36*
X38103248Y-24052358D02*
G01*
X38089105Y-24066500D01*
X38103248Y-24080643D01*
X37923643Y-24260248D01*
X37909500Y-24246105D01*
X37895358Y-24260248D01*
X37715753Y-24080643D01*
X37729895Y-24066500D01*
X37715753Y-24052358D01*
X37895358Y-23872753D01*
X37909500Y-23886895D01*
X37923643Y-23872753D01*
X38103248Y-24052358D01*
G37*
X38103248Y-24052358D02*
X38089105Y-24066500D01*
X38103248Y-24080643D01*
X37923643Y-24260248D01*
X37909500Y-24246105D01*
X37895358Y-24260248D01*
X37715753Y-24080643D01*
X37729895Y-24066500D01*
X37715753Y-24052358D01*
X37895358Y-23872753D01*
X37909500Y-23886895D01*
X37923643Y-23872753D01*
X38103248Y-24052358D01*
M02*
