G04 #@! TF.GenerationSoftware,KiCad,Pcbnew,(5.1.5-0-10_14)*
G04 #@! TF.CreationDate,2020-03-21T13:08:25+11:00*
G04 #@! TF.ProjectId,Internal Gotek Adpater,496e7465-726e-4616-9c20-476f74656b20,rev?*
G04 #@! TF.SameCoordinates,Original*
G04 #@! TF.FileFunction,Copper,L1,Top*
G04 #@! TF.FilePolarity,Positive*
%FSLAX46Y46*%
G04 Gerber Fmt 4.6, Leading zero omitted, Abs format (unit mm)*
G04 Created by KiCad (PCBNEW (5.1.5-0-10_14)) date 2020-03-21 13:08:25*
%MOMM*%
%LPD*%
G04 APERTURE LIST*
%ADD10C,1.524000*%
%ADD11R,1.524000X1.524000*%
%ADD12O,1.700000X1.700000*%
%ADD13R,1.700000X1.700000*%
%ADD14C,0.800000*%
%ADD15C,0.250000*%
%ADD16C,0.400000*%
%ADD17C,0.254000*%
G04 APERTURE END LIST*
D10*
X30289500Y-26606500D03*
X30289500Y-24066500D03*
X32829500Y-26606500D03*
X32829500Y-24066500D03*
X35369500Y-26606500D03*
X35369500Y-24066500D03*
X37909500Y-26606500D03*
X37909500Y-24066500D03*
X42989500Y-26606500D03*
X42989500Y-24066500D03*
X45529500Y-26606500D03*
X45529500Y-24066500D03*
D11*
X70929500Y-24066500D03*
D10*
X68389500Y-24066500D03*
X65849500Y-24066500D03*
X63309500Y-24066500D03*
X60769500Y-24066500D03*
X58229500Y-24066500D03*
X55689500Y-24066500D03*
X53149500Y-24066500D03*
X50609500Y-24066500D03*
X48069500Y-24066500D03*
X48069500Y-26606500D03*
X50609500Y-26606500D03*
X53149500Y-26606500D03*
X55689500Y-26606500D03*
X58229500Y-26606500D03*
X60769500Y-26606500D03*
X63309500Y-26606500D03*
X65849500Y-26606500D03*
X68389500Y-26606500D03*
X70929500Y-26606500D03*
X40449500Y-24066500D03*
X40449500Y-26606500D03*
X42418000Y-32131000D03*
X42418000Y-34671000D03*
X72898000Y-32131000D03*
X70358000Y-32131000D03*
X67818000Y-32131000D03*
X65278000Y-32131000D03*
X62738000Y-32131000D03*
X60198000Y-32131000D03*
X57658000Y-32131000D03*
X55118000Y-32131000D03*
X52578000Y-32131000D03*
X50038000Y-32131000D03*
X50038000Y-34671000D03*
X52578000Y-34671000D03*
X55118000Y-34671000D03*
X57658000Y-34671000D03*
X60198000Y-34671000D03*
X62738000Y-34671000D03*
X65278000Y-34671000D03*
X67818000Y-34671000D03*
X70358000Y-34671000D03*
X72898000Y-34671000D03*
X47498000Y-34671000D03*
X47498000Y-32131000D03*
X44958000Y-34671000D03*
X44958000Y-32131000D03*
X39878000Y-34671000D03*
X39878000Y-32131000D03*
X37338000Y-34671000D03*
X37338000Y-32131000D03*
X34798000Y-34671000D03*
X34798000Y-32131000D03*
D11*
X32258000Y-34671000D03*
D10*
X32258000Y-32131000D03*
D12*
X17462500Y-33401000D03*
X20002500Y-33401000D03*
X22542500Y-33401000D03*
D13*
X25082500Y-33401000D03*
D14*
X35941000Y-36195000D03*
X67310000Y-36195000D03*
X36576000Y-37338000D03*
X67437000Y-37338000D03*
D15*
X35941000Y-36195000D02*
X67310000Y-36195000D01*
D16*
X20002500Y-33401000D02*
X22542500Y-33401000D01*
X32258000Y-34671000D02*
X72898000Y-34671000D01*
X31750000Y-35179000D02*
X32258000Y-34671000D01*
X24320500Y-35179000D02*
X31750000Y-35179000D01*
X22542500Y-33401000D02*
X24320500Y-35179000D01*
X55689500Y-24066500D02*
X37909500Y-24066500D01*
X29845000Y-34671000D02*
X32258000Y-34671000D01*
X37909500Y-24066500D02*
X35687000Y-21844000D01*
X26035000Y-30861000D02*
X29845000Y-34671000D01*
X26035000Y-25400000D02*
X26035000Y-30861000D01*
X35687000Y-21844000D02*
X29591000Y-21844000D01*
X29591000Y-21844000D02*
X26035000Y-25400000D01*
X65849500Y-24066500D02*
X58229500Y-24066500D01*
X25082500Y-25082500D02*
X25082500Y-33401000D01*
X29210000Y-20955000D02*
X25082500Y-25082500D01*
X55118000Y-20955000D02*
X29210000Y-20955000D01*
X58229500Y-24066500D02*
X55118000Y-20955000D01*
D15*
X50609500Y-30162500D02*
X52578000Y-32131000D01*
X50609500Y-26606500D02*
X50609500Y-30162500D01*
X36576000Y-37338000D02*
X67437000Y-37338000D01*
D17*
G36*
X24521079Y-24463054D02*
G01*
X24489209Y-24489209D01*
X24384865Y-24616354D01*
X24384864Y-24616355D01*
X24307328Y-24761414D01*
X24259582Y-24918812D01*
X24243460Y-25082500D01*
X24247500Y-25123519D01*
X24247501Y-31912928D01*
X24232500Y-31912928D01*
X24108018Y-31925188D01*
X23988320Y-31961498D01*
X23878006Y-32020463D01*
X23781315Y-32099815D01*
X23701963Y-32196506D01*
X23642998Y-32306820D01*
X23618534Y-32387466D01*
X23542769Y-32303412D01*
X23309420Y-32129359D01*
X23046599Y-32004175D01*
X22899390Y-31959524D01*
X22669500Y-32080845D01*
X22669500Y-33274000D01*
X22689500Y-33274000D01*
X22689500Y-33528000D01*
X22669500Y-33528000D01*
X22669500Y-34721155D01*
X22899390Y-34842476D01*
X23046599Y-34797825D01*
X23309420Y-34672641D01*
X23542769Y-34498588D01*
X23618534Y-34414534D01*
X23642998Y-34495180D01*
X23701963Y-34605494D01*
X23781315Y-34702185D01*
X23878006Y-34781537D01*
X23988320Y-34840502D01*
X24108018Y-34876812D01*
X24232500Y-34889072D01*
X25932500Y-34889072D01*
X26056982Y-34876812D01*
X26176680Y-34840502D01*
X26286994Y-34781537D01*
X26383685Y-34702185D01*
X26463037Y-34605494D01*
X26522002Y-34495180D01*
X26558312Y-34375482D01*
X26570572Y-34251000D01*
X26570572Y-32551000D01*
X26558312Y-32426518D01*
X26522002Y-32306820D01*
X26463037Y-32196506D01*
X26383685Y-32099815D01*
X26286994Y-32020463D01*
X26176680Y-31961498D01*
X26056982Y-31925188D01*
X25932500Y-31912928D01*
X25917500Y-31912928D01*
X25917500Y-25428367D01*
X29555868Y-21790000D01*
X54772133Y-21790000D01*
X55648161Y-22666028D01*
X55617483Y-22664590D01*
X55345367Y-22705578D01*
X55086477Y-22798864D01*
X54970520Y-22860844D01*
X54903540Y-23100935D01*
X55689500Y-23886895D01*
X55703643Y-23872753D01*
X55883248Y-24052358D01*
X55869105Y-24066500D01*
X56655065Y-24852460D01*
X56895156Y-24785480D01*
X56958985Y-24649740D01*
X56991495Y-24728227D01*
X57144380Y-24957035D01*
X57338965Y-25151620D01*
X57567773Y-25304505D01*
X57645015Y-25336500D01*
X57567773Y-25368495D01*
X57338965Y-25521380D01*
X57144380Y-25715965D01*
X56991495Y-25944773D01*
X56959500Y-26022015D01*
X56927505Y-25944773D01*
X56774620Y-25715965D01*
X56580035Y-25521380D01*
X56351227Y-25368495D01*
X56279557Y-25338808D01*
X56292523Y-25334136D01*
X56408480Y-25272156D01*
X56475460Y-25032065D01*
X55689500Y-24246105D01*
X54903540Y-25032065D01*
X54970520Y-25272156D01*
X55106260Y-25335985D01*
X55027773Y-25368495D01*
X54798965Y-25521380D01*
X54604380Y-25715965D01*
X54451495Y-25944773D01*
X54419500Y-26022015D01*
X54387505Y-25944773D01*
X54234620Y-25715965D01*
X54040035Y-25521380D01*
X53811227Y-25368495D01*
X53739557Y-25338808D01*
X53752523Y-25334136D01*
X53868480Y-25272156D01*
X53935460Y-25032065D01*
X53149500Y-24246105D01*
X52363540Y-25032065D01*
X52430520Y-25272156D01*
X52566260Y-25335985D01*
X52487773Y-25368495D01*
X52258965Y-25521380D01*
X52064380Y-25715965D01*
X51911495Y-25944773D01*
X51879500Y-26022015D01*
X51847505Y-25944773D01*
X51694620Y-25715965D01*
X51500035Y-25521380D01*
X51271227Y-25368495D01*
X51199557Y-25338808D01*
X51212523Y-25334136D01*
X51328480Y-25272156D01*
X51395460Y-25032065D01*
X50609500Y-24246105D01*
X49823540Y-25032065D01*
X49890520Y-25272156D01*
X50026260Y-25335985D01*
X49947773Y-25368495D01*
X49718965Y-25521380D01*
X49524380Y-25715965D01*
X49371495Y-25944773D01*
X49339500Y-26022015D01*
X49307505Y-25944773D01*
X49154620Y-25715965D01*
X48960035Y-25521380D01*
X48731227Y-25368495D01*
X48659557Y-25338808D01*
X48672523Y-25334136D01*
X48788480Y-25272156D01*
X48855460Y-25032065D01*
X48069500Y-24246105D01*
X47283540Y-25032065D01*
X47350520Y-25272156D01*
X47486260Y-25335985D01*
X47407773Y-25368495D01*
X47178965Y-25521380D01*
X46984380Y-25715965D01*
X46831495Y-25944773D01*
X46799500Y-26022015D01*
X46767505Y-25944773D01*
X46614620Y-25715965D01*
X46420035Y-25521380D01*
X46191227Y-25368495D01*
X46119557Y-25338808D01*
X46132523Y-25334136D01*
X46248480Y-25272156D01*
X46315460Y-25032065D01*
X45529500Y-24246105D01*
X44743540Y-25032065D01*
X44810520Y-25272156D01*
X44946260Y-25335985D01*
X44867773Y-25368495D01*
X44638965Y-25521380D01*
X44444380Y-25715965D01*
X44291495Y-25944773D01*
X44259500Y-26022015D01*
X44227505Y-25944773D01*
X44074620Y-25715965D01*
X43880035Y-25521380D01*
X43651227Y-25368495D01*
X43579557Y-25338808D01*
X43592523Y-25334136D01*
X43708480Y-25272156D01*
X43775460Y-25032065D01*
X42989500Y-24246105D01*
X42203540Y-25032065D01*
X42270520Y-25272156D01*
X42406260Y-25335985D01*
X42327773Y-25368495D01*
X42098965Y-25521380D01*
X41904380Y-25715965D01*
X41751495Y-25944773D01*
X41719500Y-26022015D01*
X41687505Y-25944773D01*
X41534620Y-25715965D01*
X41340035Y-25521380D01*
X41111227Y-25368495D01*
X41039557Y-25338808D01*
X41052523Y-25334136D01*
X41168480Y-25272156D01*
X41235460Y-25032065D01*
X40449500Y-24246105D01*
X39663540Y-25032065D01*
X39730520Y-25272156D01*
X39866260Y-25335985D01*
X39787773Y-25368495D01*
X39558965Y-25521380D01*
X39364380Y-25715965D01*
X39211495Y-25944773D01*
X39179500Y-26022015D01*
X39147505Y-25944773D01*
X38994620Y-25715965D01*
X38800035Y-25521380D01*
X38571227Y-25368495D01*
X38499557Y-25338808D01*
X38512523Y-25334136D01*
X38628480Y-25272156D01*
X38695460Y-25032065D01*
X37909500Y-24246105D01*
X37123540Y-25032065D01*
X37190520Y-25272156D01*
X37326260Y-25335985D01*
X37247773Y-25368495D01*
X37018965Y-25521380D01*
X36824380Y-25715965D01*
X36671495Y-25944773D01*
X36639500Y-26022015D01*
X36607505Y-25944773D01*
X36454620Y-25715965D01*
X36260035Y-25521380D01*
X36031227Y-25368495D01*
X35953985Y-25336500D01*
X36031227Y-25304505D01*
X36260035Y-25151620D01*
X36454620Y-24957035D01*
X36607505Y-24728227D01*
X36637192Y-24656557D01*
X36641864Y-24669523D01*
X36703844Y-24785480D01*
X36943935Y-24852460D01*
X37729895Y-24066500D01*
X38089105Y-24066500D01*
X38875065Y-24852460D01*
X39115156Y-24785480D01*
X39176579Y-24654856D01*
X39181864Y-24669523D01*
X39243844Y-24785480D01*
X39483935Y-24852460D01*
X40269895Y-24066500D01*
X40629105Y-24066500D01*
X41415065Y-24852460D01*
X41655156Y-24785480D01*
X41716579Y-24654856D01*
X41721864Y-24669523D01*
X41783844Y-24785480D01*
X42023935Y-24852460D01*
X42809895Y-24066500D01*
X43169105Y-24066500D01*
X43955065Y-24852460D01*
X44195156Y-24785480D01*
X44256579Y-24654856D01*
X44261864Y-24669523D01*
X44323844Y-24785480D01*
X44563935Y-24852460D01*
X45349895Y-24066500D01*
X45709105Y-24066500D01*
X46495065Y-24852460D01*
X46735156Y-24785480D01*
X46796579Y-24654856D01*
X46801864Y-24669523D01*
X46863844Y-24785480D01*
X47103935Y-24852460D01*
X47889895Y-24066500D01*
X48249105Y-24066500D01*
X49035065Y-24852460D01*
X49275156Y-24785480D01*
X49336579Y-24654856D01*
X49341864Y-24669523D01*
X49403844Y-24785480D01*
X49643935Y-24852460D01*
X50429895Y-24066500D01*
X50789105Y-24066500D01*
X51575065Y-24852460D01*
X51815156Y-24785480D01*
X51876579Y-24654856D01*
X51881864Y-24669523D01*
X51943844Y-24785480D01*
X52183935Y-24852460D01*
X52969895Y-24066500D01*
X53329105Y-24066500D01*
X54115065Y-24852460D01*
X54355156Y-24785480D01*
X54416579Y-24654856D01*
X54421864Y-24669523D01*
X54483844Y-24785480D01*
X54723935Y-24852460D01*
X55509895Y-24066500D01*
X54723935Y-23280540D01*
X54483844Y-23347520D01*
X54422421Y-23478144D01*
X54417136Y-23463477D01*
X54355156Y-23347520D01*
X54115065Y-23280540D01*
X53329105Y-24066500D01*
X52969895Y-24066500D01*
X52183935Y-23280540D01*
X51943844Y-23347520D01*
X51882421Y-23478144D01*
X51877136Y-23463477D01*
X51815156Y-23347520D01*
X51575065Y-23280540D01*
X50789105Y-24066500D01*
X50429895Y-24066500D01*
X49643935Y-23280540D01*
X49403844Y-23347520D01*
X49342421Y-23478144D01*
X49337136Y-23463477D01*
X49275156Y-23347520D01*
X49035065Y-23280540D01*
X48249105Y-24066500D01*
X47889895Y-24066500D01*
X47103935Y-23280540D01*
X46863844Y-23347520D01*
X46802421Y-23478144D01*
X46797136Y-23463477D01*
X46735156Y-23347520D01*
X46495065Y-23280540D01*
X45709105Y-24066500D01*
X45349895Y-24066500D01*
X44563935Y-23280540D01*
X44323844Y-23347520D01*
X44262421Y-23478144D01*
X44257136Y-23463477D01*
X44195156Y-23347520D01*
X43955065Y-23280540D01*
X43169105Y-24066500D01*
X42809895Y-24066500D01*
X42023935Y-23280540D01*
X41783844Y-23347520D01*
X41722421Y-23478144D01*
X41717136Y-23463477D01*
X41655156Y-23347520D01*
X41415065Y-23280540D01*
X40629105Y-24066500D01*
X40269895Y-24066500D01*
X39483935Y-23280540D01*
X39243844Y-23347520D01*
X39182421Y-23478144D01*
X39177136Y-23463477D01*
X39115156Y-23347520D01*
X38875065Y-23280540D01*
X38089105Y-24066500D01*
X37729895Y-24066500D01*
X36943935Y-23280540D01*
X36703844Y-23347520D01*
X36640015Y-23483260D01*
X36607505Y-23404773D01*
X36454620Y-23175965D01*
X36379590Y-23100935D01*
X37123540Y-23100935D01*
X37909500Y-23886895D01*
X38695460Y-23100935D01*
X39663540Y-23100935D01*
X40449500Y-23886895D01*
X41235460Y-23100935D01*
X42203540Y-23100935D01*
X42989500Y-23886895D01*
X43775460Y-23100935D01*
X44743540Y-23100935D01*
X45529500Y-23886895D01*
X46315460Y-23100935D01*
X47283540Y-23100935D01*
X48069500Y-23886895D01*
X48855460Y-23100935D01*
X49823540Y-23100935D01*
X50609500Y-23886895D01*
X51395460Y-23100935D01*
X52363540Y-23100935D01*
X53149500Y-23886895D01*
X53935460Y-23100935D01*
X53868480Y-22860844D01*
X53619452Y-22743744D01*
X53352365Y-22677477D01*
X53077483Y-22664590D01*
X52805367Y-22705578D01*
X52546477Y-22798864D01*
X52430520Y-22860844D01*
X52363540Y-23100935D01*
X51395460Y-23100935D01*
X51328480Y-22860844D01*
X51079452Y-22743744D01*
X50812365Y-22677477D01*
X50537483Y-22664590D01*
X50265367Y-22705578D01*
X50006477Y-22798864D01*
X49890520Y-22860844D01*
X49823540Y-23100935D01*
X48855460Y-23100935D01*
X48788480Y-22860844D01*
X48539452Y-22743744D01*
X48272365Y-22677477D01*
X47997483Y-22664590D01*
X47725367Y-22705578D01*
X47466477Y-22798864D01*
X47350520Y-22860844D01*
X47283540Y-23100935D01*
X46315460Y-23100935D01*
X46248480Y-22860844D01*
X45999452Y-22743744D01*
X45732365Y-22677477D01*
X45457483Y-22664590D01*
X45185367Y-22705578D01*
X44926477Y-22798864D01*
X44810520Y-22860844D01*
X44743540Y-23100935D01*
X43775460Y-23100935D01*
X43708480Y-22860844D01*
X43459452Y-22743744D01*
X43192365Y-22677477D01*
X42917483Y-22664590D01*
X42645367Y-22705578D01*
X42386477Y-22798864D01*
X42270520Y-22860844D01*
X42203540Y-23100935D01*
X41235460Y-23100935D01*
X41168480Y-22860844D01*
X40919452Y-22743744D01*
X40652365Y-22677477D01*
X40377483Y-22664590D01*
X40105367Y-22705578D01*
X39846477Y-22798864D01*
X39730520Y-22860844D01*
X39663540Y-23100935D01*
X38695460Y-23100935D01*
X38628480Y-22860844D01*
X38379452Y-22743744D01*
X38112365Y-22677477D01*
X37837483Y-22664590D01*
X37565367Y-22705578D01*
X37306477Y-22798864D01*
X37190520Y-22860844D01*
X37123540Y-23100935D01*
X36379590Y-23100935D01*
X36260035Y-22981380D01*
X36031227Y-22828495D01*
X35776990Y-22723186D01*
X35507092Y-22669500D01*
X35231908Y-22669500D01*
X34962010Y-22723186D01*
X34707773Y-22828495D01*
X34478965Y-22981380D01*
X34284380Y-23175965D01*
X34131495Y-23404773D01*
X34099500Y-23482015D01*
X34067505Y-23404773D01*
X33914620Y-23175965D01*
X33720035Y-22981380D01*
X33491227Y-22828495D01*
X33236990Y-22723186D01*
X32967092Y-22669500D01*
X32691908Y-22669500D01*
X32422010Y-22723186D01*
X32167773Y-22828495D01*
X31938965Y-22981380D01*
X31744380Y-23175965D01*
X31591495Y-23404773D01*
X31559500Y-23482015D01*
X31527505Y-23404773D01*
X31374620Y-23175965D01*
X31180035Y-22981380D01*
X30951227Y-22828495D01*
X30696990Y-22723186D01*
X30427092Y-22669500D01*
X30151908Y-22669500D01*
X29882010Y-22723186D01*
X29627773Y-22828495D01*
X29398965Y-22981380D01*
X29204380Y-23175965D01*
X29051495Y-23404773D01*
X28946186Y-23659010D01*
X28892500Y-23928908D01*
X28892500Y-24204092D01*
X28946186Y-24473990D01*
X29051495Y-24728227D01*
X29204380Y-24957035D01*
X29398965Y-25151620D01*
X29627773Y-25304505D01*
X29705015Y-25336500D01*
X29627773Y-25368495D01*
X29398965Y-25521380D01*
X29204380Y-25715965D01*
X29051495Y-25944773D01*
X28946186Y-26199010D01*
X28892500Y-26468908D01*
X28892500Y-26744092D01*
X28946186Y-27013990D01*
X29051495Y-27268227D01*
X29204380Y-27497035D01*
X29398965Y-27691620D01*
X29627773Y-27844505D01*
X29882010Y-27949814D01*
X30151908Y-28003500D01*
X30427092Y-28003500D01*
X30696990Y-27949814D01*
X30951227Y-27844505D01*
X31180035Y-27691620D01*
X31374620Y-27497035D01*
X31527505Y-27268227D01*
X31559500Y-27190985D01*
X31591495Y-27268227D01*
X31744380Y-27497035D01*
X31938965Y-27691620D01*
X32167773Y-27844505D01*
X32422010Y-27949814D01*
X32691908Y-28003500D01*
X32967092Y-28003500D01*
X33236990Y-27949814D01*
X33491227Y-27844505D01*
X33720035Y-27691620D01*
X33914620Y-27497035D01*
X34067505Y-27268227D01*
X34099500Y-27190985D01*
X34131495Y-27268227D01*
X34284380Y-27497035D01*
X34478965Y-27691620D01*
X34707773Y-27844505D01*
X34962010Y-27949814D01*
X35231908Y-28003500D01*
X35507092Y-28003500D01*
X35776990Y-27949814D01*
X36031227Y-27844505D01*
X36260035Y-27691620D01*
X36454620Y-27497035D01*
X36607505Y-27268227D01*
X36639500Y-27190985D01*
X36671495Y-27268227D01*
X36824380Y-27497035D01*
X37018965Y-27691620D01*
X37247773Y-27844505D01*
X37502010Y-27949814D01*
X37771908Y-28003500D01*
X38047092Y-28003500D01*
X38316990Y-27949814D01*
X38571227Y-27844505D01*
X38800035Y-27691620D01*
X38994620Y-27497035D01*
X39147505Y-27268227D01*
X39179500Y-27190985D01*
X39211495Y-27268227D01*
X39364380Y-27497035D01*
X39558965Y-27691620D01*
X39787773Y-27844505D01*
X40042010Y-27949814D01*
X40311908Y-28003500D01*
X40587092Y-28003500D01*
X40856990Y-27949814D01*
X41111227Y-27844505D01*
X41340035Y-27691620D01*
X41534620Y-27497035D01*
X41687505Y-27268227D01*
X41719500Y-27190985D01*
X41751495Y-27268227D01*
X41904380Y-27497035D01*
X42098965Y-27691620D01*
X42327773Y-27844505D01*
X42582010Y-27949814D01*
X42851908Y-28003500D01*
X43127092Y-28003500D01*
X43396990Y-27949814D01*
X43651227Y-27844505D01*
X43880035Y-27691620D01*
X44074620Y-27497035D01*
X44227505Y-27268227D01*
X44259500Y-27190985D01*
X44291495Y-27268227D01*
X44444380Y-27497035D01*
X44638965Y-27691620D01*
X44867773Y-27844505D01*
X45122010Y-27949814D01*
X45391908Y-28003500D01*
X45667092Y-28003500D01*
X45936990Y-27949814D01*
X46191227Y-27844505D01*
X46420035Y-27691620D01*
X46614620Y-27497035D01*
X46767505Y-27268227D01*
X46799500Y-27190985D01*
X46831495Y-27268227D01*
X46984380Y-27497035D01*
X47178965Y-27691620D01*
X47407773Y-27844505D01*
X47662010Y-27949814D01*
X47931908Y-28003500D01*
X48207092Y-28003500D01*
X48476990Y-27949814D01*
X48731227Y-27844505D01*
X48960035Y-27691620D01*
X49154620Y-27497035D01*
X49307505Y-27268227D01*
X49339500Y-27190985D01*
X49371495Y-27268227D01*
X49524380Y-27497035D01*
X49718965Y-27691620D01*
X49849500Y-27778841D01*
X49849501Y-30125168D01*
X49845824Y-30162500D01*
X49860498Y-30311485D01*
X49903954Y-30454746D01*
X49974526Y-30586776D01*
X50045701Y-30673502D01*
X50069500Y-30702501D01*
X50098498Y-30726299D01*
X50106199Y-30734000D01*
X49900408Y-30734000D01*
X49630510Y-30787686D01*
X49376273Y-30892995D01*
X49147465Y-31045880D01*
X48952880Y-31240465D01*
X48799995Y-31469273D01*
X48768000Y-31546515D01*
X48736005Y-31469273D01*
X48583120Y-31240465D01*
X48388535Y-31045880D01*
X48159727Y-30892995D01*
X47905490Y-30787686D01*
X47635592Y-30734000D01*
X47360408Y-30734000D01*
X47090510Y-30787686D01*
X46836273Y-30892995D01*
X46607465Y-31045880D01*
X46412880Y-31240465D01*
X46259995Y-31469273D01*
X46228000Y-31546515D01*
X46196005Y-31469273D01*
X46043120Y-31240465D01*
X45848535Y-31045880D01*
X45619727Y-30892995D01*
X45365490Y-30787686D01*
X45095592Y-30734000D01*
X44820408Y-30734000D01*
X44550510Y-30787686D01*
X44296273Y-30892995D01*
X44067465Y-31045880D01*
X43872880Y-31240465D01*
X43719995Y-31469273D01*
X43688000Y-31546515D01*
X43656005Y-31469273D01*
X43503120Y-31240465D01*
X43308535Y-31045880D01*
X43079727Y-30892995D01*
X42825490Y-30787686D01*
X42555592Y-30734000D01*
X42280408Y-30734000D01*
X42010510Y-30787686D01*
X41756273Y-30892995D01*
X41527465Y-31045880D01*
X41332880Y-31240465D01*
X41179995Y-31469273D01*
X41148000Y-31546515D01*
X41116005Y-31469273D01*
X40963120Y-31240465D01*
X40768535Y-31045880D01*
X40539727Y-30892995D01*
X40285490Y-30787686D01*
X40015592Y-30734000D01*
X39740408Y-30734000D01*
X39470510Y-30787686D01*
X39216273Y-30892995D01*
X38987465Y-31045880D01*
X38792880Y-31240465D01*
X38639995Y-31469273D01*
X38608000Y-31546515D01*
X38576005Y-31469273D01*
X38423120Y-31240465D01*
X38228535Y-31045880D01*
X37999727Y-30892995D01*
X37745490Y-30787686D01*
X37475592Y-30734000D01*
X37200408Y-30734000D01*
X36930510Y-30787686D01*
X36676273Y-30892995D01*
X36447465Y-31045880D01*
X36252880Y-31240465D01*
X36099995Y-31469273D01*
X36068000Y-31546515D01*
X36036005Y-31469273D01*
X35883120Y-31240465D01*
X35688535Y-31045880D01*
X35459727Y-30892995D01*
X35205490Y-30787686D01*
X34935592Y-30734000D01*
X34660408Y-30734000D01*
X34390510Y-30787686D01*
X34136273Y-30892995D01*
X33907465Y-31045880D01*
X33712880Y-31240465D01*
X33559995Y-31469273D01*
X33528000Y-31546515D01*
X33496005Y-31469273D01*
X33343120Y-31240465D01*
X33148535Y-31045880D01*
X32919727Y-30892995D01*
X32665490Y-30787686D01*
X32395592Y-30734000D01*
X32120408Y-30734000D01*
X31850510Y-30787686D01*
X31596273Y-30892995D01*
X31367465Y-31045880D01*
X31172880Y-31240465D01*
X31019995Y-31469273D01*
X30914686Y-31723510D01*
X30861000Y-31993408D01*
X30861000Y-32268592D01*
X30914686Y-32538490D01*
X31019995Y-32792727D01*
X31172880Y-33021535D01*
X31367465Y-33216120D01*
X31455465Y-33274920D01*
X31371518Y-33283188D01*
X31251820Y-33319498D01*
X31141506Y-33378463D01*
X31044815Y-33457815D01*
X30965463Y-33554506D01*
X30906498Y-33664820D01*
X30870188Y-33784518D01*
X30857928Y-33909000D01*
X30861000Y-34385250D01*
X31019750Y-34544000D01*
X32131000Y-34544000D01*
X32131000Y-34524000D01*
X32385000Y-34524000D01*
X32385000Y-34544000D01*
X32405000Y-34544000D01*
X32405000Y-34798000D01*
X32385000Y-34798000D01*
X32385000Y-35909250D01*
X32543750Y-36068000D01*
X33020000Y-36071072D01*
X33144482Y-36058812D01*
X33264180Y-36022502D01*
X33374494Y-35963537D01*
X33471185Y-35884185D01*
X33550537Y-35787494D01*
X33609502Y-35677180D01*
X33645812Y-35557482D01*
X33658072Y-35433000D01*
X33657912Y-35408272D01*
X33832435Y-35456960D01*
X34618395Y-34671000D01*
X33832435Y-33885040D01*
X33657912Y-33933728D01*
X33658072Y-33909000D01*
X33645812Y-33784518D01*
X33609502Y-33664820D01*
X33550537Y-33554506D01*
X33471185Y-33457815D01*
X33374494Y-33378463D01*
X33264180Y-33319498D01*
X33144482Y-33283188D01*
X33060535Y-33274920D01*
X33148535Y-33216120D01*
X33343120Y-33021535D01*
X33496005Y-32792727D01*
X33528000Y-32715485D01*
X33559995Y-32792727D01*
X33712880Y-33021535D01*
X33907465Y-33216120D01*
X34136273Y-33369005D01*
X34207943Y-33398692D01*
X34194977Y-33403364D01*
X34079020Y-33465344D01*
X34012040Y-33705435D01*
X34798000Y-34491395D01*
X35583960Y-33705435D01*
X35516980Y-33465344D01*
X35381240Y-33401515D01*
X35459727Y-33369005D01*
X35688535Y-33216120D01*
X35883120Y-33021535D01*
X36036005Y-32792727D01*
X36068000Y-32715485D01*
X36099995Y-32792727D01*
X36252880Y-33021535D01*
X36447465Y-33216120D01*
X36676273Y-33369005D01*
X36747943Y-33398692D01*
X36734977Y-33403364D01*
X36619020Y-33465344D01*
X36552040Y-33705435D01*
X37338000Y-34491395D01*
X38123960Y-33705435D01*
X38056980Y-33465344D01*
X37921240Y-33401515D01*
X37999727Y-33369005D01*
X38228535Y-33216120D01*
X38423120Y-33021535D01*
X38576005Y-32792727D01*
X38608000Y-32715485D01*
X38639995Y-32792727D01*
X38792880Y-33021535D01*
X38987465Y-33216120D01*
X39216273Y-33369005D01*
X39287943Y-33398692D01*
X39274977Y-33403364D01*
X39159020Y-33465344D01*
X39092040Y-33705435D01*
X39878000Y-34491395D01*
X40663960Y-33705435D01*
X40596980Y-33465344D01*
X40461240Y-33401515D01*
X40539727Y-33369005D01*
X40768535Y-33216120D01*
X40963120Y-33021535D01*
X41116005Y-32792727D01*
X41148000Y-32715485D01*
X41179995Y-32792727D01*
X41332880Y-33021535D01*
X41527465Y-33216120D01*
X41756273Y-33369005D01*
X41827943Y-33398692D01*
X41814977Y-33403364D01*
X41699020Y-33465344D01*
X41632040Y-33705435D01*
X42418000Y-34491395D01*
X43203960Y-33705435D01*
X43136980Y-33465344D01*
X43001240Y-33401515D01*
X43079727Y-33369005D01*
X43308535Y-33216120D01*
X43503120Y-33021535D01*
X43656005Y-32792727D01*
X43688000Y-32715485D01*
X43719995Y-32792727D01*
X43872880Y-33021535D01*
X44067465Y-33216120D01*
X44296273Y-33369005D01*
X44367943Y-33398692D01*
X44354977Y-33403364D01*
X44239020Y-33465344D01*
X44172040Y-33705435D01*
X44958000Y-34491395D01*
X45743960Y-33705435D01*
X45676980Y-33465344D01*
X45541240Y-33401515D01*
X45619727Y-33369005D01*
X45848535Y-33216120D01*
X46043120Y-33021535D01*
X46196005Y-32792727D01*
X46228000Y-32715485D01*
X46259995Y-32792727D01*
X46412880Y-33021535D01*
X46607465Y-33216120D01*
X46836273Y-33369005D01*
X46907943Y-33398692D01*
X46894977Y-33403364D01*
X46779020Y-33465344D01*
X46712040Y-33705435D01*
X47498000Y-34491395D01*
X48283960Y-33705435D01*
X48216980Y-33465344D01*
X48081240Y-33401515D01*
X48159727Y-33369005D01*
X48388535Y-33216120D01*
X48583120Y-33021535D01*
X48736005Y-32792727D01*
X48768000Y-32715485D01*
X48799995Y-32792727D01*
X48952880Y-33021535D01*
X49147465Y-33216120D01*
X49376273Y-33369005D01*
X49447943Y-33398692D01*
X49434977Y-33403364D01*
X49319020Y-33465344D01*
X49252040Y-33705435D01*
X50038000Y-34491395D01*
X50823960Y-33705435D01*
X50756980Y-33465344D01*
X50621240Y-33401515D01*
X50699727Y-33369005D01*
X50928535Y-33216120D01*
X51123120Y-33021535D01*
X51276005Y-32792727D01*
X51308000Y-32715485D01*
X51339995Y-32792727D01*
X51492880Y-33021535D01*
X51687465Y-33216120D01*
X51916273Y-33369005D01*
X51987943Y-33398692D01*
X51974977Y-33403364D01*
X51859020Y-33465344D01*
X51792040Y-33705435D01*
X52578000Y-34491395D01*
X53363960Y-33705435D01*
X53296980Y-33465344D01*
X53161240Y-33401515D01*
X53239727Y-33369005D01*
X53468535Y-33216120D01*
X53663120Y-33021535D01*
X53816005Y-32792727D01*
X53848000Y-32715485D01*
X53879995Y-32792727D01*
X54032880Y-33021535D01*
X54227465Y-33216120D01*
X54456273Y-33369005D01*
X54527943Y-33398692D01*
X54514977Y-33403364D01*
X54399020Y-33465344D01*
X54332040Y-33705435D01*
X55118000Y-34491395D01*
X55903960Y-33705435D01*
X55836980Y-33465344D01*
X55701240Y-33401515D01*
X55779727Y-33369005D01*
X56008535Y-33216120D01*
X56203120Y-33021535D01*
X56356005Y-32792727D01*
X56388000Y-32715485D01*
X56419995Y-32792727D01*
X56572880Y-33021535D01*
X56767465Y-33216120D01*
X56996273Y-33369005D01*
X57067943Y-33398692D01*
X57054977Y-33403364D01*
X56939020Y-33465344D01*
X56872040Y-33705435D01*
X57658000Y-34491395D01*
X58443960Y-33705435D01*
X58376980Y-33465344D01*
X58241240Y-33401515D01*
X58319727Y-33369005D01*
X58548535Y-33216120D01*
X58743120Y-33021535D01*
X58896005Y-32792727D01*
X58928000Y-32715485D01*
X58959995Y-32792727D01*
X59112880Y-33021535D01*
X59307465Y-33216120D01*
X59536273Y-33369005D01*
X59607943Y-33398692D01*
X59594977Y-33403364D01*
X59479020Y-33465344D01*
X59412040Y-33705435D01*
X60198000Y-34491395D01*
X60983960Y-33705435D01*
X60916980Y-33465344D01*
X60781240Y-33401515D01*
X60859727Y-33369005D01*
X61088535Y-33216120D01*
X61283120Y-33021535D01*
X61436005Y-32792727D01*
X61468000Y-32715485D01*
X61499995Y-32792727D01*
X61652880Y-33021535D01*
X61847465Y-33216120D01*
X62076273Y-33369005D01*
X62147943Y-33398692D01*
X62134977Y-33403364D01*
X62019020Y-33465344D01*
X61952040Y-33705435D01*
X62738000Y-34491395D01*
X63523960Y-33705435D01*
X63456980Y-33465344D01*
X63321240Y-33401515D01*
X63399727Y-33369005D01*
X63628535Y-33216120D01*
X63823120Y-33021535D01*
X63976005Y-32792727D01*
X64008000Y-32715485D01*
X64039995Y-32792727D01*
X64192880Y-33021535D01*
X64387465Y-33216120D01*
X64616273Y-33369005D01*
X64687943Y-33398692D01*
X64674977Y-33403364D01*
X64559020Y-33465344D01*
X64492040Y-33705435D01*
X65278000Y-34491395D01*
X66063960Y-33705435D01*
X65996980Y-33465344D01*
X65861240Y-33401515D01*
X65939727Y-33369005D01*
X66168535Y-33216120D01*
X66363120Y-33021535D01*
X66516005Y-32792727D01*
X66548000Y-32715485D01*
X66579995Y-32792727D01*
X66732880Y-33021535D01*
X66927465Y-33216120D01*
X67156273Y-33369005D01*
X67227943Y-33398692D01*
X67214977Y-33403364D01*
X67099020Y-33465344D01*
X67032040Y-33705435D01*
X67818000Y-34491395D01*
X68603960Y-33705435D01*
X68536980Y-33465344D01*
X68401240Y-33401515D01*
X68479727Y-33369005D01*
X68708535Y-33216120D01*
X68903120Y-33021535D01*
X69056005Y-32792727D01*
X69088000Y-32715485D01*
X69119995Y-32792727D01*
X69272880Y-33021535D01*
X69467465Y-33216120D01*
X69696273Y-33369005D01*
X69767943Y-33398692D01*
X69754977Y-33403364D01*
X69639020Y-33465344D01*
X69572040Y-33705435D01*
X70358000Y-34491395D01*
X71143960Y-33705435D01*
X71076980Y-33465344D01*
X70941240Y-33401515D01*
X71019727Y-33369005D01*
X71248535Y-33216120D01*
X71443120Y-33021535D01*
X71596005Y-32792727D01*
X71628000Y-32715485D01*
X71659995Y-32792727D01*
X71812880Y-33021535D01*
X72007465Y-33216120D01*
X72236273Y-33369005D01*
X72307943Y-33398692D01*
X72294977Y-33403364D01*
X72179020Y-33465344D01*
X72112040Y-33705435D01*
X72898000Y-34491395D01*
X73683960Y-33705435D01*
X73616980Y-33465344D01*
X73481240Y-33401515D01*
X73559727Y-33369005D01*
X73788535Y-33216120D01*
X73983120Y-33021535D01*
X74136005Y-32792727D01*
X74241314Y-32538490D01*
X74295000Y-32268592D01*
X74295000Y-31993408D01*
X74241314Y-31723510D01*
X74136005Y-31469273D01*
X73983120Y-31240465D01*
X73788535Y-31045880D01*
X73559727Y-30892995D01*
X73305490Y-30787686D01*
X73035592Y-30734000D01*
X72760408Y-30734000D01*
X72490510Y-30787686D01*
X72236273Y-30892995D01*
X72007465Y-31045880D01*
X71812880Y-31240465D01*
X71659995Y-31469273D01*
X71628000Y-31546515D01*
X71596005Y-31469273D01*
X71443120Y-31240465D01*
X71248535Y-31045880D01*
X71019727Y-30892995D01*
X70765490Y-30787686D01*
X70495592Y-30734000D01*
X70220408Y-30734000D01*
X69950510Y-30787686D01*
X69696273Y-30892995D01*
X69467465Y-31045880D01*
X69272880Y-31240465D01*
X69119995Y-31469273D01*
X69088000Y-31546515D01*
X69056005Y-31469273D01*
X68903120Y-31240465D01*
X68708535Y-31045880D01*
X68479727Y-30892995D01*
X68225490Y-30787686D01*
X67955592Y-30734000D01*
X67680408Y-30734000D01*
X67410510Y-30787686D01*
X67156273Y-30892995D01*
X66927465Y-31045880D01*
X66732880Y-31240465D01*
X66579995Y-31469273D01*
X66548000Y-31546515D01*
X66516005Y-31469273D01*
X66363120Y-31240465D01*
X66168535Y-31045880D01*
X65939727Y-30892995D01*
X65685490Y-30787686D01*
X65415592Y-30734000D01*
X65140408Y-30734000D01*
X64870510Y-30787686D01*
X64616273Y-30892995D01*
X64387465Y-31045880D01*
X64192880Y-31240465D01*
X64039995Y-31469273D01*
X64008000Y-31546515D01*
X63976005Y-31469273D01*
X63823120Y-31240465D01*
X63628535Y-31045880D01*
X63399727Y-30892995D01*
X63145490Y-30787686D01*
X62875592Y-30734000D01*
X62600408Y-30734000D01*
X62330510Y-30787686D01*
X62076273Y-30892995D01*
X61847465Y-31045880D01*
X61652880Y-31240465D01*
X61499995Y-31469273D01*
X61468000Y-31546515D01*
X61436005Y-31469273D01*
X61283120Y-31240465D01*
X61088535Y-31045880D01*
X60859727Y-30892995D01*
X60605490Y-30787686D01*
X60335592Y-30734000D01*
X60060408Y-30734000D01*
X59790510Y-30787686D01*
X59536273Y-30892995D01*
X59307465Y-31045880D01*
X59112880Y-31240465D01*
X58959995Y-31469273D01*
X58928000Y-31546515D01*
X58896005Y-31469273D01*
X58743120Y-31240465D01*
X58548535Y-31045880D01*
X58319727Y-30892995D01*
X58065490Y-30787686D01*
X57795592Y-30734000D01*
X57520408Y-30734000D01*
X57250510Y-30787686D01*
X56996273Y-30892995D01*
X56767465Y-31045880D01*
X56572880Y-31240465D01*
X56419995Y-31469273D01*
X56388000Y-31546515D01*
X56356005Y-31469273D01*
X56203120Y-31240465D01*
X56008535Y-31045880D01*
X55779727Y-30892995D01*
X55525490Y-30787686D01*
X55255592Y-30734000D01*
X54980408Y-30734000D01*
X54710510Y-30787686D01*
X54456273Y-30892995D01*
X54227465Y-31045880D01*
X54032880Y-31240465D01*
X53879995Y-31469273D01*
X53848000Y-31546515D01*
X53816005Y-31469273D01*
X53663120Y-31240465D01*
X53468535Y-31045880D01*
X53239727Y-30892995D01*
X52985490Y-30787686D01*
X52715592Y-30734000D01*
X52440408Y-30734000D01*
X52286430Y-30764628D01*
X51369500Y-29847699D01*
X51369500Y-27778841D01*
X51500035Y-27691620D01*
X51694620Y-27497035D01*
X51847505Y-27268227D01*
X51879500Y-27190985D01*
X51911495Y-27268227D01*
X52064380Y-27497035D01*
X52258965Y-27691620D01*
X52487773Y-27844505D01*
X52742010Y-27949814D01*
X53011908Y-28003500D01*
X53287092Y-28003500D01*
X53556990Y-27949814D01*
X53811227Y-27844505D01*
X54040035Y-27691620D01*
X54234620Y-27497035D01*
X54387505Y-27268227D01*
X54419500Y-27190985D01*
X54451495Y-27268227D01*
X54604380Y-27497035D01*
X54798965Y-27691620D01*
X55027773Y-27844505D01*
X55282010Y-27949814D01*
X55551908Y-28003500D01*
X55827092Y-28003500D01*
X56096990Y-27949814D01*
X56351227Y-27844505D01*
X56580035Y-27691620D01*
X56774620Y-27497035D01*
X56927505Y-27268227D01*
X56959500Y-27190985D01*
X56991495Y-27268227D01*
X57144380Y-27497035D01*
X57338965Y-27691620D01*
X57567773Y-27844505D01*
X57822010Y-27949814D01*
X58091908Y-28003500D01*
X58367092Y-28003500D01*
X58636990Y-27949814D01*
X58891227Y-27844505D01*
X59120035Y-27691620D01*
X59314620Y-27497035D01*
X59467505Y-27268227D01*
X59499500Y-27190985D01*
X59531495Y-27268227D01*
X59684380Y-27497035D01*
X59878965Y-27691620D01*
X60107773Y-27844505D01*
X60362010Y-27949814D01*
X60631908Y-28003500D01*
X60907092Y-28003500D01*
X61176990Y-27949814D01*
X61431227Y-27844505D01*
X61660035Y-27691620D01*
X61854620Y-27497035D01*
X62007505Y-27268227D01*
X62039500Y-27190985D01*
X62071495Y-27268227D01*
X62224380Y-27497035D01*
X62418965Y-27691620D01*
X62647773Y-27844505D01*
X62902010Y-27949814D01*
X63171908Y-28003500D01*
X63447092Y-28003500D01*
X63716990Y-27949814D01*
X63971227Y-27844505D01*
X64200035Y-27691620D01*
X64394620Y-27497035D01*
X64547505Y-27268227D01*
X64579500Y-27190985D01*
X64611495Y-27268227D01*
X64764380Y-27497035D01*
X64958965Y-27691620D01*
X65187773Y-27844505D01*
X65442010Y-27949814D01*
X65711908Y-28003500D01*
X65987092Y-28003500D01*
X66256990Y-27949814D01*
X66511227Y-27844505D01*
X66740035Y-27691620D01*
X66934620Y-27497035D01*
X67087505Y-27268227D01*
X67119500Y-27190985D01*
X67151495Y-27268227D01*
X67304380Y-27497035D01*
X67498965Y-27691620D01*
X67727773Y-27844505D01*
X67982010Y-27949814D01*
X68251908Y-28003500D01*
X68527092Y-28003500D01*
X68796990Y-27949814D01*
X69051227Y-27844505D01*
X69280035Y-27691620D01*
X69474620Y-27497035D01*
X69627505Y-27268227D01*
X69659500Y-27190985D01*
X69691495Y-27268227D01*
X69844380Y-27497035D01*
X70038965Y-27691620D01*
X70267773Y-27844505D01*
X70522010Y-27949814D01*
X70791908Y-28003500D01*
X71067092Y-28003500D01*
X71336990Y-27949814D01*
X71591227Y-27844505D01*
X71820035Y-27691620D01*
X72014620Y-27497035D01*
X72167505Y-27268227D01*
X72272814Y-27013990D01*
X72326500Y-26744092D01*
X72326500Y-26468908D01*
X72272814Y-26199010D01*
X72167505Y-25944773D01*
X72014620Y-25715965D01*
X71820035Y-25521380D01*
X71732035Y-25462580D01*
X71815982Y-25454312D01*
X71935680Y-25418002D01*
X72045994Y-25359037D01*
X72142685Y-25279685D01*
X72222037Y-25182994D01*
X72281002Y-25072680D01*
X72317312Y-24952982D01*
X72329572Y-24828500D01*
X72329572Y-23304500D01*
X72317312Y-23180018D01*
X72281002Y-23060320D01*
X72222037Y-22950006D01*
X72142685Y-22853315D01*
X72045994Y-22773963D01*
X71935680Y-22714998D01*
X71815982Y-22678688D01*
X71691500Y-22666428D01*
X70167500Y-22666428D01*
X70043018Y-22678688D01*
X69923320Y-22714998D01*
X69813006Y-22773963D01*
X69716315Y-22853315D01*
X69636963Y-22950006D01*
X69577998Y-23060320D01*
X69541688Y-23180018D01*
X69533420Y-23263965D01*
X69474620Y-23175965D01*
X69280035Y-22981380D01*
X69051227Y-22828495D01*
X68796990Y-22723186D01*
X68527092Y-22669500D01*
X68251908Y-22669500D01*
X67982010Y-22723186D01*
X67727773Y-22828495D01*
X67498965Y-22981380D01*
X67304380Y-23175965D01*
X67151495Y-23404773D01*
X67119500Y-23482015D01*
X67087505Y-23404773D01*
X66934620Y-23175965D01*
X66740035Y-22981380D01*
X66511227Y-22828495D01*
X66256990Y-22723186D01*
X65987092Y-22669500D01*
X65711908Y-22669500D01*
X65442010Y-22723186D01*
X65187773Y-22828495D01*
X64958965Y-22981380D01*
X64764380Y-23175965D01*
X64727273Y-23231500D01*
X64431727Y-23231500D01*
X64394620Y-23175965D01*
X64200035Y-22981380D01*
X63971227Y-22828495D01*
X63716990Y-22723186D01*
X63447092Y-22669500D01*
X63171908Y-22669500D01*
X62902010Y-22723186D01*
X62647773Y-22828495D01*
X62418965Y-22981380D01*
X62224380Y-23175965D01*
X62187273Y-23231500D01*
X61891727Y-23231500D01*
X61854620Y-23175965D01*
X61660035Y-22981380D01*
X61431227Y-22828495D01*
X61176990Y-22723186D01*
X60907092Y-22669500D01*
X60631908Y-22669500D01*
X60362010Y-22723186D01*
X60107773Y-22828495D01*
X59878965Y-22981380D01*
X59684380Y-23175965D01*
X59647273Y-23231500D01*
X59351727Y-23231500D01*
X59314620Y-23175965D01*
X59120035Y-22981380D01*
X58891227Y-22828495D01*
X58636990Y-22723186D01*
X58367092Y-22669500D01*
X58091908Y-22669500D01*
X58026398Y-22682531D01*
X56323867Y-20980000D01*
X76048000Y-20980000D01*
X76048001Y-37440000D01*
X68471988Y-37440000D01*
X68472000Y-37439939D01*
X68472000Y-37236061D01*
X68432226Y-37036102D01*
X68354205Y-36847744D01*
X68240937Y-36678226D01*
X68233286Y-36670575D01*
X68305226Y-36496898D01*
X68345000Y-36296939D01*
X68345000Y-36093061D01*
X68321422Y-35974525D01*
X68421023Y-35938636D01*
X68536980Y-35876656D01*
X68603960Y-35636565D01*
X69572040Y-35636565D01*
X69639020Y-35876656D01*
X69888048Y-35993756D01*
X70155135Y-36060023D01*
X70430017Y-36072910D01*
X70702133Y-36031922D01*
X70961023Y-35938636D01*
X71076980Y-35876656D01*
X71143960Y-35636565D01*
X72112040Y-35636565D01*
X72179020Y-35876656D01*
X72428048Y-35993756D01*
X72695135Y-36060023D01*
X72970017Y-36072910D01*
X73242133Y-36031922D01*
X73501023Y-35938636D01*
X73616980Y-35876656D01*
X73683960Y-35636565D01*
X72898000Y-34850605D01*
X72112040Y-35636565D01*
X71143960Y-35636565D01*
X70358000Y-34850605D01*
X69572040Y-35636565D01*
X68603960Y-35636565D01*
X67818000Y-34850605D01*
X67803858Y-34864748D01*
X67624253Y-34685143D01*
X67638395Y-34671000D01*
X67997605Y-34671000D01*
X68783565Y-35456960D01*
X69023656Y-35389980D01*
X69085079Y-35259356D01*
X69090364Y-35274023D01*
X69152344Y-35389980D01*
X69392435Y-35456960D01*
X70178395Y-34671000D01*
X70537605Y-34671000D01*
X71323565Y-35456960D01*
X71563656Y-35389980D01*
X71625079Y-35259356D01*
X71630364Y-35274023D01*
X71692344Y-35389980D01*
X71932435Y-35456960D01*
X72718395Y-34671000D01*
X73077605Y-34671000D01*
X73863565Y-35456960D01*
X74103656Y-35389980D01*
X74220756Y-35140952D01*
X74287023Y-34873865D01*
X74299910Y-34598983D01*
X74258922Y-34326867D01*
X74165636Y-34067977D01*
X74103656Y-33952020D01*
X73863565Y-33885040D01*
X73077605Y-34671000D01*
X72718395Y-34671000D01*
X71932435Y-33885040D01*
X71692344Y-33952020D01*
X71630921Y-34082644D01*
X71625636Y-34067977D01*
X71563656Y-33952020D01*
X71323565Y-33885040D01*
X70537605Y-34671000D01*
X70178395Y-34671000D01*
X69392435Y-33885040D01*
X69152344Y-33952020D01*
X69090921Y-34082644D01*
X69085636Y-34067977D01*
X69023656Y-33952020D01*
X68783565Y-33885040D01*
X67997605Y-34671000D01*
X67638395Y-34671000D01*
X66852435Y-33885040D01*
X66612344Y-33952020D01*
X66550921Y-34082644D01*
X66545636Y-34067977D01*
X66483656Y-33952020D01*
X66243565Y-33885040D01*
X65457605Y-34671000D01*
X65471748Y-34685143D01*
X65292143Y-34864748D01*
X65278000Y-34850605D01*
X65263858Y-34864748D01*
X65084253Y-34685143D01*
X65098395Y-34671000D01*
X64312435Y-33885040D01*
X64072344Y-33952020D01*
X64010921Y-34082644D01*
X64005636Y-34067977D01*
X63943656Y-33952020D01*
X63703565Y-33885040D01*
X62917605Y-34671000D01*
X62931748Y-34685143D01*
X62752143Y-34864748D01*
X62738000Y-34850605D01*
X62723858Y-34864748D01*
X62544253Y-34685143D01*
X62558395Y-34671000D01*
X61772435Y-33885040D01*
X61532344Y-33952020D01*
X61470921Y-34082644D01*
X61465636Y-34067977D01*
X61403656Y-33952020D01*
X61163565Y-33885040D01*
X60377605Y-34671000D01*
X60391748Y-34685143D01*
X60212143Y-34864748D01*
X60198000Y-34850605D01*
X60183858Y-34864748D01*
X60004253Y-34685143D01*
X60018395Y-34671000D01*
X59232435Y-33885040D01*
X58992344Y-33952020D01*
X58930921Y-34082644D01*
X58925636Y-34067977D01*
X58863656Y-33952020D01*
X58623565Y-33885040D01*
X57837605Y-34671000D01*
X57851748Y-34685143D01*
X57672143Y-34864748D01*
X57658000Y-34850605D01*
X57643858Y-34864748D01*
X57464253Y-34685143D01*
X57478395Y-34671000D01*
X56692435Y-33885040D01*
X56452344Y-33952020D01*
X56390921Y-34082644D01*
X56385636Y-34067977D01*
X56323656Y-33952020D01*
X56083565Y-33885040D01*
X55297605Y-34671000D01*
X55311748Y-34685143D01*
X55132143Y-34864748D01*
X55118000Y-34850605D01*
X55103858Y-34864748D01*
X54924253Y-34685143D01*
X54938395Y-34671000D01*
X54152435Y-33885040D01*
X53912344Y-33952020D01*
X53850921Y-34082644D01*
X53845636Y-34067977D01*
X53783656Y-33952020D01*
X53543565Y-33885040D01*
X52757605Y-34671000D01*
X52771748Y-34685143D01*
X52592143Y-34864748D01*
X52578000Y-34850605D01*
X52563858Y-34864748D01*
X52384253Y-34685143D01*
X52398395Y-34671000D01*
X51612435Y-33885040D01*
X51372344Y-33952020D01*
X51310921Y-34082644D01*
X51305636Y-34067977D01*
X51243656Y-33952020D01*
X51003565Y-33885040D01*
X50217605Y-34671000D01*
X50231748Y-34685143D01*
X50052143Y-34864748D01*
X50038000Y-34850605D01*
X50023858Y-34864748D01*
X49844253Y-34685143D01*
X49858395Y-34671000D01*
X49072435Y-33885040D01*
X48832344Y-33952020D01*
X48770921Y-34082644D01*
X48765636Y-34067977D01*
X48703656Y-33952020D01*
X48463565Y-33885040D01*
X47677605Y-34671000D01*
X47691748Y-34685143D01*
X47512143Y-34864748D01*
X47498000Y-34850605D01*
X47483858Y-34864748D01*
X47304253Y-34685143D01*
X47318395Y-34671000D01*
X46532435Y-33885040D01*
X46292344Y-33952020D01*
X46230921Y-34082644D01*
X46225636Y-34067977D01*
X46163656Y-33952020D01*
X45923565Y-33885040D01*
X45137605Y-34671000D01*
X45151748Y-34685143D01*
X44972143Y-34864748D01*
X44958000Y-34850605D01*
X44943858Y-34864748D01*
X44764253Y-34685143D01*
X44778395Y-34671000D01*
X43992435Y-33885040D01*
X43752344Y-33952020D01*
X43690921Y-34082644D01*
X43685636Y-34067977D01*
X43623656Y-33952020D01*
X43383565Y-33885040D01*
X42597605Y-34671000D01*
X42611748Y-34685143D01*
X42432143Y-34864748D01*
X42418000Y-34850605D01*
X42403858Y-34864748D01*
X42224253Y-34685143D01*
X42238395Y-34671000D01*
X41452435Y-33885040D01*
X41212344Y-33952020D01*
X41150921Y-34082644D01*
X41145636Y-34067977D01*
X41083656Y-33952020D01*
X40843565Y-33885040D01*
X40057605Y-34671000D01*
X40071748Y-34685143D01*
X39892143Y-34864748D01*
X39878000Y-34850605D01*
X39863858Y-34864748D01*
X39684253Y-34685143D01*
X39698395Y-34671000D01*
X38912435Y-33885040D01*
X38672344Y-33952020D01*
X38610921Y-34082644D01*
X38605636Y-34067977D01*
X38543656Y-33952020D01*
X38303565Y-33885040D01*
X37517605Y-34671000D01*
X37531748Y-34685143D01*
X37352143Y-34864748D01*
X37338000Y-34850605D01*
X37323858Y-34864748D01*
X37144253Y-34685143D01*
X37158395Y-34671000D01*
X36372435Y-33885040D01*
X36132344Y-33952020D01*
X36070921Y-34082644D01*
X36065636Y-34067977D01*
X36003656Y-33952020D01*
X35763565Y-33885040D01*
X34977605Y-34671000D01*
X34991748Y-34685143D01*
X34812143Y-34864748D01*
X34798000Y-34850605D01*
X34012040Y-35636565D01*
X34079020Y-35876656D01*
X34328048Y-35993756D01*
X34595135Y-36060023D01*
X34870017Y-36072910D01*
X34911243Y-36066700D01*
X34906000Y-36093061D01*
X34906000Y-36296939D01*
X34945774Y-36496898D01*
X35023795Y-36685256D01*
X35137063Y-36854774D01*
X35281226Y-36998937D01*
X35450744Y-37112205D01*
X35556891Y-37156173D01*
X35541000Y-37236061D01*
X35541000Y-37439939D01*
X35541012Y-37440000D01*
X15900000Y-37440000D01*
X15900000Y-35433000D01*
X30857928Y-35433000D01*
X30870188Y-35557482D01*
X30906498Y-35677180D01*
X30965463Y-35787494D01*
X31044815Y-35884185D01*
X31141506Y-35963537D01*
X31251820Y-36022502D01*
X31371518Y-36058812D01*
X31496000Y-36071072D01*
X31972250Y-36068000D01*
X32131000Y-35909250D01*
X32131000Y-34798000D01*
X31019750Y-34798000D01*
X30861000Y-34956750D01*
X30857928Y-35433000D01*
X15900000Y-35433000D01*
X15900000Y-33254740D01*
X15977500Y-33254740D01*
X15977500Y-33547260D01*
X16034568Y-33834158D01*
X16146510Y-34104411D01*
X16309025Y-34347632D01*
X16515868Y-34554475D01*
X16759089Y-34716990D01*
X17029342Y-34828932D01*
X17316240Y-34886000D01*
X17608760Y-34886000D01*
X17895658Y-34828932D01*
X18165911Y-34716990D01*
X18409132Y-34554475D01*
X18615975Y-34347632D01*
X18737695Y-34165466D01*
X18807322Y-34282355D01*
X19002231Y-34498588D01*
X19235580Y-34672641D01*
X19498401Y-34797825D01*
X19645610Y-34842476D01*
X19875500Y-34721155D01*
X19875500Y-33528000D01*
X20129500Y-33528000D01*
X20129500Y-34721155D01*
X20359390Y-34842476D01*
X20506599Y-34797825D01*
X20769420Y-34672641D01*
X21002769Y-34498588D01*
X21197678Y-34282355D01*
X21272500Y-34156745D01*
X21347322Y-34282355D01*
X21542231Y-34498588D01*
X21775580Y-34672641D01*
X22038401Y-34797825D01*
X22185610Y-34842476D01*
X22415500Y-34721155D01*
X22415500Y-33528000D01*
X20129500Y-33528000D01*
X19875500Y-33528000D01*
X19855500Y-33528000D01*
X19855500Y-33274000D01*
X19875500Y-33274000D01*
X19875500Y-32080845D01*
X20129500Y-32080845D01*
X20129500Y-33274000D01*
X22415500Y-33274000D01*
X22415500Y-32080845D01*
X22185610Y-31959524D01*
X22038401Y-32004175D01*
X21775580Y-32129359D01*
X21542231Y-32303412D01*
X21347322Y-32519645D01*
X21272500Y-32645255D01*
X21197678Y-32519645D01*
X21002769Y-32303412D01*
X20769420Y-32129359D01*
X20506599Y-32004175D01*
X20359390Y-31959524D01*
X20129500Y-32080845D01*
X19875500Y-32080845D01*
X19645610Y-31959524D01*
X19498401Y-32004175D01*
X19235580Y-32129359D01*
X19002231Y-32303412D01*
X18807322Y-32519645D01*
X18737695Y-32636534D01*
X18615975Y-32454368D01*
X18409132Y-32247525D01*
X18165911Y-32085010D01*
X17895658Y-31973068D01*
X17608760Y-31916000D01*
X17316240Y-31916000D01*
X17029342Y-31973068D01*
X16759089Y-32085010D01*
X16515868Y-32247525D01*
X16309025Y-32454368D01*
X16146510Y-32697589D01*
X16034568Y-32967842D01*
X15977500Y-33254740D01*
X15900000Y-33254740D01*
X15900000Y-20980000D01*
X28004132Y-20980000D01*
X24521079Y-24463054D01*
G37*
X24521079Y-24463054D02*
X24489209Y-24489209D01*
X24384865Y-24616354D01*
X24384864Y-24616355D01*
X24307328Y-24761414D01*
X24259582Y-24918812D01*
X24243460Y-25082500D01*
X24247500Y-25123519D01*
X24247501Y-31912928D01*
X24232500Y-31912928D01*
X24108018Y-31925188D01*
X23988320Y-31961498D01*
X23878006Y-32020463D01*
X23781315Y-32099815D01*
X23701963Y-32196506D01*
X23642998Y-32306820D01*
X23618534Y-32387466D01*
X23542769Y-32303412D01*
X23309420Y-32129359D01*
X23046599Y-32004175D01*
X22899390Y-31959524D01*
X22669500Y-32080845D01*
X22669500Y-33274000D01*
X22689500Y-33274000D01*
X22689500Y-33528000D01*
X22669500Y-33528000D01*
X22669500Y-34721155D01*
X22899390Y-34842476D01*
X23046599Y-34797825D01*
X23309420Y-34672641D01*
X23542769Y-34498588D01*
X23618534Y-34414534D01*
X23642998Y-34495180D01*
X23701963Y-34605494D01*
X23781315Y-34702185D01*
X23878006Y-34781537D01*
X23988320Y-34840502D01*
X24108018Y-34876812D01*
X24232500Y-34889072D01*
X25932500Y-34889072D01*
X26056982Y-34876812D01*
X26176680Y-34840502D01*
X26286994Y-34781537D01*
X26383685Y-34702185D01*
X26463037Y-34605494D01*
X26522002Y-34495180D01*
X26558312Y-34375482D01*
X26570572Y-34251000D01*
X26570572Y-32551000D01*
X26558312Y-32426518D01*
X26522002Y-32306820D01*
X26463037Y-32196506D01*
X26383685Y-32099815D01*
X26286994Y-32020463D01*
X26176680Y-31961498D01*
X26056982Y-31925188D01*
X25932500Y-31912928D01*
X25917500Y-31912928D01*
X25917500Y-25428367D01*
X29555868Y-21790000D01*
X54772133Y-21790000D01*
X55648161Y-22666028D01*
X55617483Y-22664590D01*
X55345367Y-22705578D01*
X55086477Y-22798864D01*
X54970520Y-22860844D01*
X54903540Y-23100935D01*
X55689500Y-23886895D01*
X55703643Y-23872753D01*
X55883248Y-24052358D01*
X55869105Y-24066500D01*
X56655065Y-24852460D01*
X56895156Y-24785480D01*
X56958985Y-24649740D01*
X56991495Y-24728227D01*
X57144380Y-24957035D01*
X57338965Y-25151620D01*
X57567773Y-25304505D01*
X57645015Y-25336500D01*
X57567773Y-25368495D01*
X57338965Y-25521380D01*
X57144380Y-25715965D01*
X56991495Y-25944773D01*
X56959500Y-26022015D01*
X56927505Y-25944773D01*
X56774620Y-25715965D01*
X56580035Y-25521380D01*
X56351227Y-25368495D01*
X56279557Y-25338808D01*
X56292523Y-25334136D01*
X56408480Y-25272156D01*
X56475460Y-25032065D01*
X55689500Y-24246105D01*
X54903540Y-25032065D01*
X54970520Y-25272156D01*
X55106260Y-25335985D01*
X55027773Y-25368495D01*
X54798965Y-25521380D01*
X54604380Y-25715965D01*
X54451495Y-25944773D01*
X54419500Y-26022015D01*
X54387505Y-25944773D01*
X54234620Y-25715965D01*
X54040035Y-25521380D01*
X53811227Y-25368495D01*
X53739557Y-25338808D01*
X53752523Y-25334136D01*
X53868480Y-25272156D01*
X53935460Y-25032065D01*
X53149500Y-24246105D01*
X52363540Y-25032065D01*
X52430520Y-25272156D01*
X52566260Y-25335985D01*
X52487773Y-25368495D01*
X52258965Y-25521380D01*
X52064380Y-25715965D01*
X51911495Y-25944773D01*
X51879500Y-26022015D01*
X51847505Y-25944773D01*
X51694620Y-25715965D01*
X51500035Y-25521380D01*
X51271227Y-25368495D01*
X51199557Y-25338808D01*
X51212523Y-25334136D01*
X51328480Y-25272156D01*
X51395460Y-25032065D01*
X50609500Y-24246105D01*
X49823540Y-25032065D01*
X49890520Y-25272156D01*
X50026260Y-25335985D01*
X49947773Y-25368495D01*
X49718965Y-25521380D01*
X49524380Y-25715965D01*
X49371495Y-25944773D01*
X49339500Y-26022015D01*
X49307505Y-25944773D01*
X49154620Y-25715965D01*
X48960035Y-25521380D01*
X48731227Y-25368495D01*
X48659557Y-25338808D01*
X48672523Y-25334136D01*
X48788480Y-25272156D01*
X48855460Y-25032065D01*
X48069500Y-24246105D01*
X47283540Y-25032065D01*
X47350520Y-25272156D01*
X47486260Y-25335985D01*
X47407773Y-25368495D01*
X47178965Y-25521380D01*
X46984380Y-25715965D01*
X46831495Y-25944773D01*
X46799500Y-26022015D01*
X46767505Y-25944773D01*
X46614620Y-25715965D01*
X46420035Y-25521380D01*
X46191227Y-25368495D01*
X46119557Y-25338808D01*
X46132523Y-25334136D01*
X46248480Y-25272156D01*
X46315460Y-25032065D01*
X45529500Y-24246105D01*
X44743540Y-25032065D01*
X44810520Y-25272156D01*
X44946260Y-25335985D01*
X44867773Y-25368495D01*
X44638965Y-25521380D01*
X44444380Y-25715965D01*
X44291495Y-25944773D01*
X44259500Y-26022015D01*
X44227505Y-25944773D01*
X44074620Y-25715965D01*
X43880035Y-25521380D01*
X43651227Y-25368495D01*
X43579557Y-25338808D01*
X43592523Y-25334136D01*
X43708480Y-25272156D01*
X43775460Y-25032065D01*
X42989500Y-24246105D01*
X42203540Y-25032065D01*
X42270520Y-25272156D01*
X42406260Y-25335985D01*
X42327773Y-25368495D01*
X42098965Y-25521380D01*
X41904380Y-25715965D01*
X41751495Y-25944773D01*
X41719500Y-26022015D01*
X41687505Y-25944773D01*
X41534620Y-25715965D01*
X41340035Y-25521380D01*
X41111227Y-25368495D01*
X41039557Y-25338808D01*
X41052523Y-25334136D01*
X41168480Y-25272156D01*
X41235460Y-25032065D01*
X40449500Y-24246105D01*
X39663540Y-25032065D01*
X39730520Y-25272156D01*
X39866260Y-25335985D01*
X39787773Y-25368495D01*
X39558965Y-25521380D01*
X39364380Y-25715965D01*
X39211495Y-25944773D01*
X39179500Y-26022015D01*
X39147505Y-25944773D01*
X38994620Y-25715965D01*
X38800035Y-25521380D01*
X38571227Y-25368495D01*
X38499557Y-25338808D01*
X38512523Y-25334136D01*
X38628480Y-25272156D01*
X38695460Y-25032065D01*
X37909500Y-24246105D01*
X37123540Y-25032065D01*
X37190520Y-25272156D01*
X37326260Y-25335985D01*
X37247773Y-25368495D01*
X37018965Y-25521380D01*
X36824380Y-25715965D01*
X36671495Y-25944773D01*
X36639500Y-26022015D01*
X36607505Y-25944773D01*
X36454620Y-25715965D01*
X36260035Y-25521380D01*
X36031227Y-25368495D01*
X35953985Y-25336500D01*
X36031227Y-25304505D01*
X36260035Y-25151620D01*
X36454620Y-24957035D01*
X36607505Y-24728227D01*
X36637192Y-24656557D01*
X36641864Y-24669523D01*
X36703844Y-24785480D01*
X36943935Y-24852460D01*
X37729895Y-24066500D01*
X38089105Y-24066500D01*
X38875065Y-24852460D01*
X39115156Y-24785480D01*
X39176579Y-24654856D01*
X39181864Y-24669523D01*
X39243844Y-24785480D01*
X39483935Y-24852460D01*
X40269895Y-24066500D01*
X40629105Y-24066500D01*
X41415065Y-24852460D01*
X41655156Y-24785480D01*
X41716579Y-24654856D01*
X41721864Y-24669523D01*
X41783844Y-24785480D01*
X42023935Y-24852460D01*
X42809895Y-24066500D01*
X43169105Y-24066500D01*
X43955065Y-24852460D01*
X44195156Y-24785480D01*
X44256579Y-24654856D01*
X44261864Y-24669523D01*
X44323844Y-24785480D01*
X44563935Y-24852460D01*
X45349895Y-24066500D01*
X45709105Y-24066500D01*
X46495065Y-24852460D01*
X46735156Y-24785480D01*
X46796579Y-24654856D01*
X46801864Y-24669523D01*
X46863844Y-24785480D01*
X47103935Y-24852460D01*
X47889895Y-24066500D01*
X48249105Y-24066500D01*
X49035065Y-24852460D01*
X49275156Y-24785480D01*
X49336579Y-24654856D01*
X49341864Y-24669523D01*
X49403844Y-24785480D01*
X49643935Y-24852460D01*
X50429895Y-24066500D01*
X50789105Y-24066500D01*
X51575065Y-24852460D01*
X51815156Y-24785480D01*
X51876579Y-24654856D01*
X51881864Y-24669523D01*
X51943844Y-24785480D01*
X52183935Y-24852460D01*
X52969895Y-24066500D01*
X53329105Y-24066500D01*
X54115065Y-24852460D01*
X54355156Y-24785480D01*
X54416579Y-24654856D01*
X54421864Y-24669523D01*
X54483844Y-24785480D01*
X54723935Y-24852460D01*
X55509895Y-24066500D01*
X54723935Y-23280540D01*
X54483844Y-23347520D01*
X54422421Y-23478144D01*
X54417136Y-23463477D01*
X54355156Y-23347520D01*
X54115065Y-23280540D01*
X53329105Y-24066500D01*
X52969895Y-24066500D01*
X52183935Y-23280540D01*
X51943844Y-23347520D01*
X51882421Y-23478144D01*
X51877136Y-23463477D01*
X51815156Y-23347520D01*
X51575065Y-23280540D01*
X50789105Y-24066500D01*
X50429895Y-24066500D01*
X49643935Y-23280540D01*
X49403844Y-23347520D01*
X49342421Y-23478144D01*
X49337136Y-23463477D01*
X49275156Y-23347520D01*
X49035065Y-23280540D01*
X48249105Y-24066500D01*
X47889895Y-24066500D01*
X47103935Y-23280540D01*
X46863844Y-23347520D01*
X46802421Y-23478144D01*
X46797136Y-23463477D01*
X46735156Y-23347520D01*
X46495065Y-23280540D01*
X45709105Y-24066500D01*
X45349895Y-24066500D01*
X44563935Y-23280540D01*
X44323844Y-23347520D01*
X44262421Y-23478144D01*
X44257136Y-23463477D01*
X44195156Y-23347520D01*
X43955065Y-23280540D01*
X43169105Y-24066500D01*
X42809895Y-24066500D01*
X42023935Y-23280540D01*
X41783844Y-23347520D01*
X41722421Y-23478144D01*
X41717136Y-23463477D01*
X41655156Y-23347520D01*
X41415065Y-23280540D01*
X40629105Y-24066500D01*
X40269895Y-24066500D01*
X39483935Y-23280540D01*
X39243844Y-23347520D01*
X39182421Y-23478144D01*
X39177136Y-23463477D01*
X39115156Y-23347520D01*
X38875065Y-23280540D01*
X38089105Y-24066500D01*
X37729895Y-24066500D01*
X36943935Y-23280540D01*
X36703844Y-23347520D01*
X36640015Y-23483260D01*
X36607505Y-23404773D01*
X36454620Y-23175965D01*
X36379590Y-23100935D01*
X37123540Y-23100935D01*
X37909500Y-23886895D01*
X38695460Y-23100935D01*
X39663540Y-23100935D01*
X40449500Y-23886895D01*
X41235460Y-23100935D01*
X42203540Y-23100935D01*
X42989500Y-23886895D01*
X43775460Y-23100935D01*
X44743540Y-23100935D01*
X45529500Y-23886895D01*
X46315460Y-23100935D01*
X47283540Y-23100935D01*
X48069500Y-23886895D01*
X48855460Y-23100935D01*
X49823540Y-23100935D01*
X50609500Y-23886895D01*
X51395460Y-23100935D01*
X52363540Y-23100935D01*
X53149500Y-23886895D01*
X53935460Y-23100935D01*
X53868480Y-22860844D01*
X53619452Y-22743744D01*
X53352365Y-22677477D01*
X53077483Y-22664590D01*
X52805367Y-22705578D01*
X52546477Y-22798864D01*
X52430520Y-22860844D01*
X52363540Y-23100935D01*
X51395460Y-23100935D01*
X51328480Y-22860844D01*
X51079452Y-22743744D01*
X50812365Y-22677477D01*
X50537483Y-22664590D01*
X50265367Y-22705578D01*
X50006477Y-22798864D01*
X49890520Y-22860844D01*
X49823540Y-23100935D01*
X48855460Y-23100935D01*
X48788480Y-22860844D01*
X48539452Y-22743744D01*
X48272365Y-22677477D01*
X47997483Y-22664590D01*
X47725367Y-22705578D01*
X47466477Y-22798864D01*
X47350520Y-22860844D01*
X47283540Y-23100935D01*
X46315460Y-23100935D01*
X46248480Y-22860844D01*
X45999452Y-22743744D01*
X45732365Y-22677477D01*
X45457483Y-22664590D01*
X45185367Y-22705578D01*
X44926477Y-22798864D01*
X44810520Y-22860844D01*
X44743540Y-23100935D01*
X43775460Y-23100935D01*
X43708480Y-22860844D01*
X43459452Y-22743744D01*
X43192365Y-22677477D01*
X42917483Y-22664590D01*
X42645367Y-22705578D01*
X42386477Y-22798864D01*
X42270520Y-22860844D01*
X42203540Y-23100935D01*
X41235460Y-23100935D01*
X41168480Y-22860844D01*
X40919452Y-22743744D01*
X40652365Y-22677477D01*
X40377483Y-22664590D01*
X40105367Y-22705578D01*
X39846477Y-22798864D01*
X39730520Y-22860844D01*
X39663540Y-23100935D01*
X38695460Y-23100935D01*
X38628480Y-22860844D01*
X38379452Y-22743744D01*
X38112365Y-22677477D01*
X37837483Y-22664590D01*
X37565367Y-22705578D01*
X37306477Y-22798864D01*
X37190520Y-22860844D01*
X37123540Y-23100935D01*
X36379590Y-23100935D01*
X36260035Y-22981380D01*
X36031227Y-22828495D01*
X35776990Y-22723186D01*
X35507092Y-22669500D01*
X35231908Y-22669500D01*
X34962010Y-22723186D01*
X34707773Y-22828495D01*
X34478965Y-22981380D01*
X34284380Y-23175965D01*
X34131495Y-23404773D01*
X34099500Y-23482015D01*
X34067505Y-23404773D01*
X33914620Y-23175965D01*
X33720035Y-22981380D01*
X33491227Y-22828495D01*
X33236990Y-22723186D01*
X32967092Y-22669500D01*
X32691908Y-22669500D01*
X32422010Y-22723186D01*
X32167773Y-22828495D01*
X31938965Y-22981380D01*
X31744380Y-23175965D01*
X31591495Y-23404773D01*
X31559500Y-23482015D01*
X31527505Y-23404773D01*
X31374620Y-23175965D01*
X31180035Y-22981380D01*
X30951227Y-22828495D01*
X30696990Y-22723186D01*
X30427092Y-22669500D01*
X30151908Y-22669500D01*
X29882010Y-22723186D01*
X29627773Y-22828495D01*
X29398965Y-22981380D01*
X29204380Y-23175965D01*
X29051495Y-23404773D01*
X28946186Y-23659010D01*
X28892500Y-23928908D01*
X28892500Y-24204092D01*
X28946186Y-24473990D01*
X29051495Y-24728227D01*
X29204380Y-24957035D01*
X29398965Y-25151620D01*
X29627773Y-25304505D01*
X29705015Y-25336500D01*
X29627773Y-25368495D01*
X29398965Y-25521380D01*
X29204380Y-25715965D01*
X29051495Y-25944773D01*
X28946186Y-26199010D01*
X28892500Y-26468908D01*
X28892500Y-26744092D01*
X28946186Y-27013990D01*
X29051495Y-27268227D01*
X29204380Y-27497035D01*
X29398965Y-27691620D01*
X29627773Y-27844505D01*
X29882010Y-27949814D01*
X30151908Y-28003500D01*
X30427092Y-28003500D01*
X30696990Y-27949814D01*
X30951227Y-27844505D01*
X31180035Y-27691620D01*
X31374620Y-27497035D01*
X31527505Y-27268227D01*
X31559500Y-27190985D01*
X31591495Y-27268227D01*
X31744380Y-27497035D01*
X31938965Y-27691620D01*
X32167773Y-27844505D01*
X32422010Y-27949814D01*
X32691908Y-28003500D01*
X32967092Y-28003500D01*
X33236990Y-27949814D01*
X33491227Y-27844505D01*
X33720035Y-27691620D01*
X33914620Y-27497035D01*
X34067505Y-27268227D01*
X34099500Y-27190985D01*
X34131495Y-27268227D01*
X34284380Y-27497035D01*
X34478965Y-27691620D01*
X34707773Y-27844505D01*
X34962010Y-27949814D01*
X35231908Y-28003500D01*
X35507092Y-28003500D01*
X35776990Y-27949814D01*
X36031227Y-27844505D01*
X36260035Y-27691620D01*
X36454620Y-27497035D01*
X36607505Y-27268227D01*
X36639500Y-27190985D01*
X36671495Y-27268227D01*
X36824380Y-27497035D01*
X37018965Y-27691620D01*
X37247773Y-27844505D01*
X37502010Y-27949814D01*
X37771908Y-28003500D01*
X38047092Y-28003500D01*
X38316990Y-27949814D01*
X38571227Y-27844505D01*
X38800035Y-27691620D01*
X38994620Y-27497035D01*
X39147505Y-27268227D01*
X39179500Y-27190985D01*
X39211495Y-27268227D01*
X39364380Y-27497035D01*
X39558965Y-27691620D01*
X39787773Y-27844505D01*
X40042010Y-27949814D01*
X40311908Y-28003500D01*
X40587092Y-28003500D01*
X40856990Y-27949814D01*
X41111227Y-27844505D01*
X41340035Y-27691620D01*
X41534620Y-27497035D01*
X41687505Y-27268227D01*
X41719500Y-27190985D01*
X41751495Y-27268227D01*
X41904380Y-27497035D01*
X42098965Y-27691620D01*
X42327773Y-27844505D01*
X42582010Y-27949814D01*
X42851908Y-28003500D01*
X43127092Y-28003500D01*
X43396990Y-27949814D01*
X43651227Y-27844505D01*
X43880035Y-27691620D01*
X44074620Y-27497035D01*
X44227505Y-27268227D01*
X44259500Y-27190985D01*
X44291495Y-27268227D01*
X44444380Y-27497035D01*
X44638965Y-27691620D01*
X44867773Y-27844505D01*
X45122010Y-27949814D01*
X45391908Y-28003500D01*
X45667092Y-28003500D01*
X45936990Y-27949814D01*
X46191227Y-27844505D01*
X46420035Y-27691620D01*
X46614620Y-27497035D01*
X46767505Y-27268227D01*
X46799500Y-27190985D01*
X46831495Y-27268227D01*
X46984380Y-27497035D01*
X47178965Y-27691620D01*
X47407773Y-27844505D01*
X47662010Y-27949814D01*
X47931908Y-28003500D01*
X48207092Y-28003500D01*
X48476990Y-27949814D01*
X48731227Y-27844505D01*
X48960035Y-27691620D01*
X49154620Y-27497035D01*
X49307505Y-27268227D01*
X49339500Y-27190985D01*
X49371495Y-27268227D01*
X49524380Y-27497035D01*
X49718965Y-27691620D01*
X49849500Y-27778841D01*
X49849501Y-30125168D01*
X49845824Y-30162500D01*
X49860498Y-30311485D01*
X49903954Y-30454746D01*
X49974526Y-30586776D01*
X50045701Y-30673502D01*
X50069500Y-30702501D01*
X50098498Y-30726299D01*
X50106199Y-30734000D01*
X49900408Y-30734000D01*
X49630510Y-30787686D01*
X49376273Y-30892995D01*
X49147465Y-31045880D01*
X48952880Y-31240465D01*
X48799995Y-31469273D01*
X48768000Y-31546515D01*
X48736005Y-31469273D01*
X48583120Y-31240465D01*
X48388535Y-31045880D01*
X48159727Y-30892995D01*
X47905490Y-30787686D01*
X47635592Y-30734000D01*
X47360408Y-30734000D01*
X47090510Y-30787686D01*
X46836273Y-30892995D01*
X46607465Y-31045880D01*
X46412880Y-31240465D01*
X46259995Y-31469273D01*
X46228000Y-31546515D01*
X46196005Y-31469273D01*
X46043120Y-31240465D01*
X45848535Y-31045880D01*
X45619727Y-30892995D01*
X45365490Y-30787686D01*
X45095592Y-30734000D01*
X44820408Y-30734000D01*
X44550510Y-30787686D01*
X44296273Y-30892995D01*
X44067465Y-31045880D01*
X43872880Y-31240465D01*
X43719995Y-31469273D01*
X43688000Y-31546515D01*
X43656005Y-31469273D01*
X43503120Y-31240465D01*
X43308535Y-31045880D01*
X43079727Y-30892995D01*
X42825490Y-30787686D01*
X42555592Y-30734000D01*
X42280408Y-30734000D01*
X42010510Y-30787686D01*
X41756273Y-30892995D01*
X41527465Y-31045880D01*
X41332880Y-31240465D01*
X41179995Y-31469273D01*
X41148000Y-31546515D01*
X41116005Y-31469273D01*
X40963120Y-31240465D01*
X40768535Y-31045880D01*
X40539727Y-30892995D01*
X40285490Y-30787686D01*
X40015592Y-30734000D01*
X39740408Y-30734000D01*
X39470510Y-30787686D01*
X39216273Y-30892995D01*
X38987465Y-31045880D01*
X38792880Y-31240465D01*
X38639995Y-31469273D01*
X38608000Y-31546515D01*
X38576005Y-31469273D01*
X38423120Y-31240465D01*
X38228535Y-31045880D01*
X37999727Y-30892995D01*
X37745490Y-30787686D01*
X37475592Y-30734000D01*
X37200408Y-30734000D01*
X36930510Y-30787686D01*
X36676273Y-30892995D01*
X36447465Y-31045880D01*
X36252880Y-31240465D01*
X36099995Y-31469273D01*
X36068000Y-31546515D01*
X36036005Y-31469273D01*
X35883120Y-31240465D01*
X35688535Y-31045880D01*
X35459727Y-30892995D01*
X35205490Y-30787686D01*
X34935592Y-30734000D01*
X34660408Y-30734000D01*
X34390510Y-30787686D01*
X34136273Y-30892995D01*
X33907465Y-31045880D01*
X33712880Y-31240465D01*
X33559995Y-31469273D01*
X33528000Y-31546515D01*
X33496005Y-31469273D01*
X33343120Y-31240465D01*
X33148535Y-31045880D01*
X32919727Y-30892995D01*
X32665490Y-30787686D01*
X32395592Y-30734000D01*
X32120408Y-30734000D01*
X31850510Y-30787686D01*
X31596273Y-30892995D01*
X31367465Y-31045880D01*
X31172880Y-31240465D01*
X31019995Y-31469273D01*
X30914686Y-31723510D01*
X30861000Y-31993408D01*
X30861000Y-32268592D01*
X30914686Y-32538490D01*
X31019995Y-32792727D01*
X31172880Y-33021535D01*
X31367465Y-33216120D01*
X31455465Y-33274920D01*
X31371518Y-33283188D01*
X31251820Y-33319498D01*
X31141506Y-33378463D01*
X31044815Y-33457815D01*
X30965463Y-33554506D01*
X30906498Y-33664820D01*
X30870188Y-33784518D01*
X30857928Y-33909000D01*
X30861000Y-34385250D01*
X31019750Y-34544000D01*
X32131000Y-34544000D01*
X32131000Y-34524000D01*
X32385000Y-34524000D01*
X32385000Y-34544000D01*
X32405000Y-34544000D01*
X32405000Y-34798000D01*
X32385000Y-34798000D01*
X32385000Y-35909250D01*
X32543750Y-36068000D01*
X33020000Y-36071072D01*
X33144482Y-36058812D01*
X33264180Y-36022502D01*
X33374494Y-35963537D01*
X33471185Y-35884185D01*
X33550537Y-35787494D01*
X33609502Y-35677180D01*
X33645812Y-35557482D01*
X33658072Y-35433000D01*
X33657912Y-35408272D01*
X33832435Y-35456960D01*
X34618395Y-34671000D01*
X33832435Y-33885040D01*
X33657912Y-33933728D01*
X33658072Y-33909000D01*
X33645812Y-33784518D01*
X33609502Y-33664820D01*
X33550537Y-33554506D01*
X33471185Y-33457815D01*
X33374494Y-33378463D01*
X33264180Y-33319498D01*
X33144482Y-33283188D01*
X33060535Y-33274920D01*
X33148535Y-33216120D01*
X33343120Y-33021535D01*
X33496005Y-32792727D01*
X33528000Y-32715485D01*
X33559995Y-32792727D01*
X33712880Y-33021535D01*
X33907465Y-33216120D01*
X34136273Y-33369005D01*
X34207943Y-33398692D01*
X34194977Y-33403364D01*
X34079020Y-33465344D01*
X34012040Y-33705435D01*
X34798000Y-34491395D01*
X35583960Y-33705435D01*
X35516980Y-33465344D01*
X35381240Y-33401515D01*
X35459727Y-33369005D01*
X35688535Y-33216120D01*
X35883120Y-33021535D01*
X36036005Y-32792727D01*
X36068000Y-32715485D01*
X36099995Y-32792727D01*
X36252880Y-33021535D01*
X36447465Y-33216120D01*
X36676273Y-33369005D01*
X36747943Y-33398692D01*
X36734977Y-33403364D01*
X36619020Y-33465344D01*
X36552040Y-33705435D01*
X37338000Y-34491395D01*
X38123960Y-33705435D01*
X38056980Y-33465344D01*
X37921240Y-33401515D01*
X37999727Y-33369005D01*
X38228535Y-33216120D01*
X38423120Y-33021535D01*
X38576005Y-32792727D01*
X38608000Y-32715485D01*
X38639995Y-32792727D01*
X38792880Y-33021535D01*
X38987465Y-33216120D01*
X39216273Y-33369005D01*
X39287943Y-33398692D01*
X39274977Y-33403364D01*
X39159020Y-33465344D01*
X39092040Y-33705435D01*
X39878000Y-34491395D01*
X40663960Y-33705435D01*
X40596980Y-33465344D01*
X40461240Y-33401515D01*
X40539727Y-33369005D01*
X40768535Y-33216120D01*
X40963120Y-33021535D01*
X41116005Y-32792727D01*
X41148000Y-32715485D01*
X41179995Y-32792727D01*
X41332880Y-33021535D01*
X41527465Y-33216120D01*
X41756273Y-33369005D01*
X41827943Y-33398692D01*
X41814977Y-33403364D01*
X41699020Y-33465344D01*
X41632040Y-33705435D01*
X42418000Y-34491395D01*
X43203960Y-33705435D01*
X43136980Y-33465344D01*
X43001240Y-33401515D01*
X43079727Y-33369005D01*
X43308535Y-33216120D01*
X43503120Y-33021535D01*
X43656005Y-32792727D01*
X43688000Y-32715485D01*
X43719995Y-32792727D01*
X43872880Y-33021535D01*
X44067465Y-33216120D01*
X44296273Y-33369005D01*
X44367943Y-33398692D01*
X44354977Y-33403364D01*
X44239020Y-33465344D01*
X44172040Y-33705435D01*
X44958000Y-34491395D01*
X45743960Y-33705435D01*
X45676980Y-33465344D01*
X45541240Y-33401515D01*
X45619727Y-33369005D01*
X45848535Y-33216120D01*
X46043120Y-33021535D01*
X46196005Y-32792727D01*
X46228000Y-32715485D01*
X46259995Y-32792727D01*
X46412880Y-33021535D01*
X46607465Y-33216120D01*
X46836273Y-33369005D01*
X46907943Y-33398692D01*
X46894977Y-33403364D01*
X46779020Y-33465344D01*
X46712040Y-33705435D01*
X47498000Y-34491395D01*
X48283960Y-33705435D01*
X48216980Y-33465344D01*
X48081240Y-33401515D01*
X48159727Y-33369005D01*
X48388535Y-33216120D01*
X48583120Y-33021535D01*
X48736005Y-32792727D01*
X48768000Y-32715485D01*
X48799995Y-32792727D01*
X48952880Y-33021535D01*
X49147465Y-33216120D01*
X49376273Y-33369005D01*
X49447943Y-33398692D01*
X49434977Y-33403364D01*
X49319020Y-33465344D01*
X49252040Y-33705435D01*
X50038000Y-34491395D01*
X50823960Y-33705435D01*
X50756980Y-33465344D01*
X50621240Y-33401515D01*
X50699727Y-33369005D01*
X50928535Y-33216120D01*
X51123120Y-33021535D01*
X51276005Y-32792727D01*
X51308000Y-32715485D01*
X51339995Y-32792727D01*
X51492880Y-33021535D01*
X51687465Y-33216120D01*
X51916273Y-33369005D01*
X51987943Y-33398692D01*
X51974977Y-33403364D01*
X51859020Y-33465344D01*
X51792040Y-33705435D01*
X52578000Y-34491395D01*
X53363960Y-33705435D01*
X53296980Y-33465344D01*
X53161240Y-33401515D01*
X53239727Y-33369005D01*
X53468535Y-33216120D01*
X53663120Y-33021535D01*
X53816005Y-32792727D01*
X53848000Y-32715485D01*
X53879995Y-32792727D01*
X54032880Y-33021535D01*
X54227465Y-33216120D01*
X54456273Y-33369005D01*
X54527943Y-33398692D01*
X54514977Y-33403364D01*
X54399020Y-33465344D01*
X54332040Y-33705435D01*
X55118000Y-34491395D01*
X55903960Y-33705435D01*
X55836980Y-33465344D01*
X55701240Y-33401515D01*
X55779727Y-33369005D01*
X56008535Y-33216120D01*
X56203120Y-33021535D01*
X56356005Y-32792727D01*
X56388000Y-32715485D01*
X56419995Y-32792727D01*
X56572880Y-33021535D01*
X56767465Y-33216120D01*
X56996273Y-33369005D01*
X57067943Y-33398692D01*
X57054977Y-33403364D01*
X56939020Y-33465344D01*
X56872040Y-33705435D01*
X57658000Y-34491395D01*
X58443960Y-33705435D01*
X58376980Y-33465344D01*
X58241240Y-33401515D01*
X58319727Y-33369005D01*
X58548535Y-33216120D01*
X58743120Y-33021535D01*
X58896005Y-32792727D01*
X58928000Y-32715485D01*
X58959995Y-32792727D01*
X59112880Y-33021535D01*
X59307465Y-33216120D01*
X59536273Y-33369005D01*
X59607943Y-33398692D01*
X59594977Y-33403364D01*
X59479020Y-33465344D01*
X59412040Y-33705435D01*
X60198000Y-34491395D01*
X60983960Y-33705435D01*
X60916980Y-33465344D01*
X60781240Y-33401515D01*
X60859727Y-33369005D01*
X61088535Y-33216120D01*
X61283120Y-33021535D01*
X61436005Y-32792727D01*
X61468000Y-32715485D01*
X61499995Y-32792727D01*
X61652880Y-33021535D01*
X61847465Y-33216120D01*
X62076273Y-33369005D01*
X62147943Y-33398692D01*
X62134977Y-33403364D01*
X62019020Y-33465344D01*
X61952040Y-33705435D01*
X62738000Y-34491395D01*
X63523960Y-33705435D01*
X63456980Y-33465344D01*
X63321240Y-33401515D01*
X63399727Y-33369005D01*
X63628535Y-33216120D01*
X63823120Y-33021535D01*
X63976005Y-32792727D01*
X64008000Y-32715485D01*
X64039995Y-32792727D01*
X64192880Y-33021535D01*
X64387465Y-33216120D01*
X64616273Y-33369005D01*
X64687943Y-33398692D01*
X64674977Y-33403364D01*
X64559020Y-33465344D01*
X64492040Y-33705435D01*
X65278000Y-34491395D01*
X66063960Y-33705435D01*
X65996980Y-33465344D01*
X65861240Y-33401515D01*
X65939727Y-33369005D01*
X66168535Y-33216120D01*
X66363120Y-33021535D01*
X66516005Y-32792727D01*
X66548000Y-32715485D01*
X66579995Y-32792727D01*
X66732880Y-33021535D01*
X66927465Y-33216120D01*
X67156273Y-33369005D01*
X67227943Y-33398692D01*
X67214977Y-33403364D01*
X67099020Y-33465344D01*
X67032040Y-33705435D01*
X67818000Y-34491395D01*
X68603960Y-33705435D01*
X68536980Y-33465344D01*
X68401240Y-33401515D01*
X68479727Y-33369005D01*
X68708535Y-33216120D01*
X68903120Y-33021535D01*
X69056005Y-32792727D01*
X69088000Y-32715485D01*
X69119995Y-32792727D01*
X69272880Y-33021535D01*
X69467465Y-33216120D01*
X69696273Y-33369005D01*
X69767943Y-33398692D01*
X69754977Y-33403364D01*
X69639020Y-33465344D01*
X69572040Y-33705435D01*
X70358000Y-34491395D01*
X71143960Y-33705435D01*
X71076980Y-33465344D01*
X70941240Y-33401515D01*
X71019727Y-33369005D01*
X71248535Y-33216120D01*
X71443120Y-33021535D01*
X71596005Y-32792727D01*
X71628000Y-32715485D01*
X71659995Y-32792727D01*
X71812880Y-33021535D01*
X72007465Y-33216120D01*
X72236273Y-33369005D01*
X72307943Y-33398692D01*
X72294977Y-33403364D01*
X72179020Y-33465344D01*
X72112040Y-33705435D01*
X72898000Y-34491395D01*
X73683960Y-33705435D01*
X73616980Y-33465344D01*
X73481240Y-33401515D01*
X73559727Y-33369005D01*
X73788535Y-33216120D01*
X73983120Y-33021535D01*
X74136005Y-32792727D01*
X74241314Y-32538490D01*
X74295000Y-32268592D01*
X74295000Y-31993408D01*
X74241314Y-31723510D01*
X74136005Y-31469273D01*
X73983120Y-31240465D01*
X73788535Y-31045880D01*
X73559727Y-30892995D01*
X73305490Y-30787686D01*
X73035592Y-30734000D01*
X72760408Y-30734000D01*
X72490510Y-30787686D01*
X72236273Y-30892995D01*
X72007465Y-31045880D01*
X71812880Y-31240465D01*
X71659995Y-31469273D01*
X71628000Y-31546515D01*
X71596005Y-31469273D01*
X71443120Y-31240465D01*
X71248535Y-31045880D01*
X71019727Y-30892995D01*
X70765490Y-30787686D01*
X70495592Y-30734000D01*
X70220408Y-30734000D01*
X69950510Y-30787686D01*
X69696273Y-30892995D01*
X69467465Y-31045880D01*
X69272880Y-31240465D01*
X69119995Y-31469273D01*
X69088000Y-31546515D01*
X69056005Y-31469273D01*
X68903120Y-31240465D01*
X68708535Y-31045880D01*
X68479727Y-30892995D01*
X68225490Y-30787686D01*
X67955592Y-30734000D01*
X67680408Y-30734000D01*
X67410510Y-30787686D01*
X67156273Y-30892995D01*
X66927465Y-31045880D01*
X66732880Y-31240465D01*
X66579995Y-31469273D01*
X66548000Y-31546515D01*
X66516005Y-31469273D01*
X66363120Y-31240465D01*
X66168535Y-31045880D01*
X65939727Y-30892995D01*
X65685490Y-30787686D01*
X65415592Y-30734000D01*
X65140408Y-30734000D01*
X64870510Y-30787686D01*
X64616273Y-30892995D01*
X64387465Y-31045880D01*
X64192880Y-31240465D01*
X64039995Y-31469273D01*
X64008000Y-31546515D01*
X63976005Y-31469273D01*
X63823120Y-31240465D01*
X63628535Y-31045880D01*
X63399727Y-30892995D01*
X63145490Y-30787686D01*
X62875592Y-30734000D01*
X62600408Y-30734000D01*
X62330510Y-30787686D01*
X62076273Y-30892995D01*
X61847465Y-31045880D01*
X61652880Y-31240465D01*
X61499995Y-31469273D01*
X61468000Y-31546515D01*
X61436005Y-31469273D01*
X61283120Y-31240465D01*
X61088535Y-31045880D01*
X60859727Y-30892995D01*
X60605490Y-30787686D01*
X60335592Y-30734000D01*
X60060408Y-30734000D01*
X59790510Y-30787686D01*
X59536273Y-30892995D01*
X59307465Y-31045880D01*
X59112880Y-31240465D01*
X58959995Y-31469273D01*
X58928000Y-31546515D01*
X58896005Y-31469273D01*
X58743120Y-31240465D01*
X58548535Y-31045880D01*
X58319727Y-30892995D01*
X58065490Y-30787686D01*
X57795592Y-30734000D01*
X57520408Y-30734000D01*
X57250510Y-30787686D01*
X56996273Y-30892995D01*
X56767465Y-31045880D01*
X56572880Y-31240465D01*
X56419995Y-31469273D01*
X56388000Y-31546515D01*
X56356005Y-31469273D01*
X56203120Y-31240465D01*
X56008535Y-31045880D01*
X55779727Y-30892995D01*
X55525490Y-30787686D01*
X55255592Y-30734000D01*
X54980408Y-30734000D01*
X54710510Y-30787686D01*
X54456273Y-30892995D01*
X54227465Y-31045880D01*
X54032880Y-31240465D01*
X53879995Y-31469273D01*
X53848000Y-31546515D01*
X53816005Y-31469273D01*
X53663120Y-31240465D01*
X53468535Y-31045880D01*
X53239727Y-30892995D01*
X52985490Y-30787686D01*
X52715592Y-30734000D01*
X52440408Y-30734000D01*
X52286430Y-30764628D01*
X51369500Y-29847699D01*
X51369500Y-27778841D01*
X51500035Y-27691620D01*
X51694620Y-27497035D01*
X51847505Y-27268227D01*
X51879500Y-27190985D01*
X51911495Y-27268227D01*
X52064380Y-27497035D01*
X52258965Y-27691620D01*
X52487773Y-27844505D01*
X52742010Y-27949814D01*
X53011908Y-28003500D01*
X53287092Y-28003500D01*
X53556990Y-27949814D01*
X53811227Y-27844505D01*
X54040035Y-27691620D01*
X54234620Y-27497035D01*
X54387505Y-27268227D01*
X54419500Y-27190985D01*
X54451495Y-27268227D01*
X54604380Y-27497035D01*
X54798965Y-27691620D01*
X55027773Y-27844505D01*
X55282010Y-27949814D01*
X55551908Y-28003500D01*
X55827092Y-28003500D01*
X56096990Y-27949814D01*
X56351227Y-27844505D01*
X56580035Y-27691620D01*
X56774620Y-27497035D01*
X56927505Y-27268227D01*
X56959500Y-27190985D01*
X56991495Y-27268227D01*
X57144380Y-27497035D01*
X57338965Y-27691620D01*
X57567773Y-27844505D01*
X57822010Y-27949814D01*
X58091908Y-28003500D01*
X58367092Y-28003500D01*
X58636990Y-27949814D01*
X58891227Y-27844505D01*
X59120035Y-27691620D01*
X59314620Y-27497035D01*
X59467505Y-27268227D01*
X59499500Y-27190985D01*
X59531495Y-27268227D01*
X59684380Y-27497035D01*
X59878965Y-27691620D01*
X60107773Y-27844505D01*
X60362010Y-27949814D01*
X60631908Y-28003500D01*
X60907092Y-28003500D01*
X61176990Y-27949814D01*
X61431227Y-27844505D01*
X61660035Y-27691620D01*
X61854620Y-27497035D01*
X62007505Y-27268227D01*
X62039500Y-27190985D01*
X62071495Y-27268227D01*
X62224380Y-27497035D01*
X62418965Y-27691620D01*
X62647773Y-27844505D01*
X62902010Y-27949814D01*
X63171908Y-28003500D01*
X63447092Y-28003500D01*
X63716990Y-27949814D01*
X63971227Y-27844505D01*
X64200035Y-27691620D01*
X64394620Y-27497035D01*
X64547505Y-27268227D01*
X64579500Y-27190985D01*
X64611495Y-27268227D01*
X64764380Y-27497035D01*
X64958965Y-27691620D01*
X65187773Y-27844505D01*
X65442010Y-27949814D01*
X65711908Y-28003500D01*
X65987092Y-28003500D01*
X66256990Y-27949814D01*
X66511227Y-27844505D01*
X66740035Y-27691620D01*
X66934620Y-27497035D01*
X67087505Y-27268227D01*
X67119500Y-27190985D01*
X67151495Y-27268227D01*
X67304380Y-27497035D01*
X67498965Y-27691620D01*
X67727773Y-27844505D01*
X67982010Y-27949814D01*
X68251908Y-28003500D01*
X68527092Y-28003500D01*
X68796990Y-27949814D01*
X69051227Y-27844505D01*
X69280035Y-27691620D01*
X69474620Y-27497035D01*
X69627505Y-27268227D01*
X69659500Y-27190985D01*
X69691495Y-27268227D01*
X69844380Y-27497035D01*
X70038965Y-27691620D01*
X70267773Y-27844505D01*
X70522010Y-27949814D01*
X70791908Y-28003500D01*
X71067092Y-28003500D01*
X71336990Y-27949814D01*
X71591227Y-27844505D01*
X71820035Y-27691620D01*
X72014620Y-27497035D01*
X72167505Y-27268227D01*
X72272814Y-27013990D01*
X72326500Y-26744092D01*
X72326500Y-26468908D01*
X72272814Y-26199010D01*
X72167505Y-25944773D01*
X72014620Y-25715965D01*
X71820035Y-25521380D01*
X71732035Y-25462580D01*
X71815982Y-25454312D01*
X71935680Y-25418002D01*
X72045994Y-25359037D01*
X72142685Y-25279685D01*
X72222037Y-25182994D01*
X72281002Y-25072680D01*
X72317312Y-24952982D01*
X72329572Y-24828500D01*
X72329572Y-23304500D01*
X72317312Y-23180018D01*
X72281002Y-23060320D01*
X72222037Y-22950006D01*
X72142685Y-22853315D01*
X72045994Y-22773963D01*
X71935680Y-22714998D01*
X71815982Y-22678688D01*
X71691500Y-22666428D01*
X70167500Y-22666428D01*
X70043018Y-22678688D01*
X69923320Y-22714998D01*
X69813006Y-22773963D01*
X69716315Y-22853315D01*
X69636963Y-22950006D01*
X69577998Y-23060320D01*
X69541688Y-23180018D01*
X69533420Y-23263965D01*
X69474620Y-23175965D01*
X69280035Y-22981380D01*
X69051227Y-22828495D01*
X68796990Y-22723186D01*
X68527092Y-22669500D01*
X68251908Y-22669500D01*
X67982010Y-22723186D01*
X67727773Y-22828495D01*
X67498965Y-22981380D01*
X67304380Y-23175965D01*
X67151495Y-23404773D01*
X67119500Y-23482015D01*
X67087505Y-23404773D01*
X66934620Y-23175965D01*
X66740035Y-22981380D01*
X66511227Y-22828495D01*
X66256990Y-22723186D01*
X65987092Y-22669500D01*
X65711908Y-22669500D01*
X65442010Y-22723186D01*
X65187773Y-22828495D01*
X64958965Y-22981380D01*
X64764380Y-23175965D01*
X64727273Y-23231500D01*
X64431727Y-23231500D01*
X64394620Y-23175965D01*
X64200035Y-22981380D01*
X63971227Y-22828495D01*
X63716990Y-22723186D01*
X63447092Y-22669500D01*
X63171908Y-22669500D01*
X62902010Y-22723186D01*
X62647773Y-22828495D01*
X62418965Y-22981380D01*
X62224380Y-23175965D01*
X62187273Y-23231500D01*
X61891727Y-23231500D01*
X61854620Y-23175965D01*
X61660035Y-22981380D01*
X61431227Y-22828495D01*
X61176990Y-22723186D01*
X60907092Y-22669500D01*
X60631908Y-22669500D01*
X60362010Y-22723186D01*
X60107773Y-22828495D01*
X59878965Y-22981380D01*
X59684380Y-23175965D01*
X59647273Y-23231500D01*
X59351727Y-23231500D01*
X59314620Y-23175965D01*
X59120035Y-22981380D01*
X58891227Y-22828495D01*
X58636990Y-22723186D01*
X58367092Y-22669500D01*
X58091908Y-22669500D01*
X58026398Y-22682531D01*
X56323867Y-20980000D01*
X76048000Y-20980000D01*
X76048001Y-37440000D01*
X68471988Y-37440000D01*
X68472000Y-37439939D01*
X68472000Y-37236061D01*
X68432226Y-37036102D01*
X68354205Y-36847744D01*
X68240937Y-36678226D01*
X68233286Y-36670575D01*
X68305226Y-36496898D01*
X68345000Y-36296939D01*
X68345000Y-36093061D01*
X68321422Y-35974525D01*
X68421023Y-35938636D01*
X68536980Y-35876656D01*
X68603960Y-35636565D01*
X69572040Y-35636565D01*
X69639020Y-35876656D01*
X69888048Y-35993756D01*
X70155135Y-36060023D01*
X70430017Y-36072910D01*
X70702133Y-36031922D01*
X70961023Y-35938636D01*
X71076980Y-35876656D01*
X71143960Y-35636565D01*
X72112040Y-35636565D01*
X72179020Y-35876656D01*
X72428048Y-35993756D01*
X72695135Y-36060023D01*
X72970017Y-36072910D01*
X73242133Y-36031922D01*
X73501023Y-35938636D01*
X73616980Y-35876656D01*
X73683960Y-35636565D01*
X72898000Y-34850605D01*
X72112040Y-35636565D01*
X71143960Y-35636565D01*
X70358000Y-34850605D01*
X69572040Y-35636565D01*
X68603960Y-35636565D01*
X67818000Y-34850605D01*
X67803858Y-34864748D01*
X67624253Y-34685143D01*
X67638395Y-34671000D01*
X67997605Y-34671000D01*
X68783565Y-35456960D01*
X69023656Y-35389980D01*
X69085079Y-35259356D01*
X69090364Y-35274023D01*
X69152344Y-35389980D01*
X69392435Y-35456960D01*
X70178395Y-34671000D01*
X70537605Y-34671000D01*
X71323565Y-35456960D01*
X71563656Y-35389980D01*
X71625079Y-35259356D01*
X71630364Y-35274023D01*
X71692344Y-35389980D01*
X71932435Y-35456960D01*
X72718395Y-34671000D01*
X73077605Y-34671000D01*
X73863565Y-35456960D01*
X74103656Y-35389980D01*
X74220756Y-35140952D01*
X74287023Y-34873865D01*
X74299910Y-34598983D01*
X74258922Y-34326867D01*
X74165636Y-34067977D01*
X74103656Y-33952020D01*
X73863565Y-33885040D01*
X73077605Y-34671000D01*
X72718395Y-34671000D01*
X71932435Y-33885040D01*
X71692344Y-33952020D01*
X71630921Y-34082644D01*
X71625636Y-34067977D01*
X71563656Y-33952020D01*
X71323565Y-33885040D01*
X70537605Y-34671000D01*
X70178395Y-34671000D01*
X69392435Y-33885040D01*
X69152344Y-33952020D01*
X69090921Y-34082644D01*
X69085636Y-34067977D01*
X69023656Y-33952020D01*
X68783565Y-33885040D01*
X67997605Y-34671000D01*
X67638395Y-34671000D01*
X66852435Y-33885040D01*
X66612344Y-33952020D01*
X66550921Y-34082644D01*
X66545636Y-34067977D01*
X66483656Y-33952020D01*
X66243565Y-33885040D01*
X65457605Y-34671000D01*
X65471748Y-34685143D01*
X65292143Y-34864748D01*
X65278000Y-34850605D01*
X65263858Y-34864748D01*
X65084253Y-34685143D01*
X65098395Y-34671000D01*
X64312435Y-33885040D01*
X64072344Y-33952020D01*
X64010921Y-34082644D01*
X64005636Y-34067977D01*
X63943656Y-33952020D01*
X63703565Y-33885040D01*
X62917605Y-34671000D01*
X62931748Y-34685143D01*
X62752143Y-34864748D01*
X62738000Y-34850605D01*
X62723858Y-34864748D01*
X62544253Y-34685143D01*
X62558395Y-34671000D01*
X61772435Y-33885040D01*
X61532344Y-33952020D01*
X61470921Y-34082644D01*
X61465636Y-34067977D01*
X61403656Y-33952020D01*
X61163565Y-33885040D01*
X60377605Y-34671000D01*
X60391748Y-34685143D01*
X60212143Y-34864748D01*
X60198000Y-34850605D01*
X60183858Y-34864748D01*
X60004253Y-34685143D01*
X60018395Y-34671000D01*
X59232435Y-33885040D01*
X58992344Y-33952020D01*
X58930921Y-34082644D01*
X58925636Y-34067977D01*
X58863656Y-33952020D01*
X58623565Y-33885040D01*
X57837605Y-34671000D01*
X57851748Y-34685143D01*
X57672143Y-34864748D01*
X57658000Y-34850605D01*
X57643858Y-34864748D01*
X57464253Y-34685143D01*
X57478395Y-34671000D01*
X56692435Y-33885040D01*
X56452344Y-33952020D01*
X56390921Y-34082644D01*
X56385636Y-34067977D01*
X56323656Y-33952020D01*
X56083565Y-33885040D01*
X55297605Y-34671000D01*
X55311748Y-34685143D01*
X55132143Y-34864748D01*
X55118000Y-34850605D01*
X55103858Y-34864748D01*
X54924253Y-34685143D01*
X54938395Y-34671000D01*
X54152435Y-33885040D01*
X53912344Y-33952020D01*
X53850921Y-34082644D01*
X53845636Y-34067977D01*
X53783656Y-33952020D01*
X53543565Y-33885040D01*
X52757605Y-34671000D01*
X52771748Y-34685143D01*
X52592143Y-34864748D01*
X52578000Y-34850605D01*
X52563858Y-34864748D01*
X52384253Y-34685143D01*
X52398395Y-34671000D01*
X51612435Y-33885040D01*
X51372344Y-33952020D01*
X51310921Y-34082644D01*
X51305636Y-34067977D01*
X51243656Y-33952020D01*
X51003565Y-33885040D01*
X50217605Y-34671000D01*
X50231748Y-34685143D01*
X50052143Y-34864748D01*
X50038000Y-34850605D01*
X50023858Y-34864748D01*
X49844253Y-34685143D01*
X49858395Y-34671000D01*
X49072435Y-33885040D01*
X48832344Y-33952020D01*
X48770921Y-34082644D01*
X48765636Y-34067977D01*
X48703656Y-33952020D01*
X48463565Y-33885040D01*
X47677605Y-34671000D01*
X47691748Y-34685143D01*
X47512143Y-34864748D01*
X47498000Y-34850605D01*
X47483858Y-34864748D01*
X47304253Y-34685143D01*
X47318395Y-34671000D01*
X46532435Y-33885040D01*
X46292344Y-33952020D01*
X46230921Y-34082644D01*
X46225636Y-34067977D01*
X46163656Y-33952020D01*
X45923565Y-33885040D01*
X45137605Y-34671000D01*
X45151748Y-34685143D01*
X44972143Y-34864748D01*
X44958000Y-34850605D01*
X44943858Y-34864748D01*
X44764253Y-34685143D01*
X44778395Y-34671000D01*
X43992435Y-33885040D01*
X43752344Y-33952020D01*
X43690921Y-34082644D01*
X43685636Y-34067977D01*
X43623656Y-33952020D01*
X43383565Y-33885040D01*
X42597605Y-34671000D01*
X42611748Y-34685143D01*
X42432143Y-34864748D01*
X42418000Y-34850605D01*
X42403858Y-34864748D01*
X42224253Y-34685143D01*
X42238395Y-34671000D01*
X41452435Y-33885040D01*
X41212344Y-33952020D01*
X41150921Y-34082644D01*
X41145636Y-34067977D01*
X41083656Y-33952020D01*
X40843565Y-33885040D01*
X40057605Y-34671000D01*
X40071748Y-34685143D01*
X39892143Y-34864748D01*
X39878000Y-34850605D01*
X39863858Y-34864748D01*
X39684253Y-34685143D01*
X39698395Y-34671000D01*
X38912435Y-33885040D01*
X38672344Y-33952020D01*
X38610921Y-34082644D01*
X38605636Y-34067977D01*
X38543656Y-33952020D01*
X38303565Y-33885040D01*
X37517605Y-34671000D01*
X37531748Y-34685143D01*
X37352143Y-34864748D01*
X37338000Y-34850605D01*
X37323858Y-34864748D01*
X37144253Y-34685143D01*
X37158395Y-34671000D01*
X36372435Y-33885040D01*
X36132344Y-33952020D01*
X36070921Y-34082644D01*
X36065636Y-34067977D01*
X36003656Y-33952020D01*
X35763565Y-33885040D01*
X34977605Y-34671000D01*
X34991748Y-34685143D01*
X34812143Y-34864748D01*
X34798000Y-34850605D01*
X34012040Y-35636565D01*
X34079020Y-35876656D01*
X34328048Y-35993756D01*
X34595135Y-36060023D01*
X34870017Y-36072910D01*
X34911243Y-36066700D01*
X34906000Y-36093061D01*
X34906000Y-36296939D01*
X34945774Y-36496898D01*
X35023795Y-36685256D01*
X35137063Y-36854774D01*
X35281226Y-36998937D01*
X35450744Y-37112205D01*
X35556891Y-37156173D01*
X35541000Y-37236061D01*
X35541000Y-37439939D01*
X35541012Y-37440000D01*
X15900000Y-37440000D01*
X15900000Y-35433000D01*
X30857928Y-35433000D01*
X30870188Y-35557482D01*
X30906498Y-35677180D01*
X30965463Y-35787494D01*
X31044815Y-35884185D01*
X31141506Y-35963537D01*
X31251820Y-36022502D01*
X31371518Y-36058812D01*
X31496000Y-36071072D01*
X31972250Y-36068000D01*
X32131000Y-35909250D01*
X32131000Y-34798000D01*
X31019750Y-34798000D01*
X30861000Y-34956750D01*
X30857928Y-35433000D01*
X15900000Y-35433000D01*
X15900000Y-33254740D01*
X15977500Y-33254740D01*
X15977500Y-33547260D01*
X16034568Y-33834158D01*
X16146510Y-34104411D01*
X16309025Y-34347632D01*
X16515868Y-34554475D01*
X16759089Y-34716990D01*
X17029342Y-34828932D01*
X17316240Y-34886000D01*
X17608760Y-34886000D01*
X17895658Y-34828932D01*
X18165911Y-34716990D01*
X18409132Y-34554475D01*
X18615975Y-34347632D01*
X18737695Y-34165466D01*
X18807322Y-34282355D01*
X19002231Y-34498588D01*
X19235580Y-34672641D01*
X19498401Y-34797825D01*
X19645610Y-34842476D01*
X19875500Y-34721155D01*
X19875500Y-33528000D01*
X20129500Y-33528000D01*
X20129500Y-34721155D01*
X20359390Y-34842476D01*
X20506599Y-34797825D01*
X20769420Y-34672641D01*
X21002769Y-34498588D01*
X21197678Y-34282355D01*
X21272500Y-34156745D01*
X21347322Y-34282355D01*
X21542231Y-34498588D01*
X21775580Y-34672641D01*
X22038401Y-34797825D01*
X22185610Y-34842476D01*
X22415500Y-34721155D01*
X22415500Y-33528000D01*
X20129500Y-33528000D01*
X19875500Y-33528000D01*
X19855500Y-33528000D01*
X19855500Y-33274000D01*
X19875500Y-33274000D01*
X19875500Y-32080845D01*
X20129500Y-32080845D01*
X20129500Y-33274000D01*
X22415500Y-33274000D01*
X22415500Y-32080845D01*
X22185610Y-31959524D01*
X22038401Y-32004175D01*
X21775580Y-32129359D01*
X21542231Y-32303412D01*
X21347322Y-32519645D01*
X21272500Y-32645255D01*
X21197678Y-32519645D01*
X21002769Y-32303412D01*
X20769420Y-32129359D01*
X20506599Y-32004175D01*
X20359390Y-31959524D01*
X20129500Y-32080845D01*
X19875500Y-32080845D01*
X19645610Y-31959524D01*
X19498401Y-32004175D01*
X19235580Y-32129359D01*
X19002231Y-32303412D01*
X18807322Y-32519645D01*
X18737695Y-32636534D01*
X18615975Y-32454368D01*
X18409132Y-32247525D01*
X18165911Y-32085010D01*
X17895658Y-31973068D01*
X17608760Y-31916000D01*
X17316240Y-31916000D01*
X17029342Y-31973068D01*
X16759089Y-32085010D01*
X16515868Y-32247525D01*
X16309025Y-32454368D01*
X16146510Y-32697589D01*
X16034568Y-32967842D01*
X15977500Y-33254740D01*
X15900000Y-33254740D01*
X15900000Y-20980000D01*
X28004132Y-20980000D01*
X24521079Y-24463054D01*
M02*
