%FSLAX45Y45*%
G04 Gerber Fmt 4.5, Leading zero omitted, Abs format (unit mm)*
G04 Created by KiCad (PCBNEW (5.1.5-0-10_14)) date 2020-03-21 13:08:16*
%MOMM*%
%LPD*%
G04 APERTURE LIST*
%TA.AperFunction,Profile*%
%ADD10C,0.050000*%
%TD*%
%ADD11C,0.200000*%
%ADD12C,0.300000*%
G04 APERTURE END LIST*
D10*
X1524000Y-2032000D02*
X7670800Y-2032000D01*
X1524000Y-3810000D02*
X1524000Y-2032000D01*
X7670800Y-3810000D02*
X1524000Y-3810000D01*
X7670800Y-2032000D02*
X7670800Y-3810000D01*
D11*
X3574100Y-3599500D02*
X3614100Y-3639500D01*
X3614100Y-3599500D02*
X3574100Y-3639500D01*
X3637600Y-3713800D02*
X3677600Y-3753800D01*
X3677600Y-3713800D02*
X3637600Y-3753800D01*
X6711000Y-3599500D02*
X6751000Y-3639500D01*
X6751000Y-3599500D02*
X6711000Y-3639500D01*
X6723700Y-3713800D02*
X6763700Y-3753800D01*
X6763700Y-3713800D02*
X6723700Y-3753800D01*
X3077200Y-2406650D02*
G75*
G03X3077200Y-2406650I-48250J0D01*
G01*
X3077200Y-2660650D02*
G75*
G03X3077200Y-2660650I-48250J0D01*
G01*
X3331200Y-2406650D02*
G75*
G03X3331200Y-2406650I-48250J0D01*
G01*
X3331200Y-2660650D02*
G75*
G03X3331200Y-2660650I-48250J0D01*
G01*
X3585200Y-2406650D02*
G75*
G03X3585200Y-2406650I-48250J0D01*
G01*
X3585200Y-2660650D02*
G75*
G03X3585200Y-2660650I-48250J0D01*
G01*
X3839200Y-2406650D02*
G75*
G03X3839200Y-2406650I-48250J0D01*
G01*
X3839200Y-2660650D02*
G75*
G03X3839200Y-2660650I-48250J0D01*
G01*
X4093200Y-2406650D02*
G75*
G03X4093200Y-2406650I-48250J0D01*
G01*
X4093200Y-2660650D02*
G75*
G03X4093200Y-2660650I-48250J0D01*
G01*
X4347200Y-2406650D02*
G75*
G03X4347200Y-2406650I-48250J0D01*
G01*
X4347200Y-2660650D02*
G75*
G03X4347200Y-2660650I-48250J0D01*
G01*
X4601200Y-2406650D02*
G75*
G03X4601200Y-2406650I-48250J0D01*
G01*
X4601200Y-2660650D02*
G75*
G03X4601200Y-2660650I-48250J0D01*
G01*
X4855200Y-2406650D02*
G75*
G03X4855200Y-2406650I-48250J0D01*
G01*
X4855200Y-2660650D02*
G75*
G03X4855200Y-2660650I-48250J0D01*
G01*
X5109200Y-2406650D02*
G75*
G03X5109200Y-2406650I-48250J0D01*
G01*
X5109200Y-2660650D02*
G75*
G03X5109200Y-2660650I-48250J0D01*
G01*
X5363200Y-2406650D02*
G75*
G03X5363200Y-2406650I-48250J0D01*
G01*
X5363200Y-2660650D02*
G75*
G03X5363200Y-2660650I-48250J0D01*
G01*
X5617200Y-2406650D02*
G75*
G03X5617200Y-2406650I-48250J0D01*
G01*
X5617200Y-2660650D02*
G75*
G03X5617200Y-2660650I-48250J0D01*
G01*
X5871200Y-2406650D02*
G75*
G03X5871200Y-2406650I-48250J0D01*
G01*
X5871200Y-2660650D02*
G75*
G03X5871200Y-2660650I-48250J0D01*
G01*
X6125200Y-2406650D02*
G75*
G03X6125200Y-2406650I-48250J0D01*
G01*
X6125200Y-2660650D02*
G75*
G03X6125200Y-2660650I-48250J0D01*
G01*
X6379200Y-2406650D02*
G75*
G03X6379200Y-2406650I-48250J0D01*
G01*
X6379200Y-2660650D02*
G75*
G03X6379200Y-2660650I-48250J0D01*
G01*
X6633200Y-2406650D02*
G75*
G03X6633200Y-2406650I-48250J0D01*
G01*
X6633200Y-2660650D02*
G75*
G03X6633200Y-2660650I-48250J0D01*
G01*
X6887200Y-2406650D02*
G75*
G03X6887200Y-2406650I-48250J0D01*
G01*
X6887200Y-2660650D02*
G75*
G03X6887200Y-2660650I-48250J0D01*
G01*
X7141200Y-2406650D02*
G75*
G03X7141200Y-2406650I-48250J0D01*
G01*
X7141200Y-2660650D02*
G75*
G03X7141200Y-2660650I-48250J0D01*
G01*
X3274050Y-3213100D02*
G75*
G03X3274050Y-3213100I-48250J0D01*
G01*
X3274050Y-3467100D02*
G75*
G03X3274050Y-3467100I-48250J0D01*
G01*
X3528050Y-3213100D02*
G75*
G03X3528050Y-3213100I-48250J0D01*
G01*
X3528050Y-3467100D02*
G75*
G03X3528050Y-3467100I-48250J0D01*
G01*
X3782050Y-3213100D02*
G75*
G03X3782050Y-3213100I-48250J0D01*
G01*
X3782050Y-3467100D02*
G75*
G03X3782050Y-3467100I-48250J0D01*
G01*
X4036050Y-3213100D02*
G75*
G03X4036050Y-3213100I-48250J0D01*
G01*
X4036050Y-3467100D02*
G75*
G03X4036050Y-3467100I-48250J0D01*
G01*
X4290050Y-3213100D02*
G75*
G03X4290050Y-3213100I-48250J0D01*
G01*
X4290050Y-3467100D02*
G75*
G03X4290050Y-3467100I-48250J0D01*
G01*
X4544050Y-3213100D02*
G75*
G03X4544050Y-3213100I-48250J0D01*
G01*
X4544050Y-3467100D02*
G75*
G03X4544050Y-3467100I-48250J0D01*
G01*
X4798050Y-3213100D02*
G75*
G03X4798050Y-3213100I-48250J0D01*
G01*
X4798050Y-3467100D02*
G75*
G03X4798050Y-3467100I-48250J0D01*
G01*
X5052050Y-3213100D02*
G75*
G03X5052050Y-3213100I-48250J0D01*
G01*
X5052050Y-3467100D02*
G75*
G03X5052050Y-3467100I-48250J0D01*
G01*
X5306050Y-3213100D02*
G75*
G03X5306050Y-3213100I-48250J0D01*
G01*
X5306050Y-3467100D02*
G75*
G03X5306050Y-3467100I-48250J0D01*
G01*
X5560050Y-3213100D02*
G75*
G03X5560050Y-3213100I-48250J0D01*
G01*
X5560050Y-3467100D02*
G75*
G03X5560050Y-3467100I-48250J0D01*
G01*
X5814050Y-3213100D02*
G75*
G03X5814050Y-3213100I-48250J0D01*
G01*
X5814050Y-3467100D02*
G75*
G03X5814050Y-3467100I-48250J0D01*
G01*
X6068050Y-3213100D02*
G75*
G03X6068050Y-3213100I-48250J0D01*
G01*
X6068050Y-3467100D02*
G75*
G03X6068050Y-3467100I-48250J0D01*
G01*
X6322050Y-3213100D02*
G75*
G03X6322050Y-3213100I-48250J0D01*
G01*
X6322050Y-3467100D02*
G75*
G03X6322050Y-3467100I-48250J0D01*
G01*
X6576050Y-3213100D02*
G75*
G03X6576050Y-3213100I-48250J0D01*
G01*
X6576050Y-3467100D02*
G75*
G03X6576050Y-3467100I-48250J0D01*
G01*
X6830050Y-3213100D02*
G75*
G03X6830050Y-3213100I-48250J0D01*
G01*
X6830050Y-3467100D02*
G75*
G03X6830050Y-3467100I-48250J0D01*
G01*
X7084050Y-3213100D02*
G75*
G03X7084050Y-3213100I-48250J0D01*
G01*
X7084050Y-3467100D02*
G75*
G03X7084050Y-3467100I-48250J0D01*
G01*
X7338050Y-3213100D02*
G75*
G03X7338050Y-3213100I-48250J0D01*
G01*
X7338050Y-3467100D02*
G75*
G03X7338050Y-3467100I-48250J0D01*
G01*
X1746250Y-3290100D02*
X1746250Y-3390100D01*
X1696250Y-3340100D02*
X1796250Y-3340100D01*
X2000250Y-3290100D02*
X2000250Y-3390100D01*
X1950250Y-3340100D02*
X2050250Y-3340100D01*
X2254250Y-3290100D02*
X2254250Y-3390100D01*
X2204250Y-3340100D02*
X2304250Y-3340100D01*
X2508250Y-3290100D02*
X2508250Y-3390100D01*
X2458250Y-3340100D02*
X2558250Y-3340100D01*
D12*
X1807928Y-4278214D02*
X1807928Y-3978214D01*
X1879357Y-3978214D01*
X1922214Y-3992500D01*
X1950786Y-4021071D01*
X1965071Y-4049643D01*
X1979357Y-4106786D01*
X1979357Y-4149643D01*
X1965071Y-4206786D01*
X1950786Y-4235357D01*
X1922214Y-4263929D01*
X1879357Y-4278214D01*
X1807928Y-4278214D01*
X2107928Y-4278214D02*
X2107928Y-4078214D01*
X2107928Y-4135357D02*
X2122214Y-4106786D01*
X2136500Y-4092500D01*
X2165071Y-4078214D01*
X2193643Y-4078214D01*
X2293643Y-4278214D02*
X2293643Y-4078214D01*
X2293643Y-3978214D02*
X2279357Y-3992500D01*
X2293643Y-4006786D01*
X2307928Y-3992500D01*
X2293643Y-3978214D01*
X2293643Y-4006786D01*
X2479357Y-4278214D02*
X2450786Y-4263929D01*
X2436500Y-4235357D01*
X2436500Y-3978214D01*
X2636500Y-4278214D02*
X2607928Y-4263929D01*
X2593643Y-4235357D01*
X2593643Y-3978214D01*
X2979357Y-4278214D02*
X2979357Y-3978214D01*
X3079357Y-4192500D01*
X3179357Y-3978214D01*
X3179357Y-4278214D01*
X3450786Y-4278214D02*
X3450786Y-4121071D01*
X3436500Y-4092500D01*
X3407928Y-4078214D01*
X3350786Y-4078214D01*
X3322214Y-4092500D01*
X3450786Y-4263929D02*
X3422214Y-4278214D01*
X3350786Y-4278214D01*
X3322214Y-4263929D01*
X3307928Y-4235357D01*
X3307928Y-4206786D01*
X3322214Y-4178214D01*
X3350786Y-4163929D01*
X3422214Y-4163929D01*
X3450786Y-4149643D01*
X3593643Y-4078214D02*
X3593643Y-4378214D01*
X3593643Y-4092500D02*
X3622214Y-4078214D01*
X3679357Y-4078214D01*
X3707928Y-4092500D01*
X3722214Y-4106786D01*
X3736500Y-4135357D01*
X3736500Y-4221072D01*
X3722214Y-4249643D01*
X3707928Y-4263929D01*
X3679357Y-4278214D01*
X3622214Y-4278214D01*
X3593643Y-4263929D01*
X3865071Y-4249643D02*
X3879357Y-4263929D01*
X3865071Y-4278214D01*
X3850786Y-4263929D01*
X3865071Y-4249643D01*
X3865071Y-4278214D01*
X3865071Y-4092500D02*
X3879357Y-4106786D01*
X3865071Y-4121071D01*
X3850786Y-4106786D01*
X3865071Y-4092500D01*
X3865071Y-4121071D01*
X1481500Y-4752500D02*
X1521500Y-4792500D01*
X1521500Y-4752500D02*
X1481500Y-4792500D01*
X1865071Y-4608214D02*
X1893643Y-4608214D01*
X1922214Y-4622500D01*
X1936500Y-4636786D01*
X1950786Y-4665357D01*
X1965071Y-4722500D01*
X1965071Y-4793929D01*
X1950786Y-4851072D01*
X1936500Y-4879643D01*
X1922214Y-4893929D01*
X1893643Y-4908214D01*
X1865071Y-4908214D01*
X1836500Y-4893929D01*
X1822214Y-4879643D01*
X1807928Y-4851072D01*
X1793643Y-4793929D01*
X1793643Y-4722500D01*
X1807928Y-4665357D01*
X1822214Y-4636786D01*
X1836500Y-4622500D01*
X1865071Y-4608214D01*
X2093643Y-4879643D02*
X2107928Y-4893929D01*
X2093643Y-4908214D01*
X2079357Y-4893929D01*
X2093643Y-4879643D01*
X2093643Y-4908214D01*
X2365071Y-4708214D02*
X2365071Y-4908214D01*
X2293643Y-4593929D02*
X2222214Y-4808214D01*
X2407928Y-4808214D01*
X2579357Y-4608214D02*
X2607928Y-4608214D01*
X2636500Y-4622500D01*
X2650786Y-4636786D01*
X2665071Y-4665357D01*
X2679357Y-4722500D01*
X2679357Y-4793929D01*
X2665071Y-4851072D01*
X2650786Y-4879643D01*
X2636500Y-4893929D01*
X2607928Y-4908214D01*
X2579357Y-4908214D01*
X2550786Y-4893929D01*
X2536500Y-4879643D01*
X2522214Y-4851072D01*
X2507928Y-4793929D01*
X2507928Y-4722500D01*
X2522214Y-4665357D01*
X2536500Y-4636786D01*
X2550786Y-4622500D01*
X2579357Y-4608214D01*
X2807928Y-4908214D02*
X2807928Y-4708214D01*
X2807928Y-4736786D02*
X2822214Y-4722500D01*
X2850786Y-4708214D01*
X2893643Y-4708214D01*
X2922214Y-4722500D01*
X2936500Y-4751072D01*
X2936500Y-4908214D01*
X2936500Y-4751072D02*
X2950786Y-4722500D01*
X2979357Y-4708214D01*
X3022214Y-4708214D01*
X3050786Y-4722500D01*
X3065071Y-4751072D01*
X3065071Y-4908214D01*
X3207928Y-4908214D02*
X3207928Y-4708214D01*
X3207928Y-4736786D02*
X3222214Y-4722500D01*
X3250786Y-4708214D01*
X3293643Y-4708214D01*
X3322214Y-4722500D01*
X3336500Y-4751072D01*
X3336500Y-4908214D01*
X3336500Y-4751072D02*
X3350786Y-4722500D01*
X3379357Y-4708214D01*
X3422214Y-4708214D01*
X3450786Y-4722500D01*
X3465071Y-4751072D01*
X3465071Y-4908214D01*
X4050786Y-4593929D02*
X3793643Y-4979643D01*
X4436500Y-4608214D02*
X4465071Y-4608214D01*
X4493643Y-4622500D01*
X4507928Y-4636786D01*
X4522214Y-4665357D01*
X4536500Y-4722500D01*
X4536500Y-4793929D01*
X4522214Y-4851072D01*
X4507928Y-4879643D01*
X4493643Y-4893929D01*
X4465071Y-4908214D01*
X4436500Y-4908214D01*
X4407928Y-4893929D01*
X4393643Y-4879643D01*
X4379357Y-4851072D01*
X4365071Y-4793929D01*
X4365071Y-4722500D01*
X4379357Y-4665357D01*
X4393643Y-4636786D01*
X4407928Y-4622500D01*
X4436500Y-4608214D01*
X4665071Y-4879643D02*
X4679357Y-4893929D01*
X4665071Y-4908214D01*
X4650786Y-4893929D01*
X4665071Y-4879643D01*
X4665071Y-4908214D01*
X4865071Y-4608214D02*
X4893643Y-4608214D01*
X4922214Y-4622500D01*
X4936500Y-4636786D01*
X4950786Y-4665357D01*
X4965071Y-4722500D01*
X4965071Y-4793929D01*
X4950786Y-4851072D01*
X4936500Y-4879643D01*
X4922214Y-4893929D01*
X4893643Y-4908214D01*
X4865071Y-4908214D01*
X4836500Y-4893929D01*
X4822214Y-4879643D01*
X4807928Y-4851072D01*
X4793643Y-4793929D01*
X4793643Y-4722500D01*
X4807928Y-4665357D01*
X4822214Y-4636786D01*
X4836500Y-4622500D01*
X4865071Y-4608214D01*
X5250786Y-4908214D02*
X5079357Y-4908214D01*
X5165071Y-4908214D02*
X5165071Y-4608214D01*
X5136500Y-4651072D01*
X5107928Y-4679643D01*
X5079357Y-4693929D01*
X5507928Y-4608214D02*
X5450786Y-4608214D01*
X5422214Y-4622500D01*
X5407928Y-4636786D01*
X5379357Y-4679643D01*
X5365071Y-4736786D01*
X5365071Y-4851072D01*
X5379357Y-4879643D01*
X5393643Y-4893929D01*
X5422214Y-4908214D01*
X5479357Y-4908214D01*
X5507928Y-4893929D01*
X5522214Y-4879643D01*
X5536500Y-4851072D01*
X5536500Y-4779643D01*
X5522214Y-4751072D01*
X5507928Y-4736786D01*
X5479357Y-4722500D01*
X5422214Y-4722500D01*
X5393643Y-4736786D01*
X5379357Y-4751072D01*
X5365071Y-4779643D01*
X5650786Y-4608214D02*
X5650786Y-4665357D01*
X5765071Y-4608214D02*
X5765071Y-4665357D01*
X6207928Y-5022500D02*
X6193643Y-5008214D01*
X6165071Y-4965357D01*
X6150786Y-4936786D01*
X6136500Y-4893929D01*
X6122214Y-4822500D01*
X6122214Y-4765357D01*
X6136500Y-4693929D01*
X6150786Y-4651072D01*
X6165071Y-4622500D01*
X6193643Y-4579643D01*
X6207928Y-4565357D01*
X6450786Y-4708214D02*
X6450786Y-4908214D01*
X6379357Y-4593929D02*
X6307928Y-4808214D01*
X6493643Y-4808214D01*
X6836500Y-4908214D02*
X6836500Y-4608214D01*
X6965071Y-4908214D02*
X6965071Y-4751072D01*
X6950786Y-4722500D01*
X6922214Y-4708214D01*
X6879357Y-4708214D01*
X6850786Y-4722500D01*
X6836500Y-4736786D01*
X7150786Y-4908214D02*
X7122214Y-4893929D01*
X7107928Y-4879643D01*
X7093643Y-4851072D01*
X7093643Y-4765357D01*
X7107928Y-4736786D01*
X7122214Y-4722500D01*
X7150786Y-4708214D01*
X7193643Y-4708214D01*
X7222214Y-4722500D01*
X7236500Y-4736786D01*
X7250786Y-4765357D01*
X7250786Y-4851072D01*
X7236500Y-4879643D01*
X7222214Y-4893929D01*
X7193643Y-4908214D01*
X7150786Y-4908214D01*
X7422214Y-4908214D02*
X7393643Y-4893929D01*
X7379357Y-4865357D01*
X7379357Y-4608214D01*
X7650786Y-4893929D02*
X7622214Y-4908214D01*
X7565071Y-4908214D01*
X7536500Y-4893929D01*
X7522214Y-4865357D01*
X7522214Y-4751072D01*
X7536500Y-4722500D01*
X7565071Y-4708214D01*
X7622214Y-4708214D01*
X7650786Y-4722500D01*
X7665071Y-4751072D01*
X7665071Y-4779643D01*
X7522214Y-4808214D01*
X7779357Y-4893929D02*
X7807928Y-4908214D01*
X7865071Y-4908214D01*
X7893643Y-4893929D01*
X7907928Y-4865357D01*
X7907928Y-4851072D01*
X7893643Y-4822500D01*
X7865071Y-4808214D01*
X7822214Y-4808214D01*
X7793643Y-4793929D01*
X7779357Y-4765357D01*
X7779357Y-4751072D01*
X7793643Y-4722500D01*
X7822214Y-4708214D01*
X7865071Y-4708214D01*
X7893643Y-4722500D01*
X8007928Y-5022500D02*
X8022214Y-5008214D01*
X8050786Y-4965357D01*
X8065071Y-4936786D01*
X8079357Y-4893929D01*
X8093643Y-4822500D01*
X8093643Y-4765357D01*
X8079357Y-4693929D01*
X8065071Y-4651072D01*
X8050786Y-4622500D01*
X8022214Y-4579643D01*
X8007928Y-4565357D01*
X1521500Y-5168500D02*
G75*
G03X1521500Y-5168500I-48250J0D01*
G01*
X1865071Y-5004214D02*
X1893643Y-5004214D01*
X1922214Y-5018500D01*
X1936500Y-5032786D01*
X1950786Y-5061357D01*
X1965071Y-5118500D01*
X1965071Y-5189929D01*
X1950786Y-5247072D01*
X1936500Y-5275643D01*
X1922214Y-5289929D01*
X1893643Y-5304214D01*
X1865071Y-5304214D01*
X1836500Y-5289929D01*
X1822214Y-5275643D01*
X1807928Y-5247072D01*
X1793643Y-5189929D01*
X1793643Y-5118500D01*
X1807928Y-5061357D01*
X1822214Y-5032786D01*
X1836500Y-5018500D01*
X1865071Y-5004214D01*
X2093643Y-5275643D02*
X2107928Y-5289929D01*
X2093643Y-5304214D01*
X2079357Y-5289929D01*
X2093643Y-5275643D01*
X2093643Y-5304214D01*
X2250786Y-5304214D02*
X2307928Y-5304214D01*
X2336500Y-5289929D01*
X2350786Y-5275643D01*
X2379357Y-5232786D01*
X2393643Y-5175643D01*
X2393643Y-5061357D01*
X2379357Y-5032786D01*
X2365071Y-5018500D01*
X2336500Y-5004214D01*
X2279357Y-5004214D01*
X2250786Y-5018500D01*
X2236500Y-5032786D01*
X2222214Y-5061357D01*
X2222214Y-5132786D01*
X2236500Y-5161357D01*
X2250786Y-5175643D01*
X2279357Y-5189929D01*
X2336500Y-5189929D01*
X2365071Y-5175643D01*
X2379357Y-5161357D01*
X2393643Y-5132786D01*
X2650786Y-5004214D02*
X2593643Y-5004214D01*
X2565071Y-5018500D01*
X2550786Y-5032786D01*
X2522214Y-5075643D01*
X2507928Y-5132786D01*
X2507928Y-5247072D01*
X2522214Y-5275643D01*
X2536500Y-5289929D01*
X2565071Y-5304214D01*
X2622214Y-5304214D01*
X2650786Y-5289929D01*
X2665071Y-5275643D01*
X2679357Y-5247072D01*
X2679357Y-5175643D01*
X2665071Y-5147072D01*
X2650786Y-5132786D01*
X2622214Y-5118500D01*
X2565071Y-5118500D01*
X2536500Y-5132786D01*
X2522214Y-5147072D01*
X2507928Y-5175643D01*
X2807928Y-5304214D02*
X2807928Y-5104214D01*
X2807928Y-5132786D02*
X2822214Y-5118500D01*
X2850786Y-5104214D01*
X2893643Y-5104214D01*
X2922214Y-5118500D01*
X2936500Y-5147072D01*
X2936500Y-5304214D01*
X2936500Y-5147072D02*
X2950786Y-5118500D01*
X2979357Y-5104214D01*
X3022214Y-5104214D01*
X3050786Y-5118500D01*
X3065071Y-5147072D01*
X3065071Y-5304214D01*
X3207928Y-5304214D02*
X3207928Y-5104214D01*
X3207928Y-5132786D02*
X3222214Y-5118500D01*
X3250786Y-5104214D01*
X3293643Y-5104214D01*
X3322214Y-5118500D01*
X3336500Y-5147072D01*
X3336500Y-5304214D01*
X3336500Y-5147072D02*
X3350786Y-5118500D01*
X3379357Y-5104214D01*
X3422214Y-5104214D01*
X3450786Y-5118500D01*
X3465071Y-5147072D01*
X3465071Y-5304214D01*
X4050786Y-4989929D02*
X3793643Y-5375643D01*
X4436500Y-5004214D02*
X4465071Y-5004214D01*
X4493643Y-5018500D01*
X4507928Y-5032786D01*
X4522214Y-5061357D01*
X4536500Y-5118500D01*
X4536500Y-5189929D01*
X4522214Y-5247072D01*
X4507928Y-5275643D01*
X4493643Y-5289929D01*
X4465071Y-5304214D01*
X4436500Y-5304214D01*
X4407928Y-5289929D01*
X4393643Y-5275643D01*
X4379357Y-5247072D01*
X4365071Y-5189929D01*
X4365071Y-5118500D01*
X4379357Y-5061357D01*
X4393643Y-5032786D01*
X4407928Y-5018500D01*
X4436500Y-5004214D01*
X4665071Y-5275643D02*
X4679357Y-5289929D01*
X4665071Y-5304214D01*
X4650786Y-5289929D01*
X4665071Y-5275643D01*
X4665071Y-5304214D01*
X4865071Y-5004214D02*
X4893643Y-5004214D01*
X4922214Y-5018500D01*
X4936500Y-5032786D01*
X4950786Y-5061357D01*
X4965071Y-5118500D01*
X4965071Y-5189929D01*
X4950786Y-5247072D01*
X4936500Y-5275643D01*
X4922214Y-5289929D01*
X4893643Y-5304214D01*
X4865071Y-5304214D01*
X4836500Y-5289929D01*
X4822214Y-5275643D01*
X4807928Y-5247072D01*
X4793643Y-5189929D01*
X4793643Y-5118500D01*
X4807928Y-5061357D01*
X4822214Y-5032786D01*
X4836500Y-5018500D01*
X4865071Y-5004214D01*
X5065071Y-5004214D02*
X5250786Y-5004214D01*
X5150786Y-5118500D01*
X5193643Y-5118500D01*
X5222214Y-5132786D01*
X5236500Y-5147072D01*
X5250786Y-5175643D01*
X5250786Y-5247072D01*
X5236500Y-5275643D01*
X5222214Y-5289929D01*
X5193643Y-5304214D01*
X5107928Y-5304214D01*
X5079357Y-5289929D01*
X5065071Y-5275643D01*
X5422214Y-5132786D02*
X5393643Y-5118500D01*
X5379357Y-5104214D01*
X5365071Y-5075643D01*
X5365071Y-5061357D01*
X5379357Y-5032786D01*
X5393643Y-5018500D01*
X5422214Y-5004214D01*
X5479357Y-5004214D01*
X5507928Y-5018500D01*
X5522214Y-5032786D01*
X5536500Y-5061357D01*
X5536500Y-5075643D01*
X5522214Y-5104214D01*
X5507928Y-5118500D01*
X5479357Y-5132786D01*
X5422214Y-5132786D01*
X5393643Y-5147072D01*
X5379357Y-5161357D01*
X5365071Y-5189929D01*
X5365071Y-5247072D01*
X5379357Y-5275643D01*
X5393643Y-5289929D01*
X5422214Y-5304214D01*
X5479357Y-5304214D01*
X5507928Y-5289929D01*
X5522214Y-5275643D01*
X5536500Y-5247072D01*
X5536500Y-5189929D01*
X5522214Y-5161357D01*
X5507928Y-5147072D01*
X5479357Y-5132786D01*
X5650786Y-5004214D02*
X5650786Y-5061357D01*
X5765071Y-5004214D02*
X5765071Y-5061357D01*
X6207928Y-5418500D02*
X6193643Y-5404214D01*
X6165071Y-5361357D01*
X6150786Y-5332786D01*
X6136500Y-5289929D01*
X6122214Y-5218500D01*
X6122214Y-5161357D01*
X6136500Y-5089929D01*
X6150786Y-5047072D01*
X6165071Y-5018500D01*
X6193643Y-4975643D01*
X6207928Y-4961357D01*
X6450786Y-5004214D02*
X6393643Y-5004214D01*
X6365071Y-5018500D01*
X6350786Y-5032786D01*
X6322214Y-5075643D01*
X6307928Y-5132786D01*
X6307928Y-5247072D01*
X6322214Y-5275643D01*
X6336500Y-5289929D01*
X6365071Y-5304214D01*
X6422214Y-5304214D01*
X6450786Y-5289929D01*
X6465071Y-5275643D01*
X6479357Y-5247072D01*
X6479357Y-5175643D01*
X6465071Y-5147072D01*
X6450786Y-5132786D01*
X6422214Y-5118500D01*
X6365071Y-5118500D01*
X6336500Y-5132786D01*
X6322214Y-5147072D01*
X6307928Y-5175643D01*
X6650786Y-5132786D02*
X6622214Y-5118500D01*
X6607928Y-5104214D01*
X6593643Y-5075643D01*
X6593643Y-5061357D01*
X6607928Y-5032786D01*
X6622214Y-5018500D01*
X6650786Y-5004214D01*
X6707928Y-5004214D01*
X6736500Y-5018500D01*
X6750786Y-5032786D01*
X6765071Y-5061357D01*
X6765071Y-5075643D01*
X6750786Y-5104214D01*
X6736500Y-5118500D01*
X6707928Y-5132786D01*
X6650786Y-5132786D01*
X6622214Y-5147072D01*
X6607928Y-5161357D01*
X6593643Y-5189929D01*
X6593643Y-5247072D01*
X6607928Y-5275643D01*
X6622214Y-5289929D01*
X6650786Y-5304214D01*
X6707928Y-5304214D01*
X6736500Y-5289929D01*
X6750786Y-5275643D01*
X6765071Y-5247072D01*
X6765071Y-5189929D01*
X6750786Y-5161357D01*
X6736500Y-5147072D01*
X6707928Y-5132786D01*
X7122214Y-5304214D02*
X7122214Y-5004214D01*
X7250786Y-5304214D02*
X7250786Y-5147072D01*
X7236500Y-5118500D01*
X7207928Y-5104214D01*
X7165071Y-5104214D01*
X7136500Y-5118500D01*
X7122214Y-5132786D01*
X7436500Y-5304214D02*
X7407928Y-5289929D01*
X7393643Y-5275643D01*
X7379357Y-5247072D01*
X7379357Y-5161357D01*
X7393643Y-5132786D01*
X7407928Y-5118500D01*
X7436500Y-5104214D01*
X7479357Y-5104214D01*
X7507928Y-5118500D01*
X7522214Y-5132786D01*
X7536500Y-5161357D01*
X7536500Y-5247072D01*
X7522214Y-5275643D01*
X7507928Y-5289929D01*
X7479357Y-5304214D01*
X7436500Y-5304214D01*
X7707928Y-5304214D02*
X7679357Y-5289929D01*
X7665071Y-5261357D01*
X7665071Y-5004214D01*
X7936500Y-5289929D02*
X7907928Y-5304214D01*
X7850786Y-5304214D01*
X7822214Y-5289929D01*
X7807928Y-5261357D01*
X7807928Y-5147072D01*
X7822214Y-5118500D01*
X7850786Y-5104214D01*
X7907928Y-5104214D01*
X7936500Y-5118500D01*
X7950786Y-5147072D01*
X7950786Y-5175643D01*
X7807928Y-5204214D01*
X8065071Y-5289929D02*
X8093643Y-5304214D01*
X8150786Y-5304214D01*
X8179357Y-5289929D01*
X8193643Y-5261357D01*
X8193643Y-5247072D01*
X8179357Y-5218500D01*
X8150786Y-5204214D01*
X8107928Y-5204214D01*
X8079357Y-5189929D01*
X8065071Y-5161357D01*
X8065071Y-5147072D01*
X8079357Y-5118500D01*
X8107928Y-5104214D01*
X8150786Y-5104214D01*
X8179357Y-5118500D01*
X8293643Y-5418500D02*
X8307928Y-5404214D01*
X8336500Y-5361357D01*
X8350786Y-5332786D01*
X8365071Y-5289929D01*
X8379357Y-5218500D01*
X8379357Y-5161357D01*
X8365071Y-5089929D01*
X8350786Y-5047072D01*
X8336500Y-5018500D01*
X8307928Y-4975643D01*
X8293643Y-4961357D01*
X1471500Y-5514500D02*
X1471500Y-5614500D01*
X1421500Y-5564500D02*
X1521500Y-5564500D01*
X1965071Y-5700214D02*
X1793643Y-5700214D01*
X1879357Y-5700214D02*
X1879357Y-5400214D01*
X1850786Y-5443072D01*
X1822214Y-5471643D01*
X1793643Y-5485929D01*
X2093643Y-5671643D02*
X2107928Y-5685929D01*
X2093643Y-5700214D01*
X2079357Y-5685929D01*
X2093643Y-5671643D01*
X2093643Y-5700214D01*
X2293643Y-5400214D02*
X2322214Y-5400214D01*
X2350786Y-5414500D01*
X2365071Y-5428786D01*
X2379357Y-5457357D01*
X2393643Y-5514500D01*
X2393643Y-5585929D01*
X2379357Y-5643071D01*
X2365071Y-5671643D01*
X2350786Y-5685929D01*
X2322214Y-5700214D01*
X2293643Y-5700214D01*
X2265071Y-5685929D01*
X2250786Y-5671643D01*
X2236500Y-5643071D01*
X2222214Y-5585929D01*
X2222214Y-5514500D01*
X2236500Y-5457357D01*
X2250786Y-5428786D01*
X2265071Y-5414500D01*
X2293643Y-5400214D01*
X2579357Y-5400214D02*
X2607928Y-5400214D01*
X2636500Y-5414500D01*
X2650786Y-5428786D01*
X2665071Y-5457357D01*
X2679357Y-5514500D01*
X2679357Y-5585929D01*
X2665071Y-5643071D01*
X2650786Y-5671643D01*
X2636500Y-5685929D01*
X2607928Y-5700214D01*
X2579357Y-5700214D01*
X2550786Y-5685929D01*
X2536500Y-5671643D01*
X2522214Y-5643071D01*
X2507928Y-5585929D01*
X2507928Y-5514500D01*
X2522214Y-5457357D01*
X2536500Y-5428786D01*
X2550786Y-5414500D01*
X2579357Y-5400214D01*
X2807928Y-5700214D02*
X2807928Y-5500214D01*
X2807928Y-5528786D02*
X2822214Y-5514500D01*
X2850786Y-5500214D01*
X2893643Y-5500214D01*
X2922214Y-5514500D01*
X2936500Y-5543072D01*
X2936500Y-5700214D01*
X2936500Y-5543072D02*
X2950786Y-5514500D01*
X2979357Y-5500214D01*
X3022214Y-5500214D01*
X3050786Y-5514500D01*
X3065071Y-5543072D01*
X3065071Y-5700214D01*
X3207928Y-5700214D02*
X3207928Y-5500214D01*
X3207928Y-5528786D02*
X3222214Y-5514500D01*
X3250786Y-5500214D01*
X3293643Y-5500214D01*
X3322214Y-5514500D01*
X3336500Y-5543072D01*
X3336500Y-5700214D01*
X3336500Y-5543072D02*
X3350786Y-5514500D01*
X3379357Y-5500214D01*
X3422214Y-5500214D01*
X3450786Y-5514500D01*
X3465071Y-5543072D01*
X3465071Y-5700214D01*
X4050786Y-5385929D02*
X3793643Y-5771643D01*
X4436500Y-5400214D02*
X4465071Y-5400214D01*
X4493643Y-5414500D01*
X4507928Y-5428786D01*
X4522214Y-5457357D01*
X4536500Y-5514500D01*
X4536500Y-5585929D01*
X4522214Y-5643071D01*
X4507928Y-5671643D01*
X4493643Y-5685929D01*
X4465071Y-5700214D01*
X4436500Y-5700214D01*
X4407928Y-5685929D01*
X4393643Y-5671643D01*
X4379357Y-5643071D01*
X4365071Y-5585929D01*
X4365071Y-5514500D01*
X4379357Y-5457357D01*
X4393643Y-5428786D01*
X4407928Y-5414500D01*
X4436500Y-5400214D01*
X4665071Y-5671643D02*
X4679357Y-5685929D01*
X4665071Y-5700214D01*
X4650786Y-5685929D01*
X4665071Y-5671643D01*
X4665071Y-5700214D01*
X4865071Y-5400214D02*
X4893643Y-5400214D01*
X4922214Y-5414500D01*
X4936500Y-5428786D01*
X4950786Y-5457357D01*
X4965071Y-5514500D01*
X4965071Y-5585929D01*
X4950786Y-5643071D01*
X4936500Y-5671643D01*
X4922214Y-5685929D01*
X4893643Y-5700214D01*
X4865071Y-5700214D01*
X4836500Y-5685929D01*
X4822214Y-5671643D01*
X4807928Y-5643071D01*
X4793643Y-5585929D01*
X4793643Y-5514500D01*
X4807928Y-5457357D01*
X4822214Y-5428786D01*
X4836500Y-5414500D01*
X4865071Y-5400214D01*
X5065071Y-5400214D02*
X5250786Y-5400214D01*
X5150786Y-5514500D01*
X5193643Y-5514500D01*
X5222214Y-5528786D01*
X5236500Y-5543072D01*
X5250786Y-5571643D01*
X5250786Y-5643071D01*
X5236500Y-5671643D01*
X5222214Y-5685929D01*
X5193643Y-5700214D01*
X5107928Y-5700214D01*
X5079357Y-5685929D01*
X5065071Y-5671643D01*
X5393643Y-5700214D02*
X5450786Y-5700214D01*
X5479357Y-5685929D01*
X5493643Y-5671643D01*
X5522214Y-5628786D01*
X5536500Y-5571643D01*
X5536500Y-5457357D01*
X5522214Y-5428786D01*
X5507928Y-5414500D01*
X5479357Y-5400214D01*
X5422214Y-5400214D01*
X5393643Y-5414500D01*
X5379357Y-5428786D01*
X5365071Y-5457357D01*
X5365071Y-5528786D01*
X5379357Y-5557357D01*
X5393643Y-5571643D01*
X5422214Y-5585929D01*
X5479357Y-5585929D01*
X5507928Y-5571643D01*
X5522214Y-5557357D01*
X5536500Y-5528786D01*
X5650786Y-5400214D02*
X5650786Y-5457357D01*
X5765071Y-5400214D02*
X5765071Y-5457357D01*
X6207928Y-5814500D02*
X6193643Y-5800214D01*
X6165071Y-5757357D01*
X6150786Y-5728786D01*
X6136500Y-5685929D01*
X6122214Y-5614500D01*
X6122214Y-5557357D01*
X6136500Y-5485929D01*
X6150786Y-5443072D01*
X6165071Y-5414500D01*
X6193643Y-5371643D01*
X6207928Y-5357357D01*
X6450786Y-5500214D02*
X6450786Y-5700214D01*
X6379357Y-5385929D02*
X6307928Y-5600214D01*
X6493643Y-5600214D01*
X6836500Y-5700214D02*
X6836500Y-5400214D01*
X6965071Y-5700214D02*
X6965071Y-5543072D01*
X6950786Y-5514500D01*
X6922214Y-5500214D01*
X6879357Y-5500214D01*
X6850786Y-5514500D01*
X6836500Y-5528786D01*
X7150786Y-5700214D02*
X7122214Y-5685929D01*
X7107928Y-5671643D01*
X7093643Y-5643071D01*
X7093643Y-5557357D01*
X7107928Y-5528786D01*
X7122214Y-5514500D01*
X7150786Y-5500214D01*
X7193643Y-5500214D01*
X7222214Y-5514500D01*
X7236500Y-5528786D01*
X7250786Y-5557357D01*
X7250786Y-5643071D01*
X7236500Y-5671643D01*
X7222214Y-5685929D01*
X7193643Y-5700214D01*
X7150786Y-5700214D01*
X7422214Y-5700214D02*
X7393643Y-5685929D01*
X7379357Y-5657357D01*
X7379357Y-5400214D01*
X7650786Y-5685929D02*
X7622214Y-5700214D01*
X7565071Y-5700214D01*
X7536500Y-5685929D01*
X7522214Y-5657357D01*
X7522214Y-5543072D01*
X7536500Y-5514500D01*
X7565071Y-5500214D01*
X7622214Y-5500214D01*
X7650786Y-5514500D01*
X7665071Y-5543072D01*
X7665071Y-5571643D01*
X7522214Y-5600214D01*
X7779357Y-5685929D02*
X7807928Y-5700214D01*
X7865071Y-5700214D01*
X7893643Y-5685929D01*
X7907928Y-5657357D01*
X7907928Y-5643071D01*
X7893643Y-5614500D01*
X7865071Y-5600214D01*
X7822214Y-5600214D01*
X7793643Y-5585929D01*
X7779357Y-5557357D01*
X7779357Y-5543072D01*
X7793643Y-5514500D01*
X7822214Y-5500214D01*
X7865071Y-5500214D01*
X7893643Y-5514500D01*
X8007928Y-5814500D02*
X8022214Y-5800214D01*
X8050786Y-5757357D01*
X8065071Y-5728786D01*
X8079357Y-5685929D01*
X8093643Y-5614500D01*
X8093643Y-5557357D01*
X8079357Y-5485929D01*
X8065071Y-5443072D01*
X8050786Y-5414500D01*
X8022214Y-5371643D01*
X8007928Y-5357357D01*
M02*
