%FSLAX45Y45*%
G04 Gerber Fmt 4.5, Leading zero omitted, Abs format (unit mm)*
G04 Created by KiCad (PCBNEW (5.1.5-0-10_14)) date 2020-03-21 13:08:16*
%MOMM*%
%LPD*%
G04 APERTURE LIST*
%TA.AperFunction,Profile*%
%ADD10C,0.050000*%
%TD*%
%ADD11C,0.200000*%
%ADD12C,0.300000*%
G04 APERTURE END LIST*
D10*
X1524000Y-2032000D02*
X7670800Y-2032000D01*
X1524000Y-3810000D02*
X1524000Y-2032000D01*
X7670800Y-3810000D02*
X1524000Y-3810000D01*
X7670800Y-2032000D02*
X7670800Y-3810000D01*
D11*
D12*
X1807928Y-4278214D02*
X1807928Y-3978214D01*
X1879357Y-3978214D01*
X1922214Y-3992500D01*
X1950786Y-4021071D01*
X1965071Y-4049643D01*
X1979357Y-4106786D01*
X1979357Y-4149643D01*
X1965071Y-4206786D01*
X1950786Y-4235357D01*
X1922214Y-4263929D01*
X1879357Y-4278214D01*
X1807928Y-4278214D01*
X2107928Y-4278214D02*
X2107928Y-4078214D01*
X2107928Y-4135357D02*
X2122214Y-4106786D01*
X2136500Y-4092500D01*
X2165071Y-4078214D01*
X2193643Y-4078214D01*
X2293643Y-4278214D02*
X2293643Y-4078214D01*
X2293643Y-3978214D02*
X2279357Y-3992500D01*
X2293643Y-4006786D01*
X2307928Y-3992500D01*
X2293643Y-3978214D01*
X2293643Y-4006786D01*
X2479357Y-4278214D02*
X2450786Y-4263929D01*
X2436500Y-4235357D01*
X2436500Y-3978214D01*
X2636500Y-4278214D02*
X2607928Y-4263929D01*
X2593643Y-4235357D01*
X2593643Y-3978214D01*
X2979357Y-4278214D02*
X2979357Y-3978214D01*
X3079357Y-4192500D01*
X3179357Y-3978214D01*
X3179357Y-4278214D01*
X3450786Y-4278214D02*
X3450786Y-4121071D01*
X3436500Y-4092500D01*
X3407928Y-4078214D01*
X3350786Y-4078214D01*
X3322214Y-4092500D01*
X3450786Y-4263929D02*
X3422214Y-4278214D01*
X3350786Y-4278214D01*
X3322214Y-4263929D01*
X3307928Y-4235357D01*
X3307928Y-4206786D01*
X3322214Y-4178214D01*
X3350786Y-4163929D01*
X3422214Y-4163929D01*
X3450786Y-4149643D01*
X3593643Y-4078214D02*
X3593643Y-4378214D01*
X3593643Y-4092500D02*
X3622214Y-4078214D01*
X3679357Y-4078214D01*
X3707928Y-4092500D01*
X3722214Y-4106786D01*
X3736500Y-4135357D01*
X3736500Y-4221072D01*
X3722214Y-4249643D01*
X3707928Y-4263929D01*
X3679357Y-4278214D01*
X3622214Y-4278214D01*
X3593643Y-4263929D01*
X3865071Y-4249643D02*
X3879357Y-4263929D01*
X3865071Y-4278214D01*
X3850786Y-4263929D01*
X3865071Y-4249643D01*
X3865071Y-4278214D01*
X3865071Y-4092500D02*
X3879357Y-4106786D01*
X3865071Y-4121071D01*
X3850786Y-4106786D01*
X3865071Y-4092500D01*
X3865071Y-4121071D01*
M02*
